STARTFONT 2.1
FONT -Misc-Fixed-Bold-R-Normal--15-140-75-75-C-90-ISO10646-1
SIZE 15 75 75
FONTBOUNDINGBOX 9 15 0 -3

STARTPROPERTIES 24
FONTNAME_REGISTRY ""
FOUNDRY "Misc"
FAMILY_NAME "Fixed"
WEIGHT_NAME "Bold"
SLANT "R"
SETWIDTH_NAME "Normal"
ADD_STYLE_NAME ""
PIXEL_SIZE 15
POINT_SIZE 140
RESOLUTION_X 75
RESOLUTION_Y 75
SPACING "C"
AVERAGE_WIDTH 90
CHARSET_REGISTRY "ISO10646"
CHARSET_ENCODING "1"
COPYRIGHT "Public domain font.  Share and enjoy."
_XMBDFED_INFO "Edited with xmbdfed 4.5."
X_HEIGHT 7
CAP_HEIGHT 10
WEIGHT 10
QUAD_WIDTH 9
DEFAULT_CHAR 0
FONT_DESCENT 3
FONT_ASCENT 12
ENDPROPERTIES

CHARS 1688

STARTCHAR char0
ENCODING 0
SWIDTH 785 0
DWIDTH 9 0
BBX 9 15 0 -3
BITMAP
0000
DB00
DB00
0000
C300
C300
0000
C300
C300
0000
DB00
DB00
0000
0000
0000
ENDCHAR

STARTCHAR space
ENCODING 32
SWIDTH 785 0
DWIDTH 9 0
BBX 9 15 0 -3
BITMAP
0000
0000
0000
0000
0000
0000
0000
0000
0000
0000
0000
0000
0000
0000
0000
ENDCHAR

STARTCHAR exclam
ENCODING 33
SWIDTH 785 0
DWIDTH 9 0
BBX 9 15 0 -3
BITMAP
0000
0000
1800
1800
1800
1800
1800
1800
1800
1800
0000
1800
0000
0000
0000
ENDCHAR

STARTCHAR quotedbl
ENCODING 34
SWIDTH 785 0
DWIDTH 9 0
BBX 9 15 0 -3
BITMAP
0000
0000
3600
3600
3600
0000
0000
0000
0000
0000
0000
0000
0000
0000
0000
ENDCHAR

STARTCHAR numbersign
ENCODING 35
SWIDTH 785 0
DWIDTH 9 0
BBX 9 15 0 -3
BITMAP
0000
0000
0000
3600
3600
7F00
3600
3600
7F00
3600
3600
0000
0000
0000
0000
ENDCHAR

STARTCHAR dollar
ENCODING 36
SWIDTH 785 0
DWIDTH 9 0
BBX 9 15 0 -3
BITMAP
0000
0000
0800
3E00
6B00
6800
7800
3E00
0F00
0B00
6B00
3E00
0800
0000
0000
ENDCHAR

STARTCHAR percent
ENCODING 37
SWIDTH 785 0
DWIDTH 9 0
BBX 9 15 0 -3
BITMAP
0000
0000
4300
E600
E600
4C00
1800
1800
3200
6700
6700
C200
0000
0000
0000
ENDCHAR

STARTCHAR ampersand
ENCODING 38
SWIDTH 785 0
DWIDTH 9 0
BBX 9 15 0 -3
BITMAP
0000
0000
3800
6C00
6C00
7800
3000
7900
CF00
C600
CE00
7B00
0000
0000
0000
ENDCHAR

STARTCHAR quotesingle
ENCODING 39
SWIDTH 785 0
DWIDTH 9 0
BBX 9 15 0 -3
BITMAP
0000
0000
1800
1800
1800
1800
0000
0000
0000
0000
0000
0000
0000
0000
0000
ENDCHAR

STARTCHAR parenleft
ENCODING 40
SWIDTH 785 0
DWIDTH 9 0
BBX 9 15 0 -3
BITMAP
0000
0600
0C00
1800
1800
3000
3000
3000
3000
1800
1800
0C00
0600
0000
0000
ENDCHAR

STARTCHAR parenright
ENCODING 41
SWIDTH 785 0
DWIDTH 9 0
BBX 9 15 0 -3
BITMAP
0000
3000
1800
0C00
0C00
0600
0600
0600
0600
0C00
0C00
1800
3000
0000
0000
ENDCHAR

STARTCHAR asterisk
ENCODING 42
SWIDTH 785 0
DWIDTH 9 0
BBX 9 15 0 -3
BITMAP
0000
0000
0000
0000
0000
3600
1C00
7F00
1C00
3600
0000
0000
0000
0000
0000
ENDCHAR

STARTCHAR plus
ENCODING 43
SWIDTH 785 0
DWIDTH 9 0
BBX 9 15 0 -3
BITMAP
0000
0000
0000
0000
1800
1800
1800
FF00
1800
1800
1800
0000
0000
0000
0000
ENDCHAR

STARTCHAR comma
ENCODING 44
SWIDTH 785 0
DWIDTH 9 0
BBX 9 15 0 -3
BITMAP
0000
0000
0000
0000
0000
0000
0000
0000
0000
0000
1C00
1C00
0C00
0C00
1800
ENDCHAR

STARTCHAR hyphen
ENCODING 45
SWIDTH 785 0
DWIDTH 9 0
BBX 9 15 0 -3
BITMAP
0000
0000
0000
0000
0000
0000
0000
FF00
0000
0000
0000
0000
0000
0000
0000
ENDCHAR

STARTCHAR period
ENCODING 46
SWIDTH 785 0
DWIDTH 9 0
BBX 9 15 0 -3
BITMAP
0000
0000
0000
0000
0000
0000
0000
0000
0000
0000
1800
3C00
1800
0000
0000
ENDCHAR

STARTCHAR slash
ENCODING 47
SWIDTH 785 0
DWIDTH 9 0
BBX 9 15 0 -3
BITMAP
0000
0000
0300
0600
0600
0C00
1800
1800
3000
6000
6000
C000
0000
0000
0000
ENDCHAR

STARTCHAR zero
ENCODING 48
SWIDTH 785 0
DWIDTH 9 0
BBX 9 15 0 -3
BITMAP
0000
0000
1800
3C00
6600
C300
C300
C300
C300
6600
3C00
1800
0000
0000
0000
ENDCHAR

STARTCHAR one
ENCODING 49
SWIDTH 785 0
DWIDTH 9 0
BBX 9 15 0 -3
BITMAP
0000
0000
1800
3800
7800
1800
1800
1800
1800
1800
1800
7E00
0000
0000
0000
ENDCHAR

STARTCHAR two
ENCODING 50
SWIDTH 785 0
DWIDTH 9 0
BBX 9 15 0 -3
BITMAP
0000
0000
3C00
6600
C300
0300
0600
0C00
1800
3000
6000
FF00
0000
0000
0000
ENDCHAR

STARTCHAR three
ENCODING 51
SWIDTH 785 0
DWIDTH 9 0
BBX 9 15 0 -3
BITMAP
0000
0000
7C00
C600
0300
0600
1C00
0600
0300
0300
C600
7C00
0000
0000
0000
ENDCHAR

STARTCHAR four
ENCODING 52
SWIDTH 785 0
DWIDTH 9 0
BBX 9 15 0 -3
BITMAP
0000
0000
0600
0E00
1E00
3600
6600
C600
FF00
0600
0600
0600
0000
0000
0000
ENDCHAR

STARTCHAR five
ENCODING 53
SWIDTH 785 0
DWIDTH 9 0
BBX 9 15 0 -3
BITMAP
0000
0000
FE00
C000
C000
DC00
E600
0300
0300
C300
6600
3C00
0000
0000
0000
ENDCHAR

STARTCHAR six
ENCODING 54
SWIDTH 785 0
DWIDTH 9 0
BBX 9 15 0 -3
BITMAP
0000
0000
3C00
6600
C200
C000
DC00
E600
C300
C300
6600
3C00
0000
0000
0000
ENDCHAR

STARTCHAR seven
ENCODING 55
SWIDTH 785 0
DWIDTH 9 0
BBX 9 15 0 -3
BITMAP
0000
0000
FF00
0300
0300
0600
0C00
0C00
1800
1800
1800
1800
0000
0000
0000
ENDCHAR

STARTCHAR eight
ENCODING 56
SWIDTH 785 0
DWIDTH 9 0
BBX 9 15 0 -3
BITMAP
0000
0000
3C00
6600
C300
6600
3C00
6600
C300
C300
6600
3C00
0000
0000
0000
ENDCHAR

STARTCHAR nine
ENCODING 57
SWIDTH 785 0
DWIDTH 9 0
BBX 9 15 0 -3
BITMAP
0000
0000
3C00
6600
C300
C300
6700
3B00
0300
4300
6600
3C00
0000
0000
0000
ENDCHAR

STARTCHAR colon
ENCODING 58
SWIDTH 785 0
DWIDTH 9 0
BBX 9 15 0 -3
BITMAP
0000
0000
0000
0000
0000
1800
3C00
1800
0000
0000
1800
3C00
1800
0000
0000
ENDCHAR

STARTCHAR semicolon
ENCODING 59
SWIDTH 785 0
DWIDTH 9 0
BBX 9 15 0 -3
BITMAP
0000
0000
0000
0000
0000
1800
3C00
1800
0000
0000
1C00
1C00
0C00
0C00
1800
ENDCHAR

STARTCHAR less
ENCODING 60
SWIDTH 785 0
DWIDTH 9 0
BBX 9 15 0 -3
BITMAP
0000
0000
0600
0C00
1800
3000
6000
6000
3000
1800
0C00
0600
0000
0000
0000
ENDCHAR

STARTCHAR equal
ENCODING 61
SWIDTH 785 0
DWIDTH 9 0
BBX 9 15 0 -3
BITMAP
0000
0000
0000
0000
0000
0000
FF00
0000
0000
FF00
0000
0000
0000
0000
0000
ENDCHAR

STARTCHAR greater
ENCODING 62
SWIDTH 785 0
DWIDTH 9 0
BBX 9 15 0 -3
BITMAP
0000
0000
6000
3000
1800
0C00
0600
0600
0C00
1800
3000
6000
0000
0000
0000
ENDCHAR

STARTCHAR question
ENCODING 63
SWIDTH 785 0
DWIDTH 9 0
BBX 9 15 0 -3
BITMAP
0000
0000
3E00
6300
6300
0300
0600
0C00
1800
0000
1800
1800
0000
0000
0000
ENDCHAR

STARTCHAR at
ENCODING 64
SWIDTH 785 0
DWIDTH 9 0
BBX 9 15 0 -3
BITMAP
0000
0000
3C00
6600
C300
CF00
DB00
DB00
CE00
C000
6300
3E00
0000
0000
0000
ENDCHAR

STARTCHAR A
ENCODING 65
SWIDTH 785 0
DWIDTH 9 0
BBX 9 15 0 -3
BITMAP
0000
0000
1800
3C00
6600
C300
C300
C300
FF00
C300
C300
C300
0000
0000
0000
ENDCHAR

STARTCHAR B
ENCODING 66
SWIDTH 785 0
DWIDTH 9 0
BBX 9 15 0 -3
BITMAP
0000
0000
FC00
C600
C300
C600
FC00
C600
C300
C300
C600
FC00
0000
0000
0000
ENDCHAR

STARTCHAR C
ENCODING 67
SWIDTH 785 0
DWIDTH 9 0
BBX 9 15 0 -3
BITMAP
0000
0000
3E00
6300
C100
C000
C000
C000
C000
C100
6300
3E00
0000
0000
0000
ENDCHAR

STARTCHAR D
ENCODING 68
SWIDTH 785 0
DWIDTH 9 0
BBX 9 15 0 -3
BITMAP
0000
0000
FC00
C600
C300
C300
C300
C300
C300
C300
C600
FC00
0000
0000
0000
ENDCHAR

STARTCHAR E
ENCODING 69
SWIDTH 785 0
DWIDTH 9 0
BBX 9 15 0 -3
BITMAP
0000
0000
7F00
6000
6000
6000
7E00
6000
6000
6000
6000
7F00
0000
0000
0000
ENDCHAR

STARTCHAR F
ENCODING 70
SWIDTH 785 0
DWIDTH 9 0
BBX 9 15 0 -3
BITMAP
0000
0000
FF00
C000
C000
C000
FC00
C000
C000
C000
C000
C000
0000
0000
0000
ENDCHAR

STARTCHAR G
ENCODING 71
SWIDTH 785 0
DWIDTH 9 0
BBX 9 15 0 -3
BITMAP
0000
0000
3E00
6300
C000
C000
C000
C700
C300
C300
6300
3E00
0000
0000
0000
ENDCHAR

STARTCHAR H
ENCODING 72
SWIDTH 785 0
DWIDTH 9 0
BBX 9 15 0 -3
BITMAP
0000
0000
C300
C300
C300
C300
FF00
C300
C300
C300
C300
C300
0000
0000
0000
ENDCHAR

STARTCHAR I
ENCODING 73
SWIDTH 785 0
DWIDTH 9 0
BBX 9 15 0 -3
BITMAP
0000
0000
7E00
1800
1800
1800
1800
1800
1800
1800
1800
7E00
0000
0000
0000
ENDCHAR

STARTCHAR J
ENCODING 74
SWIDTH 785 0
DWIDTH 9 0
BBX 9 15 0 -3
BITMAP
0000
0000
1E00
0600
0600
0600
0600
0600
0600
4600
6C00
3800
0000
0000
0000
ENDCHAR

STARTCHAR K
ENCODING 75
SWIDTH 785 0
DWIDTH 9 0
BBX 9 15 0 -3
BITMAP
0000
0000
C300
C600
CC00
D800
F000
F000
D800
CC00
C600
C300
0000
0000
0000
ENDCHAR

STARTCHAR L
ENCODING 76
SWIDTH 785 0
DWIDTH 9 0
BBX 9 15 0 -3
BITMAP
0000
0000
6000
6000
6000
6000
6000
6000
6000
6000
6000
7F00
0000
0000
0000
ENDCHAR

STARTCHAR M
ENCODING 77
SWIDTH 785 0
DWIDTH 9 0
BBX 9 15 0 -3
BITMAP
0000
0000
C300
E700
FF00
DB00
DB00
DB00
C300
C300
C300
C300
0000
0000
0000
ENDCHAR

STARTCHAR N
ENCODING 78
SWIDTH 785 0
DWIDTH 9 0
BBX 9 15 0 -3
BITMAP
0000
0000
C300
E300
F300
F300
DB00
DB00
CF00
C700
C700
C300
0000
0000
0000
ENDCHAR

STARTCHAR O
ENCODING 79
SWIDTH 785 0
DWIDTH 9 0
BBX 9 15 0 -3
BITMAP
0000
0000
3C00
6600
C300
C300
C300
C300
C300
C300
6600
3C00
0000
0000
0000
ENDCHAR

STARTCHAR P
ENCODING 80
SWIDTH 785 0
DWIDTH 9 0
BBX 9 15 0 -3
BITMAP
0000
0000
FE00
C300
C300
C300
FE00
C000
C000
C000
C000
C000
0000
0000
0000
ENDCHAR

STARTCHAR Q
ENCODING 81
SWIDTH 785 0
DWIDTH 9 0
BBX 9 15 0 -3
BITMAP
0000
0000
3C00
6600
C300
C300
C300
C300
DB00
CF00
6600
3D00
0000
0000
0000
ENDCHAR

STARTCHAR R
ENCODING 82
SWIDTH 785 0
DWIDTH 9 0
BBX 9 15 0 -3
BITMAP
0000
0000
FE00
C300
C300
C300
FE00
F800
CC00
C600
C300
C300
0000
0000
0000
ENDCHAR

STARTCHAR S
ENCODING 83
SWIDTH 785 0
DWIDTH 9 0
BBX 9 15 0 -3
BITMAP
0000
0000
7E00
C300
C000
C000
7E00
0300
0300
0300
C300
7E00
0000
0000
0000
ENDCHAR

STARTCHAR T
ENCODING 84
SWIDTH 785 0
DWIDTH 9 0
BBX 9 15 0 -3
BITMAP
0000
0000
FF00
1800
1800
1800
1800
1800
1800
1800
1800
1800
0000
0000
0000
ENDCHAR

STARTCHAR U
ENCODING 85
SWIDTH 785 0
DWIDTH 9 0
BBX 9 15 0 -3
BITMAP
0000
0000
C300
C300
C300
C300
C300
C300
C300
C300
6600
3C00
0000
0000
0000
ENDCHAR

STARTCHAR V
ENCODING 86
SWIDTH 785 0
DWIDTH 9 0
BBX 9 15 0 -3
BITMAP
0000
0000
C300
C300
C300
6600
6600
6600
3C00
3C00
1800
1800
0000
0000
0000
ENDCHAR

STARTCHAR W
ENCODING 87
SWIDTH 785 0
DWIDTH 9 0
BBX 9 15 0 -3
BITMAP
0000
0000
C300
C300
C300
C300
DB00
DB00
DB00
FF00
E700
C300
0000
0000
0000
ENDCHAR

STARTCHAR X
ENCODING 88
SWIDTH 785 0
DWIDTH 9 0
BBX 9 15 0 -3
BITMAP
0000
0000
C300
C300
6600
3C00
1800
1800
3C00
6600
C300
C300
0000
0000
0000
ENDCHAR

STARTCHAR Y
ENCODING 89
SWIDTH 785 0
DWIDTH 9 0
BBX 9 15 0 -3
BITMAP
0000
0000
C300
C300
6600
3C00
1800
1800
1800
1800
1800
1800
0000
0000
0000
ENDCHAR

STARTCHAR Z
ENCODING 90
SWIDTH 785 0
DWIDTH 9 0
BBX 9 15 0 -3
BITMAP
0000
0000
7F00
0300
0300
0600
0C00
1800
3000
6000
6000
7F00
0000
0000
0000
ENDCHAR

STARTCHAR bracketleft
ENCODING 91
SWIDTH 785 0
DWIDTH 9 0
BBX 9 15 0 -3
BITMAP
0000
3E00
3000
3000
3000
3000
3000
3000
3000
3000
3000
3000
3E00
0000
0000
ENDCHAR

STARTCHAR backslash
ENCODING 92
SWIDTH 785 0
DWIDTH 9 0
BBX 9 15 0 -3
BITMAP
0000
0000
C000
6000
6000
3000
1800
1800
0C00
0600
0600
0300
0000
0000
0000
ENDCHAR

STARTCHAR bracketright
ENCODING 93
SWIDTH 785 0
DWIDTH 9 0
BBX 9 15 0 -3
BITMAP
0000
3E00
0600
0600
0600
0600
0600
0600
0600
0600
0600
0600
3E00
0000
0000
ENDCHAR

STARTCHAR asciicircum
ENCODING 94
SWIDTH 785 0
DWIDTH 9 0
BBX 9 15 0 -3
BITMAP
0000
0000
1800
3C00
6600
4200
0000
0000
0000
0000
0000
0000
0000
0000
0000
ENDCHAR

STARTCHAR underscore
ENCODING 95
SWIDTH 785 0
DWIDTH 9 0
BBX 9 15 0 -3
BITMAP
0000
0000
0000
0000
0000
0000
0000
0000
0000
0000
0000
0000
FF00
0000
0000
ENDCHAR

STARTCHAR grave
ENCODING 96
SWIDTH 785 0
DWIDTH 9 0
BBX 9 15 0 -3
BITMAP
0000
3000
1800
0C00
0000
0000
0000
0000
0000
0000
0000
0000
0000
0000
0000
ENDCHAR

STARTCHAR a
ENCODING 97
SWIDTH 785 0
DWIDTH 9 0
BBX 9 15 0 -3
BITMAP
0000
0000
0000
0000
0000
3E00
6300
0300
7F00
C300
C700
7B00
0000
0000
0000
ENDCHAR

STARTCHAR b
ENCODING 98
SWIDTH 785 0
DWIDTH 9 0
BBX 9 15 0 -3
BITMAP
0000
0000
C000
C000
C000
DC00
E600
C300
C300
C300
E600
DC00
0000
0000
0000
ENDCHAR

STARTCHAR c
ENCODING 99
SWIDTH 785 0
DWIDTH 9 0
BBX 9 15 0 -3
BITMAP
0000
0000
0000
0000
0000
3E00
6300
C000
C000
C000
6300
3E00
0000
0000
0000
ENDCHAR

STARTCHAR d
ENCODING 100
SWIDTH 785 0
DWIDTH 9 0
BBX 9 15 0 -3
BITMAP
0000
0000
0300
0300
0300
3B00
6700
C300
C300
C300
6700
3B00
0000
0000
0000
ENDCHAR

STARTCHAR e
ENCODING 101
SWIDTH 785 0
DWIDTH 9 0
BBX 9 15 0 -3
BITMAP
0000
0000
0000
0000
0000
3C00
6600
C300
FF00
C000
6300
3E00
0000
0000
0000
ENDCHAR

STARTCHAR f
ENCODING 102
SWIDTH 785 0
DWIDTH 9 0
BBX 9 15 0 -3
BITMAP
0000
0000
1E00
3300
3300
3000
3000
FC00
3000
3000
3000
3000
0000
0000
0000
ENDCHAR

STARTCHAR g
ENCODING 103
SWIDTH 785 0
DWIDTH 9 0
BBX 9 15 0 -3
BITMAP
0000
0000
0000
0000
0000
7D00
C700
C600
C600
7C00
C000
7E00
C300
C300
7E00
ENDCHAR

STARTCHAR h
ENCODING 104
SWIDTH 785 0
DWIDTH 9 0
BBX 9 15 0 -3
BITMAP
0000
0000
C000
C000
C000
DC00
E600
C300
C300
C300
C300
C300
0000
0000
0000
ENDCHAR

STARTCHAR i
ENCODING 105
SWIDTH 785 0
DWIDTH 9 0
BBX 9 15 0 -3
BITMAP
0000
0000
1800
1800
0000
3800
1800
1800
1800
1800
1800
7E00
0000
0000
0000
ENDCHAR

STARTCHAR j
ENCODING 106
SWIDTH 785 0
DWIDTH 9 0
BBX 9 15 0 -3
BITMAP
0000
0000
0300
0300
0000
0F00
0300
0300
0300
0300
0300
6300
6300
6300
3E00
ENDCHAR

STARTCHAR k
ENCODING 107
SWIDTH 785 0
DWIDTH 9 0
BBX 9 15 0 -3
BITMAP
0000
0000
6000
6000
6000
6600
6C00
7800
7800
6C00
6600
6300
0000
0000
0000
ENDCHAR

STARTCHAR l
ENCODING 108
SWIDTH 785 0
DWIDTH 9 0
BBX 9 15 0 -3
BITMAP
0000
0000
3800
1800
1800
1800
1800
1800
1800
1800
1800
7E00
0000
0000
0000
ENDCHAR

STARTCHAR m
ENCODING 109
SWIDTH 785 0
DWIDTH 9 0
BBX 9 15 0 -3
BITMAP
0000
0000
0000
0000
0000
B600
DB00
DB00
DB00
DB00
DB00
DB00
0000
0000
0000
ENDCHAR

STARTCHAR n
ENCODING 110
SWIDTH 785 0
DWIDTH 9 0
BBX 9 15 0 -3
BITMAP
0000
0000
0000
0000
0000
DC00
E600
C300
C300
C300
C300
C300
0000
0000
0000
ENDCHAR

STARTCHAR o
ENCODING 111
SWIDTH 785 0
DWIDTH 9 0
BBX 9 15 0 -3
BITMAP
0000
0000
0000
0000
0000
3C00
6600
C300
C300
C300
6600
3C00
0000
0000
0000
ENDCHAR

STARTCHAR p
ENCODING 112
SWIDTH 785 0
DWIDTH 9 0
BBX 9 15 0 -3
BITMAP
0000
0000
0000
0000
0000
DC00
E600
C300
C300
C300
E600
DC00
C000
C000
C000
ENDCHAR

STARTCHAR q
ENCODING 113
SWIDTH 785 0
DWIDTH 9 0
BBX 9 15 0 -3
BITMAP
0000
0000
0000
0000
0000
3B00
6700
C300
C300
C300
6700
3B00
0300
0300
0300
ENDCHAR

STARTCHAR r
ENCODING 114
SWIDTH 785 0
DWIDTH 9 0
BBX 9 15 0 -3
BITMAP
0000
0000
0000
0000
0000
DE00
7300
6000
6000
6000
6000
6000
0000
0000
0000
ENDCHAR

STARTCHAR s
ENCODING 115
SWIDTH 785 0
DWIDTH 9 0
BBX 9 15 0 -3
BITMAP
0000
0000
0000
0000
0000
7E00
C300
C000
7E00
0300
C300
7E00
0000
0000
0000
ENDCHAR

STARTCHAR t
ENCODING 116
SWIDTH 785 0
DWIDTH 9 0
BBX 9 15 0 -3
BITMAP
0000
0000
0000
3000
3000
FC00
3000
3000
3000
3000
3300
1E00
0000
0000
0000
ENDCHAR

STARTCHAR u
ENCODING 117
SWIDTH 785 0
DWIDTH 9 0
BBX 9 15 0 -3
BITMAP
0000
0000
0000
0000
0000
C300
C300
C300
C300
C300
6700
3B00
0000
0000
0000
ENDCHAR

STARTCHAR v
ENCODING 118
SWIDTH 785 0
DWIDTH 9 0
BBX 9 15 0 -3
BITMAP
0000
0000
0000
0000
0000
C300
C300
6600
6600
3C00
3C00
1800
0000
0000
0000
ENDCHAR

STARTCHAR w
ENCODING 119
SWIDTH 785 0
DWIDTH 9 0
BBX 9 15 0 -3
BITMAP
0000
0000
0000
0000
0000
C300
C300
DB00
DB00
DB00
FF00
6600
0000
0000
0000
ENDCHAR

STARTCHAR x
ENCODING 120
SWIDTH 785 0
DWIDTH 9 0
BBX 9 15 0 -3
BITMAP
0000
0000
0000
0000
0000
C300
6600
3C00
1800
3C00
6600
C300
0000
0000
0000
ENDCHAR

STARTCHAR y
ENCODING 121
SWIDTH 785 0
DWIDTH 9 0
BBX 9 15 0 -3
BITMAP
0000
0000
0000
0000
0000
C300
C300
C300
C300
C300
6700
3B00
0300
C600
7C00
ENDCHAR

STARTCHAR z
ENCODING 122
SWIDTH 785 0
DWIDTH 9 0
BBX 9 15 0 -3
BITMAP
0000
0000
0000
0000
0000
7E00
0600
0C00
1800
3000
6000
7E00
0000
0000
0000
ENDCHAR

STARTCHAR braceleft
ENCODING 123
SWIDTH 785 0
DWIDTH 9 0
BBX 9 15 0 -3
BITMAP
0000
0E00
1800
1800
1800
1800
3000
3000
1800
1800
1800
1800
0E00
0000
0000
ENDCHAR

STARTCHAR bar
ENCODING 124
SWIDTH 785 0
DWIDTH 9 0
BBX 9 15 0 -3
BITMAP
0000
0000
1800
1800
1800
1800
1800
1800
1800
1800
1800
1800
0000
0000
0000
ENDCHAR

STARTCHAR braceright
ENCODING 125
SWIDTH 785 0
DWIDTH 9 0
BBX 9 15 0 -3
BITMAP
0000
3800
0C00
0C00
0C00
0C00
0600
0600
0C00
0C00
0C00
0C00
3800
0000
0000
ENDCHAR

STARTCHAR asciitilde
ENCODING 126
SWIDTH 785 0
DWIDTH 9 0
BBX 9 15 0 -3
BITMAP
0000
0000
7300
DB00
CE00
0000
0000
0000
0000
0000
0000
0000
0000
0000
0000
ENDCHAR

STARTCHAR space
ENCODING 160
SWIDTH 785 0
DWIDTH 9 0
BBX 9 15 0 -3
BITMAP
0000
0000
0000
0000
0000
0000
0000
0000
0000
0000
0000
0000
0000
0000
0000
ENDCHAR

STARTCHAR exclamdown
ENCODING 161
SWIDTH 785 0
DWIDTH 9 0
BBX 9 15 0 -3
BITMAP
0000
0000
0C00
0000
0C00
0C00
0C00
0C00
0C00
0C00
0C00
0C00
0000
0000
0000
ENDCHAR

STARTCHAR cent
ENCODING 162
SWIDTH 785 0
DWIDTH 9 0
BBX 9 15 0 -3
BITMAP
0000
0000
0000
0000
0200
3E00
6700
6800
6800
7300
3E00
2000
0000
0000
0000
ENDCHAR

STARTCHAR sterling
ENCODING 163
SWIDTH 785 0
DWIDTH 9 0
BBX 9 15 0 -3
BITMAP
0000
0000
0000
1E00
3300
3000
3000
7C00
3000
3000
F800
BF00
E000
0000
0000
ENDCHAR

STARTCHAR currency
ENCODING 164
SWIDTH 785 0
DWIDTH 9 0
BBX 9 15 0 -3
BITMAP
0000
0000
0000
6300
7F00
3600
2200
3600
7F00
6300
0000
0000
0000
0000
0000
ENDCHAR

STARTCHAR yen
ENCODING 165
SWIDTH 785 0
DWIDTH 9 0
BBX 9 15 0 -3
BITMAP
0000
0000
C300
C300
6600
3C00
7E00
1800
7E00
1800
1800
1800
0000
0000
0000
ENDCHAR

STARTCHAR brokenbar
ENCODING 166
SWIDTH 785 0
DWIDTH 9 0
BBX 9 15 0 -3
BITMAP
0000
0000
0C00
0C00
0C00
0C00
0C00
0000
0000
0C00
0C00
0C00
0C00
0000
0000
ENDCHAR

STARTCHAR section
ENCODING 167
SWIDTH 785 0
DWIDTH 9 0
BBX 9 15 0 -3
BITMAP
0000
0000
3C00
6600
6000
3C00
6600
6600
6600
3C00
0600
6600
3C00
0000
0000
ENDCHAR

STARTCHAR dieresis
ENCODING 168
SWIDTH 785 0
DWIDTH 9 0
BBX 9 15 0 -3
BITMAP
0000
6600
6600
0000
0000
0000
0000
0000
0000
0000
0000
0000
0000
0000
0000
ENDCHAR

STARTCHAR copyright
ENCODING 169
SWIDTH 785 0
DWIDTH 9 0
BBX 9 15 0 -3
BITMAP
0000
3C00
7E00
C300
BD00
A500
A100
A500
BD00
C300
7E00
3C00
0000
0000
0000
ENDCHAR

STARTCHAR ordfeminine
ENCODING 170
SWIDTH 785 0
DWIDTH 9 0
BBX 9 15 0 -3
BITMAP
0000
0000
7800
0C00
7C00
4C00
7C00
0000
7C00
0000
0000
0000
0000
0000
0000
ENDCHAR

STARTCHAR guillemotleft
ENCODING 171
SWIDTH 785 0
DWIDTH 9 0
BBX 9 15 0 -3
BITMAP
0000
0000
0000
1B00
3600
6C00
D800
D800
6C00
3600
1B00
0000
0000
0000
0000
ENDCHAR

STARTCHAR logicalnot
ENCODING 172
SWIDTH 785 0
DWIDTH 9 0
BBX 9 15 0 -3
BITMAP
0000
0000
0000
0000
0000
7F00
7F00
0300
0300
0300
0000
0000
0000
0000
0000
ENDCHAR

STARTCHAR hyphen
ENCODING 173
SWIDTH 785 0
DWIDTH 9 0
BBX 9 15 0 -3
BITMAP
0000
0000
0000
0000
0000
0000
0000
7E00
0000
0000
0000
0000
0000
0000
0000
ENDCHAR

STARTCHAR registered
ENCODING 174
SWIDTH 785 0
DWIDTH 9 0
BBX 9 15 0 -3
BITMAP
0000
3C00
7E00
C300
BD00
A500
BD00
A900
AD00
C300
7E00
3C00
0000
0000
0000
ENDCHAR

STARTCHAR macron
ENCODING 175
SWIDTH 785 0
DWIDTH 9 0
BBX 9 15 0 -3
BITMAP
0000
7E00
7E00
0000
0000
0000
0000
0000
0000
0000
0000
0000
0000
0000
0000
ENDCHAR

STARTCHAR degree
ENCODING 176
SWIDTH 785 0
DWIDTH 9 0
BBX 9 15 0 -3
BITMAP
0000
0000
1E00
3300
3300
1E00
0000
0000
0000
0000
0000
0000
0000
0000
0000
ENDCHAR

STARTCHAR plusminus
ENCODING 177
SWIDTH 785 0
DWIDTH 9 0
BBX 9 15 0 -3
BITMAP
0000
0000
1800
1800
1800
FF00
FF00
1800
1800
1800
FF00
FF00
0000
0000
0000
ENDCHAR

STARTCHAR twosuperior
ENCODING 178
SWIDTH 785 0
DWIDTH 9 0
BBX 9 15 0 -3
BITMAP
0000
3800
4C00
0C00
1800
3000
6000
7C00
0000
0000
0000
0000
0000
0000
0000
ENDCHAR

STARTCHAR threesuperior
ENCODING 179
SWIDTH 785 0
DWIDTH 9 0
BBX 9 15 0 -3
BITMAP
0000
3800
4C00
0C00
1800
0C00
4C00
3800
0000
0000
0000
0000
0000
0000
0000
ENDCHAR

STARTCHAR acute
ENCODING 180
SWIDTH 785 0
DWIDTH 9 0
BBX 9 15 0 -3
BITMAP
0000
0C00
1800
3000
0000
0000
0000
0000
0000
0000
0000
0000
0000
0000
0000
ENDCHAR

STARTCHAR mu
ENCODING 181
SWIDTH 785 0
DWIDTH 9 0
BBX 9 15 0 -3
BITMAP
0000
0000
0000
0000
0000
6300
6300
6300
6300
6300
7700
7D00
6000
6000
6000
ENDCHAR

STARTCHAR paragraph
ENCODING 182
SWIDTH 785 0
DWIDTH 9 0
BBX 9 15 0 -3
BITMAP
0000
0000
3F00
7F00
7B00
7B00
7B00
3B00
1B00
1B00
1B00
1B00
0000
0000
0000
ENDCHAR

STARTCHAR periodcentered
ENCODING 183
SWIDTH 785 0
DWIDTH 9 0
BBX 9 15 0 -3
BITMAP
0000
0000
0000
0000
0000
0000
0800
1C00
0800
0000
0000
0000
0000
0000
0000
ENDCHAR

STARTCHAR cedilla
ENCODING 184
SWIDTH 785 0
DWIDTH 9 0
BBX 9 15 0 -3
BITMAP
0000
0000
0000
0000
0000
0000
0000
0000
0000
0000
0000
0000
0600
3600
1C00
ENDCHAR

STARTCHAR onesuperior
ENCODING 185
SWIDTH 785 0
DWIDTH 9 0
BBX 9 15 0 -3
BITMAP
0000
3000
7000
3000
3000
3000
3000
7800
0000
0000
0000
0000
0000
0000
0000
ENDCHAR

STARTCHAR ordmasculine
ENCODING 186
SWIDTH 785 0
DWIDTH 9 0
BBX 9 15 0 -3
BITMAP
0000
0000
3800
6C00
6C00
3800
0000
7C00
0000
0000
0000
0000
0000
0000
0000
ENDCHAR

STARTCHAR guillemotright
ENCODING 187
SWIDTH 785 0
DWIDTH 9 0
BBX 9 15 0 -3
BITMAP
0000
0000
0000
D800
6C00
3600
1B00
1B00
3600
6C00
D800
0000
0000
0000
0000
ENDCHAR

STARTCHAR onequarter
ENCODING 188
SWIDTH 785 0
DWIDTH 9 0
BBX 9 15 0 -3
BITMAP
0000
6000
E000
6000
6000
6100
6300
F700
0F00
1B00
1F00
0300
0000
0000
0000
ENDCHAR

STARTCHAR onehalf
ENCODING 189
SWIDTH 785 0
DWIDTH 9 0
BBX 9 15 0 -3
BITMAP
0000
6000
E000
6000
6000
6E00
7300
F300
0600
0C00
1800
1F00
0000
0000
0000
ENDCHAR

STARTCHAR threequarters
ENCODING 190
SWIDTH 785 0
DWIDTH 9 0
BBX 9 15 0 -3
BITMAP
0000
7000
9800
1800
3000
1900
9B00
7700
0F00
1B00
1F00
0300
0000
0000
0000
ENDCHAR

STARTCHAR questiondown
ENCODING 191
SWIDTH 785 0
DWIDTH 9 0
BBX 9 15 0 -3
BITMAP
0000
0000
0C00
0C00
0000
0C00
1800
3000
6000
6300
6300
3E00
0000
0000
0000
ENDCHAR

STARTCHAR Agrave
ENCODING 192
SWIDTH 785 0
DWIDTH 9 0
BBX 9 15 0 -3
BITMAP
6000
3000
1800
0000
3C00
6600
C300
C300
FF00
C300
C300
C300
0000
0000
0000
ENDCHAR

STARTCHAR Aacute
ENCODING 193
SWIDTH 785 0
DWIDTH 9 0
BBX 9 15 0 -3
BITMAP
0600
0C00
1800
0000
3C00
6600
C300
C300
FF00
C300
C300
C300
0000
0000
0000
ENDCHAR

STARTCHAR Acircumflex
ENCODING 194
SWIDTH 785 0
DWIDTH 9 0
BBX 9 15 0 -3
BITMAP
1800
3C00
6600
0000
3C00
6600
C300
C300
FF00
C300
C300
C300
0000
0000
0000
ENDCHAR

STARTCHAR Atilde
ENCODING 195
SWIDTH 785 0
DWIDTH 9 0
BBX 9 15 0 -3
BITMAP
3200
7E00
4C00
0000
3C00
6600
C300
C300
FF00
C300
C300
C300
0000
0000
0000
ENDCHAR

STARTCHAR Adieresis
ENCODING 196
SWIDTH 785 0
DWIDTH 9 0
BBX 9 15 0 -3
BITMAP
0000
6600
6600
0000
3C00
6600
C300
C300
FF00
C300
C300
C300
0000
0000
0000
ENDCHAR

STARTCHAR Aring
ENCODING 197
SWIDTH 785 0
DWIDTH 9 0
BBX 9 15 0 -3
BITMAP
1800
2400
2400
1800
3C00
6600
C300
C300
FF00
C300
C300
C300
0000
0000
0000
ENDCHAR

STARTCHAR AE
ENCODING 198
SWIDTH 785 0
DWIDTH 9 0
BBX 9 15 0 -3
BITMAP
0000
0000
1F00
3C00
6C00
6C00
CC00
FF00
CC00
CC00
CC00
CF00
0000
0000
0000
ENDCHAR

STARTCHAR Ccedilla
ENCODING 199
SWIDTH 785 0
DWIDTH 9 0
BBX 9 15 0 -3
BITMAP
0000
0000
3E00
6300
C100
C000
C000
C000
C000
C100
6300
3E00
0C00
6C00
3800
ENDCHAR

STARTCHAR Egrave
ENCODING 200
SWIDTH 785 0
DWIDTH 9 0
BBX 9 15 0 -3
BITMAP
3000
1800
0C00
0000
7F00
6000
6000
7E00
6000
6000
6000
7F00
0000
0000
0000
ENDCHAR

STARTCHAR Eacute
ENCODING 201
SWIDTH 785 0
DWIDTH 9 0
BBX 9 15 0 -3
BITMAP
0600
0C00
1800
0000
7F00
6000
6000
7E00
6000
6000
6000
7F00
0000
0000
0000
ENDCHAR

STARTCHAR Ecircumflex
ENCODING 202
SWIDTH 785 0
DWIDTH 9 0
BBX 9 15 0 -3
BITMAP
0C00
1E00
3300
0000
7F00
6000
6000
7E00
6000
6000
6000
7F00
0000
0000
0000
ENDCHAR

STARTCHAR Edieresis
ENCODING 203
SWIDTH 785 0
DWIDTH 9 0
BBX 9 15 0 -3
BITMAP
0000
3300
3300
0000
7F00
6000
6000
7E00
6000
6000
6000
7F00
0000
0000
0000
ENDCHAR

STARTCHAR Igrave
ENCODING 204
SWIDTH 785 0
DWIDTH 9 0
BBX 9 15 0 -3
BITMAP
6000
3000
1800
0000
7E00
1800
1800
1800
1800
1800
1800
7E00
0000
0000
0000
ENDCHAR

STARTCHAR Iacute
ENCODING 205
SWIDTH 785 0
DWIDTH 9 0
BBX 9 15 0 -3
BITMAP
0C00
1800
3000
0000
7E00
1800
1800
1800
1800
1800
1800
7E00
0000
0000
0000
ENDCHAR

STARTCHAR Icircumflex
ENCODING 206
SWIDTH 785 0
DWIDTH 9 0
BBX 9 15 0 -3
BITMAP
1800
3C00
6600
0000
7E00
1800
1800
1800
1800
1800
1800
7E00
0000
0000
0000
ENDCHAR

STARTCHAR Idieresis
ENCODING 207
SWIDTH 785 0
DWIDTH 9 0
BBX 9 15 0 -3
BITMAP
0000
6600
6600
0000
7E00
1800
1800
1800
1800
1800
1800
7E00
0000
0000
0000
ENDCHAR

STARTCHAR Eth
ENCODING 208
SWIDTH 785 0
DWIDTH 9 0
BBX 9 15 0 -3
BITMAP
0000
0000
7E00
6300
6180
6180
F980
F980
6180
6180
6300
7E00
0000
0000
0000
ENDCHAR

STARTCHAR Ntilde
ENCODING 209
SWIDTH 785 0
DWIDTH 9 0
BBX 9 15 0 -3
BITMAP
3200
7E00
4C00
0000
C300
E300
F300
FB00
DF00
CF00
C700
C300
0000
0000
0000
ENDCHAR

STARTCHAR Ograve
ENCODING 210
SWIDTH 785 0
DWIDTH 9 0
BBX 9 15 0 -3
BITMAP
6000
3000
1800
0000
3C00
6600
C300
C300
C300
C300
6600
3C00
0000
0000
0000
ENDCHAR

STARTCHAR Oacute
ENCODING 211
SWIDTH 785 0
DWIDTH 9 0
BBX 9 15 0 -3
BITMAP
0600
0C00
1800
0000
3C00
6600
C300
C300
C300
C300
6600
3C00
0000
0000
0000
ENDCHAR

STARTCHAR Ocircumflex
ENCODING 212
SWIDTH 785 0
DWIDTH 9 0
BBX 9 15 0 -3
BITMAP
1800
3C00
6600
0000
3C00
6600
C300
C300
C300
C300
6600
3C00
0000
0000
0000
ENDCHAR

STARTCHAR Otilde
ENCODING 213
SWIDTH 785 0
DWIDTH 9 0
BBX 9 15 0 -3
BITMAP
3200
7E00
4C00
0000
3C00
6600
C300
C300
C300
C300
6600
3C00
0000
0000
0000
ENDCHAR

STARTCHAR Odieresis
ENCODING 214
SWIDTH 785 0
DWIDTH 9 0
BBX 9 15 0 -3
BITMAP
0000
6600
6600
0000
3C00
6600
C300
C300
C300
C300
6600
3C00
0000
0000
0000
ENDCHAR

STARTCHAR multiply
ENCODING 215
SWIDTH 785 0
DWIDTH 9 0
BBX 9 15 0 -3
BITMAP
0000
0000
0000
0000
4100
6300
3600
1C00
1C00
3600
6300
4100
0000
0000
0000
ENDCHAR

STARTCHAR Oslash
ENCODING 216
SWIDTH 785 0
DWIDTH 9 0
BBX 9 15 0 -3
BITMAP
0000
0100
3F00
6600
C700
CB00
CB00
D300
D300
E300
6600
FC00
8000
0000
0000
ENDCHAR

STARTCHAR Ugrave
ENCODING 217
SWIDTH 785 0
DWIDTH 9 0
BBX 9 15 0 -3
BITMAP
6000
3000
1800
0000
C300
C300
C300
C300
C300
C300
6600
3C00
0000
0000
0000
ENDCHAR

STARTCHAR Uacute
ENCODING 218
SWIDTH 785 0
DWIDTH 9 0
BBX 9 15 0 -3
BITMAP
0600
0C00
1800
0000
C300
C300
C300
C300
C300
C300
6600
3C00
0000
0000
0000
ENDCHAR

STARTCHAR Ucircumflex
ENCODING 219
SWIDTH 785 0
DWIDTH 9 0
BBX 9 15 0 -3
BITMAP
1800
3C00
6600
0000
C300
C300
C300
C300
C300
C300
6600
3C00
0000
0000
0000
ENDCHAR

STARTCHAR Udieresis
ENCODING 220
SWIDTH 785 0
DWIDTH 9 0
BBX 9 15 0 -3
BITMAP
0000
6600
6600
0000
C300
C300
C300
C300
C300
C300
6600
3C00
0000
0000
0000
ENDCHAR

STARTCHAR Yacute
ENCODING 221
SWIDTH 785 0
DWIDTH 9 0
BBX 9 15 0 -3
BITMAP
0600
0C00
1800
0000
C300
6600
3C00
1800
1800
1800
1800
1800
0000
0000
0000
ENDCHAR

STARTCHAR Thorn
ENCODING 222
SWIDTH 785 0
DWIDTH 9 0
BBX 9 15 0 -3
BITMAP
0000
0000
7800
3000
3E00
3300
3300
3300
3E00
3000
3000
7800
0000
0000
0000
ENDCHAR

STARTCHAR germandbls
ENCODING 223
SWIDTH 785 0
DWIDTH 9 0
BBX 9 15 0 -3
BITMAP
0000
0000
1E00
3300
6300
6600
6C00
6600
6300
6300
6300
6E00
0000
0000
0000
ENDCHAR

STARTCHAR agrave
ENCODING 224
SWIDTH 785 0
DWIDTH 9 0
BBX 9 15 0 -3
BITMAP
0000
6000
3000
1800
0000
3E00
4300
0300
7F00
C300
C700
7B00
0000
0000
0000
ENDCHAR

STARTCHAR aacute
ENCODING 225
SWIDTH 785 0
DWIDTH 9 0
BBX 9 15 0 -3
BITMAP
0000
0C00
1800
3000
0000
3E00
4300
0300
7F00
C300
C700
7B00
0000
0000
0000
ENDCHAR

STARTCHAR acircumflex
ENCODING 226
SWIDTH 785 0
DWIDTH 9 0
BBX 9 15 0 -3
BITMAP
0000
1800
3C00
6600
0000
3E00
4300
0300
7F00
C300
C700
7B00
0000
0000
0000
ENDCHAR

STARTCHAR atilde
ENCODING 227
SWIDTH 785 0
DWIDTH 9 0
BBX 9 15 0 -3
BITMAP
0000
3200
7E00
4C00
0000
3E00
4300
0300
7F00
C300
C700
7B00
0000
0000
0000
ENDCHAR

STARTCHAR adieresis
ENCODING 228
SWIDTH 785 0
DWIDTH 9 0
BBX 9 15 0 -3
BITMAP
0000
0000
6600
6600
0000
3E00
4300
0300
7F00
C300
C700
7B00
0000
0000
0000
ENDCHAR

STARTCHAR aring
ENCODING 229
SWIDTH 785 0
DWIDTH 9 0
BBX 9 15 0 -3
BITMAP
0000
1800
2400
2400
1800
3E00
4300
0300
7F00
C300
C700
7B00
0000
0000
0000
ENDCHAR

STARTCHAR ae
ENCODING 230
SWIDTH 785 0
DWIDTH 9 0
BBX 9 15 0 -3
BITMAP
0000
0000
0000
0000
0000
7600
9B00
1B00
7E00
D800
D900
6E00
0000
0000
0000
ENDCHAR

STARTCHAR ccedilla
ENCODING 231
SWIDTH 785 0
DWIDTH 9 0
BBX 9 15 0 -3
BITMAP
0000
0000
0000
0000
0000
3E00
6300
C000
C000
C000
6300
3E00
0C00
6C00
3800
ENDCHAR

STARTCHAR egrave
ENCODING 232
SWIDTH 785 0
DWIDTH 9 0
BBX 9 15 0 -3
BITMAP
0000
6000
3000
1800
0000
3C00
6600
C300
FF00
C000
6300
3E00
0000
0000
0000
ENDCHAR

STARTCHAR eacute
ENCODING 233
SWIDTH 785 0
DWIDTH 9 0
BBX 9 15 0 -3
BITMAP
0000
0C00
1800
3000
0000
3C00
6600
C300
FF00
C000
6300
3E00
0000
0000
0000
ENDCHAR

STARTCHAR ecircumflex
ENCODING 234
SWIDTH 785 0
DWIDTH 9 0
BBX 9 15 0 -3
BITMAP
0000
1800
3C00
6600
0000
3C00
6600
C300
FF00
C000
6300
3E00
0000
0000
0000
ENDCHAR

STARTCHAR edieresis
ENCODING 235
SWIDTH 785 0
DWIDTH 9 0
BBX 9 15 0 -3
BITMAP
0000
0000
6600
6600
0000
3C00
6600
C300
FF00
C000
6300
3E00
0000
0000
0000
ENDCHAR

STARTCHAR igrave
ENCODING 236
SWIDTH 785 0
DWIDTH 9 0
BBX 9 15 0 -3
BITMAP
0000
6000
3000
1800
0000
3800
1800
1800
1800
1800
1800
7E00
0000
0000
0000
ENDCHAR

STARTCHAR iacute
ENCODING 237
SWIDTH 785 0
DWIDTH 9 0
BBX 9 15 0 -3
BITMAP
0000
0C00
1800
3000
0000
3800
1800
1800
1800
1800
1800
7E00
0000
0000
0000
ENDCHAR

STARTCHAR icircumflex
ENCODING 238
SWIDTH 785 0
DWIDTH 9 0
BBX 9 15 0 -3
BITMAP
0000
1800
3C00
6600
0000
3800
1800
1800
1800
1800
1800
7E00
0000
0000
0000
ENDCHAR

STARTCHAR idieresis
ENCODING 239
SWIDTH 785 0
DWIDTH 9 0
BBX 9 15 0 -3
BITMAP
0000
0000
6600
6600
0000
3800
1800
1800
1800
1800
1800
7E00
0000
0000
0000
ENDCHAR

STARTCHAR eth
ENCODING 240
SWIDTH 785 0
DWIDTH 9 0
BBX 9 15 0 -3
BITMAP
8800
D800
7000
7000
D800
8C00
3E00
6700
C300
C300
6600
3C00
0000
0000
0000
ENDCHAR

STARTCHAR ntilde
ENCODING 241
SWIDTH 785 0
DWIDTH 9 0
BBX 9 15 0 -3
BITMAP
0000
3200
7E00
4C00
0000
DC00
E600
C300
C300
C300
C300
C300
0000
0000
0000
ENDCHAR

STARTCHAR ograve
ENCODING 242
SWIDTH 785 0
DWIDTH 9 0
BBX 9 15 0 -3
BITMAP
0000
6000
3000
1800
0000
3C00
6600
C300
C300
C300
6600
3C00
0000
0000
0000
ENDCHAR

STARTCHAR oacute
ENCODING 243
SWIDTH 785 0
DWIDTH 9 0
BBX 9 15 0 -3
BITMAP
0000
0C00
1800
3000
0000
3C00
6600
C300
C300
C300
6600
3C00
0000
0000
0000
ENDCHAR

STARTCHAR ocircumflex
ENCODING 244
SWIDTH 785 0
DWIDTH 9 0
BBX 9 15 0 -3
BITMAP
0000
1800
3C00
6600
0000
3C00
6600
C300
C300
C300
6600
3C00
0000
0000
0000
ENDCHAR

STARTCHAR otilde
ENCODING 245
SWIDTH 785 0
DWIDTH 9 0
BBX 9 15 0 -3
BITMAP
0000
3200
7E00
4C00
0000
3C00
6600
C300
C300
C300
6600
3C00
0000
0000
0000
ENDCHAR

STARTCHAR odieresis
ENCODING 246
SWIDTH 785 0
DWIDTH 9 0
BBX 9 15 0 -3
BITMAP
0000
0000
6600
6600
0000
3C00
6600
C300
C300
C300
6600
3C00
0000
0000
0000
ENDCHAR

STARTCHAR divide
ENCODING 247
SWIDTH 785 0
DWIDTH 9 0
BBX 9 15 0 -3
BITMAP
0000
0000
1800
1800
0000
0000
FF00
FF00
0000
0000
1800
1800
0000
0000
0000
ENDCHAR

STARTCHAR oslash
ENCODING 248
SWIDTH 785 0
DWIDTH 9 0
BBX 9 15 0 -3
BITMAP
0000
0000
0000
0000
0100
3F00
6600
CF00
DB00
F300
6600
FC00
8000
0000
0000
ENDCHAR

STARTCHAR ugrave
ENCODING 249
SWIDTH 785 0
DWIDTH 9 0
BBX 9 15 0 -3
BITMAP
0000
6000
3000
1800
0000
C300
C300
C300
C300
C300
6700
3B00
0000
0000
0000
ENDCHAR

STARTCHAR uacute
ENCODING 250
SWIDTH 785 0
DWIDTH 9 0
BBX 9 15 0 -3
BITMAP
0000
0C00
1800
3000
0000
C300
C300
C300
C300
C300
6700
3B00
0000
0000
0000
ENDCHAR

STARTCHAR ucircumflex
ENCODING 251
SWIDTH 785 0
DWIDTH 9 0
BBX 9 15 0 -3
BITMAP
0000
1800
3C00
6600
0000
C300
C300
C300
C300
C300
6700
3B00
0000
0000
0000
ENDCHAR

STARTCHAR udieresis
ENCODING 252
SWIDTH 785 0
DWIDTH 9 0
BBX 9 15 0 -3
BITMAP
0000
0000
6600
6600
0000
C300
C300
C300
C300
C300
6700
3B00
0000
0000
0000
ENDCHAR

STARTCHAR yacute
ENCODING 253
SWIDTH 785 0
DWIDTH 9 0
BBX 9 15 0 -3
BITMAP
0000
0C00
1800
3000
0000
C300
C300
C300
C300
C300
6700
3B00
0300
C600
7C00
ENDCHAR

STARTCHAR thorn
ENCODING 254
SWIDTH 785 0
DWIDTH 9 0
BBX 9 15 0 -3
BITMAP
0000
0000
0000
7000
3000
3000
3E00
3300
3300
3300
3300
3E00
3000
3000
7000
ENDCHAR

STARTCHAR ydieresis
ENCODING 255
SWIDTH 785 0
DWIDTH 9 0
BBX 9 15 0 -3
BITMAP
0000
0000
6600
6600
0000
C300
C300
C300
C300
C300
6700
3B00
0300
C600
7C00
ENDCHAR

STARTCHAR Amacron
ENCODING 256
SWIDTH 785 0
DWIDTH 9 0
BBX 9 15 0 -3
BITMAP
0000
7E00
0000
3C00
6600
C300
C300
C300
FF00
C300
C300
C300
0000
0000
0000
ENDCHAR

STARTCHAR amacron
ENCODING 257
SWIDTH 785 0
DWIDTH 9 0
BBX 9 15 0 -3
BITMAP
0000
0000
0000
7E00
0000
3E00
6300
0300
7F00
C300
C700
7B00
0000
0000
0000
ENDCHAR

STARTCHAR Abreve
ENCODING 258
SWIDTH 785 0
DWIDTH 9 0
BBX 9 15 0 -3
BITMAP
0000
4200
3C00
0000
3C00
6600
C300
C300
FF00
C300
C300
C300
0000
0000
0000
ENDCHAR

STARTCHAR abreve
ENCODING 259
SWIDTH 785 0
DWIDTH 9 0
BBX 9 15 0 -3
BITMAP
0000
0000
4200
3C00
0000
3E00
6300
0300
7F00
C300
C700
7B00
0000
0000
0000
ENDCHAR

STARTCHAR Aogonek
ENCODING 260
SWIDTH 785 0
DWIDTH 9 0
BBX 9 15 0 -3
BITMAP
0000
0000
1000
3800
6C00
C600
C600
C600
FE00
C600
C600
C600
0600
0700
0000
ENDCHAR

STARTCHAR aogonek
ENCODING 261
SWIDTH 785 0
DWIDTH 9 0
BBX 9 15 0 -3
BITMAP
0000
0000
0000
0000
0000
3C00
6600
0600
7E00
C600
CE00
7600
0600
0300
0000
ENDCHAR

STARTCHAR Cacute
ENCODING 262
SWIDTH 785 0
DWIDTH 9 0
BBX 9 15 0 -3
BITMAP
0600
0C00
1800
0000
3E00
6300
C100
C000
C000
C100
6300
3E00
0000
0000
0000
ENDCHAR

STARTCHAR cacute
ENCODING 263
SWIDTH 785 0
DWIDTH 9 0
BBX 9 15 0 -3
BITMAP
0000
0600
0C00
1800
0000
3E00
6300
C000
C000
C000
6300
3E00
0000
0000
0000
ENDCHAR

STARTCHAR Ccircumflex
ENCODING 264
SWIDTH 785 0
DWIDTH 9 0
BBX 9 15 0 -3
BITMAP
1800
3C00
6600
0000
3E00
6300
C100
C000
C000
C100
6300
3E00
0000
0000
0000
ENDCHAR

STARTCHAR ccircumflex
ENCODING 265
SWIDTH 785 0
DWIDTH 9 0
BBX 9 15 0 -3
BITMAP
0000
1800
3C00
6600
0000
3E00
6300
C000
C000
C000
6300
3E00
0000
0000
0000
ENDCHAR

STARTCHAR Cdotaccent
ENCODING 266
SWIDTH 785 0
DWIDTH 9 0
BBX 9 15 0 -3
BITMAP
1800
1800
0000
3E00
6300
C100
C000
C000
C000
C100
6300
3E00
0000
0000
0000
ENDCHAR

STARTCHAR cdotaccent
ENCODING 267
SWIDTH 785 0
DWIDTH 9 0
BBX 9 15 0 -3
BITMAP
0000
0000
1800
1800
0000
3E00
6300
C000
C000
C000
6300
3E00
0000
0000
0000
ENDCHAR

STARTCHAR Ccaron
ENCODING 268
SWIDTH 785 0
DWIDTH 9 0
BBX 9 15 0 -3
BITMAP
6600
3C00
1800
0000
3E00
6300
C100
C000
C000
C100
6300
3E00
0000
0000
0000
ENDCHAR

STARTCHAR ccaron
ENCODING 269
SWIDTH 785 0
DWIDTH 9 0
BBX 9 15 0 -3
BITMAP
0000
6600
3C00
1800
0000
3E00
6300
C000
C000
C000
6300
3E00
0000
0000
0000
ENDCHAR

STARTCHAR Dcaron
ENCODING 270
SWIDTH 785 0
DWIDTH 9 0
BBX 9 15 0 -3
BITMAP
0000
4800
3000
0000
FC00
C600
C300
C300
C300
C300
C600
FC00
0000
0000
0000
ENDCHAR

STARTCHAR dcaron
ENCODING 271
SWIDTH 785 0
DWIDTH 9 0
BBX 9 15 0 -3
BITMAP
0000
4800
3000
0300
0300
3B00
6700
C300
C300
C300
6700
3B00
0000
0000
0000
ENDCHAR

STARTCHAR Dcroat
ENCODING 272
SWIDTH 785 0
DWIDTH 9 0
BBX 9 15 0 -3
BITMAP
0000
0000
7E00
6300
6180
6180
F980
6180
6180
6180
6300
7E00
0000
0000
0000
ENDCHAR

STARTCHAR dcroat
ENCODING 273
SWIDTH 785 0
DWIDTH 9 0
BBX 9 15 0 -3
BITMAP
0000
0000
0600
1F00
0600
3600
6E00
C600
C600
C600
6E00
3600
0000
0000
0000
ENDCHAR

STARTCHAR Emacron
ENCODING 274
SWIDTH 785 0
DWIDTH 9 0
BBX 9 15 0 -3
BITMAP
0000
7F00
0000
7F00
6000
6000
6000
7C00
6000
6000
6000
7F00
0000
0000
0000
ENDCHAR

STARTCHAR emacron
ENCODING 275
SWIDTH 785 0
DWIDTH 9 0
BBX 9 15 0 -3
BITMAP
0000
0000
0000
7E00
0000
3C00
6600
C300
FF00
C000
6300
3E00
0000
0000
0000
ENDCHAR

STARTCHAR Ebreve
ENCODING 276
SWIDTH 785 0
DWIDTH 9 0
BBX 9 15 0 -3
BITMAP
0000
2200
1C00
0000
7F00
6000
6000
7C00
6000
6000
6000
7F00
0000
0000
0000
ENDCHAR

STARTCHAR ebreve
ENCODING 277
SWIDTH 785 0
DWIDTH 9 0
BBX 9 15 0 -3
BITMAP
0000
0000
2200
1C00
0000
3C00
6600
C100
FF00
C000
6300
3E00
0000
0000
0000
ENDCHAR

STARTCHAR Edotaccent
ENCODING 278
SWIDTH 785 0
DWIDTH 9 0
BBX 9 15 0 -3
BITMAP
0000
0C00
0C00
0000
7F00
6000
6000
7C00
6000
6000
6000
7F00
0000
0000
0000
ENDCHAR

STARTCHAR edotaccent
ENCODING 279
SWIDTH 785 0
DWIDTH 9 0
BBX 9 15 0 -3
BITMAP
0000
0000
1800
1800
0000
3C00
6600
C300
FF00
C000
6300
3E00
0000
0000
0000
ENDCHAR

STARTCHAR Eogonek
ENCODING 280
SWIDTH 785 0
DWIDTH 9 0
BBX 9 15 0 -3
BITMAP
0000
0000
7F00
6000
6000
6000
7C00
6000
6000
6000
6000
7F00
1800
1C00
0000
ENDCHAR

STARTCHAR eogonek
ENCODING 281
SWIDTH 785 0
DWIDTH 9 0
BBX 9 15 0 -3
BITMAP
0000
0000
0000
0000
0000
3C00
6600
C300
FF00
C000
6300
3E00
1800
1C00
0000
ENDCHAR

STARTCHAR Ecaron
ENCODING 282
SWIDTH 785 0
DWIDTH 9 0
BBX 9 15 0 -3
BITMAP
6600
3C00
1800
0000
7F00
6000
6000
7C00
6000
6000
6000
7F00
0000
0000
0000
ENDCHAR

STARTCHAR ecaron
ENCODING 283
SWIDTH 785 0
DWIDTH 9 0
BBX 9 15 0 -3
BITMAP
0000
6600
3C00
1800
0000
3C00
6600
C300
FF00
C000
6300
3E00
0000
0000
0000
ENDCHAR

STARTCHAR Gcircumflex
ENCODING 284
SWIDTH 785 0
DWIDTH 9 0
BBX 9 15 0 -3
BITMAP
1800
3C00
6600
0000
3E00
6300
C000
C000
CF00
C300
6300
3E00
0000
0000
0000
ENDCHAR

STARTCHAR gcircumflex
ENCODING 285
SWIDTH 785 0
DWIDTH 9 0
BBX 9 15 0 -3
BITMAP
0000
1800
3C00
6600
0000
7D00
C700
C600
C600
7C00
C000
7E00
C300
C300
7E00
ENDCHAR

STARTCHAR Gbreve
ENCODING 286
SWIDTH 785 0
DWIDTH 9 0
BBX 9 15 0 -3
BITMAP
0000
4200
3C00
0000
3E00
6300
C000
C000
CF00
C300
6300
3E00
0000
0000
0000
ENDCHAR

STARTCHAR gbreve
ENCODING 287
SWIDTH 785 0
DWIDTH 9 0
BBX 9 15 0 -3
BITMAP
0000
0000
4400
3800
0000
7D00
C700
C600
C600
7C00
C000
7E00
C300
C300
7E00
ENDCHAR

STARTCHAR Gdotaccent
ENCODING 288
SWIDTH 785 0
DWIDTH 9 0
BBX 9 15 0 -3
BITMAP
0000
1800
1800
0000
3E00
6300
C000
C000
C700
C300
6300
3E00
0000
0000
0000
ENDCHAR

STARTCHAR gdotaccent
ENCODING 289
SWIDTH 785 0
DWIDTH 9 0
BBX 9 15 0 -3
BITMAP
0000
0000
1800
1800
0000
7D00
C700
C600
C600
7C00
C000
7E00
C300
C300
7E00
ENDCHAR

STARTCHAR Gcommaaccent
ENCODING 290
SWIDTH 785 0
DWIDTH 9 0
BBX 9 15 0 -3
BITMAP
0000
0000
3E00
6300
C000
C000
C000
C700
C300
C300
6300
3E00
0C00
2400
1800
ENDCHAR

STARTCHAR gcommaaccent
ENCODING 291
SWIDTH 785 0
DWIDTH 9 0
BBX 9 15 0 -3
BITMAP
0800
1000
1800
1800
0000
7D00
C700
C600
C600
7C00
C000
7E00
C300
7E00
0000
ENDCHAR

STARTCHAR Hcircumflex
ENCODING 292
SWIDTH 785 0
DWIDTH 9 0
BBX 9 15 0 -3
BITMAP
1800
3C00
6600
0000
C300
C300
C300
FF00
C300
C300
C300
C300
0000
0000
0000
ENDCHAR

STARTCHAR hcircumflex
ENCODING 293
SWIDTH 785 0
DWIDTH 9 0
BBX 9 15 0 -3
BITMAP
1800
3C00
6600
0000
C000
C000
C000
DC00
E600
C300
C300
C300
0000
0000
0000
ENDCHAR

STARTCHAR Hbar
ENCODING 294
SWIDTH 785 0
DWIDTH 9 0
BBX 9 15 0 -3
BITMAP
0000
0000
6300
6300
FF80
6300
6300
7F00
6300
6300
6300
6300
0000
0000
0000
ENDCHAR

STARTCHAR hbar
ENCODING 295
SWIDTH 785 0
DWIDTH 9 0
BBX 9 15 0 -3
BITMAP
0000
0000
6000
F800
6000
6E00
7300
6180
6180
6180
6180
6180
0000
0000
0000
ENDCHAR

STARTCHAR Itilde
ENCODING 296
SWIDTH 785 0
DWIDTH 9 0
BBX 9 15 0 -3
BITMAP
3200
7E00
4C00
0000
7E00
1800
1800
1800
1800
1800
1800
7E00
0000
0000
0000
ENDCHAR

STARTCHAR itilde
ENCODING 297
SWIDTH 785 0
DWIDTH 9 0
BBX 9 15 0 -3
BITMAP
0000
3200
7E00
4C00
0000
7800
1800
1800
1800
1800
1800
7E00
0000
0000
0000
ENDCHAR

STARTCHAR Imacron
ENCODING 298
SWIDTH 785 0
DWIDTH 9 0
BBX 9 15 0 -3
BITMAP
0000
7E00
0000
7E00
1800
1800
1800
1800
1800
1800
1800
7E00
0000
0000
0000
ENDCHAR

STARTCHAR imacron
ENCODING 299
SWIDTH 785 0
DWIDTH 9 0
BBX 9 15 0 -3
BITMAP
0000
0000
0000
7E00
0000
7800
1800
1800
1800
1800
1800
7E00
0000
0000
0000
ENDCHAR

STARTCHAR Ibreve
ENCODING 300
SWIDTH 785 0
DWIDTH 9 0
BBX 9 15 0 -3
BITMAP
0000
4200
3C00
0000
7E00
1800
1800
1800
1800
1800
1800
7E00
0000
0000
0000
ENDCHAR

STARTCHAR ibreve
ENCODING 301
SWIDTH 785 0
DWIDTH 9 0
BBX 9 15 0 -3
BITMAP
0000
0000
4200
3C00
0000
7800
1800
1800
1800
1800
1800
7E00
0000
0000
0000
ENDCHAR

STARTCHAR Iogonek
ENCODING 302
SWIDTH 785 0
DWIDTH 9 0
BBX 9 15 0 -3
BITMAP
0000
0000
7E00
1800
1800
1800
1800
1800
1800
1800
1800
7E00
3000
3800
0000
ENDCHAR

STARTCHAR iogonek
ENCODING 303
SWIDTH 785 0
DWIDTH 9 0
BBX 9 15 0 -3
BITMAP
0000
0000
1800
1800
0000
7800
1800
1800
1800
1800
1800
7E00
3000
3800
0000
ENDCHAR

STARTCHAR Idotaccent
ENCODING 304
SWIDTH 785 0
DWIDTH 9 0
BBX 9 15 0 -3
BITMAP
0000
1800
1800
0000
7E00
1800
1800
1800
1800
1800
1800
7E00
0000
0000
0000
ENDCHAR

STARTCHAR dotlessi
ENCODING 305
SWIDTH 785 0
DWIDTH 9 0
BBX 9 15 0 -3
BITMAP
0000
0000
0000
0000
0000
7800
1800
1800
1800
1800
1800
7E00
0000
0000
0000
ENDCHAR

STARTCHAR IJ
ENCODING 306
SWIDTH 785 0
DWIDTH 9 0
BBX 9 15 0 -3
BITMAP
0000
0000
F700
6300
6300
6300
6300
6300
6300
6300
6B00
F600
0000
0000
0000
ENDCHAR

STARTCHAR ij
ENCODING 307
SWIDTH 785 0
DWIDTH 9 0
BBX 9 15 0 -3
BITMAP
0000
0000
6300
6300
0000
EF00
6300
6300
6300
6300
6300
F300
0300
1B00
0E00
ENDCHAR

STARTCHAR Jcircumflex
ENCODING 308
SWIDTH 785 0
DWIDTH 9 0
BBX 9 15 0 -3
BITMAP
0C00
1E00
3300
0000
1F00
0600
0600
0600
0600
0600
C600
7C00
0000
0000
0000
ENDCHAR

STARTCHAR jcircumflex
ENCODING 309
SWIDTH 785 0
DWIDTH 9 0
BBX 9 15 0 -3
BITMAP
0000
0C00
1E00
3300
0000
1E00
0600
0600
0600
0600
0600
C600
C600
C600
7C00
ENDCHAR

STARTCHAR Kcommaaccent
ENCODING 310
SWIDTH 785 0
DWIDTH 9 0
BBX 9 15 0 -3
BITMAP
0000
0000
C300
C600
CC00
D800
F000
F000
D800
CC00
C600
C300
3000
9000
6000
ENDCHAR

STARTCHAR kcommaaccent
ENCODING 311
SWIDTH 785 0
DWIDTH 9 0
BBX 9 15 0 -3
BITMAP
0000
0000
6000
6000
6000
6600
6C00
7800
7800
6C00
6600
6300
3000
9000
6000
ENDCHAR

STARTCHAR kgreenlandic
ENCODING 312
SWIDTH 785 0
DWIDTH 9 0
BBX 9 15 0 -3
BITMAP
0000
0000
0000
0000
0000
C300
C600
CC00
F800
CC00
C600
C300
0000
0000
0000
ENDCHAR

STARTCHAR Lacute
ENCODING 313
SWIDTH 785 0
DWIDTH 9 0
BBX 9 15 0 -3
BITMAP
0600
0C00
1800
0000
6000
6000
6000
6000
6000
6000
6000
7F00
0000
0000
0000
ENDCHAR

STARTCHAR lacute
ENCODING 314
SWIDTH 785 0
DWIDTH 9 0
BBX 9 15 0 -3
BITMAP
0C00
1800
3000
0000
7800
1800
1800
1800
1800
1800
1800
7E00
0000
0000
0000
ENDCHAR

STARTCHAR Lcommaaccent
ENCODING 315
SWIDTH 785 0
DWIDTH 9 0
BBX 9 15 0 -3
BITMAP
0000
0000
6000
6000
6000
6000
6000
6000
6000
6000
6000
7F00
0C00
2400
1800
ENDCHAR

STARTCHAR lcommaaccent
ENCODING 316
SWIDTH 785 0
DWIDTH 9 0
BBX 9 15 0 -3
BITMAP
0000
0000
7800
1800
1800
1800
1800
1800
1800
1800
1800
7E00
1800
4800
3000
ENDCHAR

STARTCHAR Lcaron
ENCODING 317
SWIDTH 785 0
DWIDTH 9 0
BBX 9 15 0 -3
BITMAP
6600
3C00
1800
0000
6000
6000
6000
6000
6000
6000
6000
7F00
0000
0000
0000
ENDCHAR

STARTCHAR lcaron
ENCODING 318
SWIDTH 785 0
DWIDTH 9 0
BBX 9 15 0 -3
BITMAP
6600
3C00
1800
0000
7800
1800
1800
1800
1800
1800
1800
7E00
0000
0000
0000
ENDCHAR

STARTCHAR Ldot
ENCODING 319
SWIDTH 785 0
DWIDTH 9 0
BBX 9 15 0 -3
BITMAP
0000
0000
6000
6000
6000
6600
6600
6000
6000
6000
6000
7F00
0000
0000
0000
ENDCHAR

STARTCHAR ldot
ENCODING 320
SWIDTH 785 0
DWIDTH 9 0
BBX 9 15 0 -3
BITMAP
0000
0000
F000
3000
3000
3300
3300
3000
3000
3000
3000
FC00
0000
0000
0000
ENDCHAR

STARTCHAR Lslash
ENCODING 321
SWIDTH 785 0
DWIDTH 9 0
BBX 9 15 0 -3
BITMAP
0000
0000
6000
6000
6800
7000
6000
E000
6000
6000
6000
7F00
0000
0000
0000
ENDCHAR

STARTCHAR lslash
ENCODING 322
SWIDTH 785 0
DWIDTH 9 0
BBX 9 15 0 -3
BITMAP
0000
0000
7800
1800
1A00
1C00
1800
3800
1800
1800
1800
7E00
0000
0000
0000
ENDCHAR

STARTCHAR Nacute
ENCODING 323
SWIDTH 785 0
DWIDTH 9 0
BBX 9 15 0 -3
BITMAP
0C00
1800
3000
0000
C300
C300
E300
E300
D300
CB00
C700
C300
0000
0000
0000
ENDCHAR

STARTCHAR nacute
ENCODING 324
SWIDTH 785 0
DWIDTH 9 0
BBX 9 15 0 -3
BITMAP
0000
0C00
1800
3000
0000
DC00
E600
C300
C300
C300
C300
C300
0000
0000
0000
ENDCHAR

STARTCHAR Ncommaaccent
ENCODING 325
SWIDTH 785 0
DWIDTH 9 0
BBX 9 15 0 -3
BITMAP
0000
0000
6180
7180
7980
7980
6D80
6D80
6780
6380
6380
6180
3000
9000
6000
ENDCHAR

STARTCHAR ncommaaccent
ENCODING 326
SWIDTH 785 0
DWIDTH 9 0
BBX 9 15 0 -3
BITMAP
0000
0000
0000
0000
0000
6E00
7300
6180
6180
6180
6180
6180
3000
9000
6000
ENDCHAR

STARTCHAR Ncaron
ENCODING 327
SWIDTH 785 0
DWIDTH 9 0
BBX 9 15 0 -3
BITMAP
6600
3C00
1800
C300
C300
E300
F300
DB00
CF00
C700
C300
C300
0000
0000
0000
ENDCHAR

STARTCHAR ncaron
ENCODING 328
SWIDTH 785 0
DWIDTH 9 0
BBX 9 15 0 -3
BITMAP
0000
6600
3C00
1800
0000
DC00
E600
C300
C300
C300
C300
C300
0000
0000
0000
ENDCHAR

STARTCHAR napostrophe
ENCODING 329
SWIDTH 785 0
DWIDTH 9 0
BBX 9 15 0 -3
BITMAP
0000
C000
4000
8000
0000
DC00
E600
C300
C300
C300
C300
C300
0000
0000
0000
ENDCHAR

STARTCHAR Eng
ENCODING 330
SWIDTH 785 0
DWIDTH 9 0
BBX 9 15 0 -3
BITMAP
0000
0000
C300
C300
E300
F300
DB00
CF00
C700
C300
C300
C300
1200
0C00
0000
ENDCHAR

STARTCHAR eng
ENCODING 331
SWIDTH 785 0
DWIDTH 9 0
BBX 9 15 0 -3
BITMAP
0000
0000
0000
0000
0000
DC00
E600
C300
C300
C300
C300
C300
1200
0C00
0000
ENDCHAR

STARTCHAR Omacron
ENCODING 332
SWIDTH 785 0
DWIDTH 9 0
BBX 9 15 0 -3
BITMAP
0000
7E00
0000
3C00
6600
C300
C300
C300
C300
C300
6600
3C00
0000
0000
0000
ENDCHAR

STARTCHAR omacron
ENCODING 333
SWIDTH 785 0
DWIDTH 9 0
BBX 9 15 0 -3
BITMAP
0000
0000
0000
7E00
0000
3C00
6600
C300
C300
C300
6600
3C00
0000
0000
0000
ENDCHAR

STARTCHAR Obreve
ENCODING 334
SWIDTH 785 0
DWIDTH 9 0
BBX 9 15 0 -3
BITMAP
0000
4200
3C00
0000
3C00
6600
C300
C300
C300
C300
6600
3C00
0000
0000
0000
ENDCHAR

STARTCHAR obreve
ENCODING 335
SWIDTH 785 0
DWIDTH 9 0
BBX 9 15 0 -3
BITMAP
0000
0000
4200
3C00
0000
3C00
6600
C300
C300
C300
6600
3C00
0000
0000
0000
ENDCHAR

STARTCHAR Ohungarumlaut
ENCODING 336
SWIDTH 785 0
DWIDTH 9 0
BBX 9 15 0 -3
BITMAP
0000
3300
6600
0000
3C00
6600
C300
C300
C300
C300
6600
3C00
0000
0000
0000
ENDCHAR

STARTCHAR ohungarumlaut
ENCODING 337
SWIDTH 785 0
DWIDTH 9 0
BBX 9 15 0 -3
BITMAP
0000
0000
3300
6600
0000
3C00
6600
C300
C300
C300
6600
3C00
0000
0000
0000
ENDCHAR

STARTCHAR OE
ENCODING 338
SWIDTH 785 0
DWIDTH 9 0
BBX 9 15 0 -3
BITMAP
0000
0000
7700
CC00
CC00
CC00
CF00
CC00
CC00
CC00
CC00
7700
0000
0000
0000
ENDCHAR

STARTCHAR oe
ENCODING 339
SWIDTH 785 0
DWIDTH 9 0
BBX 9 15 0 -3
BITMAP
0000
0000
0000
0000
0000
7700
DD80
C980
CF80
C800
DD80
7700
0000
0000
0000
ENDCHAR

STARTCHAR Racute
ENCODING 340
SWIDTH 785 0
DWIDTH 9 0
BBX 9 15 0 -3
BITMAP
0C00
1800
3000
0000
FE00
C300
C300
C300
FE00
CC00
C600
C300
0000
0000
0000
ENDCHAR

STARTCHAR racute
ENCODING 341
SWIDTH 785 0
DWIDTH 9 0
BBX 9 15 0 -3
BITMAP
0000
0C00
1800
3000
0000
DE00
7300
6100
6000
6000
6000
6000
0000
0000
0000
ENDCHAR

STARTCHAR Rcommaaccent
ENCODING 342
SWIDTH 785 0
DWIDTH 9 0
BBX 9 15 0 -3
BITMAP
0000
0000
7F00
6180
6180
6180
7F00
7C00
6600
6300
6180
6180
3000
9000
6000
ENDCHAR

STARTCHAR rcommaaccent
ENCODING 343
SWIDTH 785 0
DWIDTH 9 0
BBX 9 15 0 -3
BITMAP
0000
0000
0000
0000
0000
6F00
3980
3080
3000
3000
3000
3000
3000
9000
6000
ENDCHAR

STARTCHAR Rcaron
ENCODING 344
SWIDTH 785 0
DWIDTH 9 0
BBX 9 15 0 -3
BITMAP
6600
3C00
1800
0000
FE00
C300
C300
C300
FE00
FC00
C600
C300
0000
0000
0000
ENDCHAR

STARTCHAR rcaron
ENCODING 345
SWIDTH 785 0
DWIDTH 9 0
BBX 9 15 0 -3
BITMAP
6600
3C00
1800
0000
0000
DE00
7300
6000
6000
6000
6000
6000
0000
0000
0000
ENDCHAR

STARTCHAR Sacute
ENCODING 346
SWIDTH 785 0
DWIDTH 9 0
BBX 9 15 0 -3
BITMAP
0C00
1800
3000
0000
7E00
C300
C000
7E00
0300
0300
C300
7E00
0000
0000
0000
ENDCHAR

STARTCHAR sacute
ENCODING 347
SWIDTH 785 0
DWIDTH 9 0
BBX 9 15 0 -3
BITMAP
0000
0C00
1800
3000
0000
7E00
C300
C000
7E00
0300
C300
7E00
0000
0000
0000
ENDCHAR

STARTCHAR Scircumflex
ENCODING 348
SWIDTH 785 0
DWIDTH 9 0
BBX 9 15 0 -3
BITMAP
1800
3C00
6600
0000
7E00
C300
C000
7E00
0300
0300
C300
7E00
0000
0000
0000
ENDCHAR

STARTCHAR scircumflex
ENCODING 349
SWIDTH 785 0
DWIDTH 9 0
BBX 9 15 0 -3
BITMAP
0000
1800
3C00
6600
0000
7E00
C300
C000
7E00
0300
C300
7E00
0000
0000
0000
ENDCHAR

STARTCHAR Scedilla
ENCODING 350
SWIDTH 785 0
DWIDTH 9 0
BBX 9 15 0 -3
BITMAP
0000
0000
7E00
C300
C000
C000
7E00
0300
0300
0300
C300
7E00
1800
4800
3000
ENDCHAR

STARTCHAR scedilla
ENCODING 351
SWIDTH 785 0
DWIDTH 9 0
BBX 9 15 0 -3
BITMAP
0000
0000
0000
0000
0000
7E00
C300
C000
7E00
0300
C300
7E00
1800
4800
3000
ENDCHAR

STARTCHAR Scaron
ENCODING 352
SWIDTH 785 0
DWIDTH 9 0
BBX 9 15 0 -3
BITMAP
6600
3C00
1800
0000
7E00
C300
C000
7E00
0300
0300
C300
7E00
0000
0000
0000
ENDCHAR

STARTCHAR scaron
ENCODING 353
SWIDTH 785 0
DWIDTH 9 0
BBX 9 15 0 -3
BITMAP
0000
6600
3C00
1800
0000
7E00
C300
C000
7E00
0300
C300
7E00
0000
0000
0000
ENDCHAR

STARTCHAR Tcommaaccent
ENCODING 354
SWIDTH 785 0
DWIDTH 9 0
BBX 9 15 0 -3
BITMAP
0000
0000
FF00
1800
1800
1800
1800
1800
1800
1800
1800
1800
0C00
2400
1800
ENDCHAR

STARTCHAR tcommaaccent
ENCODING 355
SWIDTH 785 0
DWIDTH 9 0
BBX 9 15 0 -3
BITMAP
0000
0000
0000
3000
3000
FC00
3000
3000
3000
3000
3300
1E00
0C00
2400
1800
ENDCHAR

STARTCHAR Tcaron
ENCODING 356
SWIDTH 785 0
DWIDTH 9 0
BBX 9 15 0 -3
BITMAP
6600
3C00
1800
0000
FF00
1800
1800
1800
1800
1800
1800
1800
0000
0000
0000
ENDCHAR

STARTCHAR tcaron
ENCODING 357
SWIDTH 785 0
DWIDTH 9 0
BBX 9 15 0 -3
BITMAP
3300
1E00
0C00
3000
3000
FC00
3000
3000
3000
3000
3300
1E00
0000
0000
0000
ENDCHAR

STARTCHAR Tbar
ENCODING 358
SWIDTH 785 0
DWIDTH 9 0
BBX 9 15 0 -3
BITMAP
0000
0000
FF00
1800
1800
1800
1800
7E00
1800
1800
1800
1800
0000
0000
0000
ENDCHAR

STARTCHAR tbar
ENCODING 359
SWIDTH 785 0
DWIDTH 9 0
BBX 9 15 0 -3
BITMAP
0000
0000
0000
3000
3000
FE00
3000
3000
7800
3000
3300
1E00
0000
0000
0000
ENDCHAR

STARTCHAR Utilde
ENCODING 360
SWIDTH 785 0
DWIDTH 9 0
BBX 9 15 0 -3
BITMAP
3200
7E00
4C00
0000
C300
C300
C300
C300
C300
C300
6600
3C00
0000
0000
0000
ENDCHAR

STARTCHAR utilde
ENCODING 361
SWIDTH 785 0
DWIDTH 9 0
BBX 9 15 0 -3
BITMAP
0000
3200
7E00
4C00
0000
C600
C600
C600
C600
C600
6E00
3B00
0000
0000
0000
ENDCHAR

STARTCHAR Umacron
ENCODING 362
SWIDTH 785 0
DWIDTH 9 0
BBX 9 15 0 -3
BITMAP
0000
7E00
0000
C300
C300
C300
C300
C300
C300
C300
6600
3C00
0000
0000
0000
ENDCHAR

STARTCHAR umacron
ENCODING 363
SWIDTH 785 0
DWIDTH 9 0
BBX 9 15 0 -3
BITMAP
0000
0000
0000
7E00
0000
C600
C600
C600
C600
C600
6E00
3B00
0000
0000
0000
ENDCHAR

STARTCHAR Ubreve
ENCODING 364
SWIDTH 785 0
DWIDTH 9 0
BBX 9 15 0 -3
BITMAP
0000
4200
3C00
0000
C300
C300
C300
C300
C300
C300
6600
3C00
0000
0000
0000
ENDCHAR

STARTCHAR ubreve
ENCODING 365
SWIDTH 785 0
DWIDTH 9 0
BBX 9 15 0 -3
BITMAP
0000
0000
4400
3800
0000
C600
C600
C600
C600
C600
6E00
3B00
0000
0000
0000
ENDCHAR

STARTCHAR Uring
ENCODING 366
SWIDTH 785 0
DWIDTH 9 0
BBX 9 15 0 -3
BITMAP
0000
1800
2400
1800
C300
C300
C300
C300
C300
C300
6600
3C00
0000
0000
0000
ENDCHAR

STARTCHAR uring
ENCODING 367
SWIDTH 785 0
DWIDTH 9 0
BBX 9 15 0 -3
BITMAP
0000
1800
2400
1800
0000
C600
C600
C600
C600
C600
6E00
3B00
0000
0000
0000
ENDCHAR

STARTCHAR Uhungarumlaut
ENCODING 368
SWIDTH 785 0
DWIDTH 9 0
BBX 9 15 0 -3
BITMAP
0000
3300
6600
0000
C300
C300
C300
C300
C300
C300
6600
3C00
0000
0000
0000
ENDCHAR

STARTCHAR uhungarumlaut
ENCODING 369
SWIDTH 785 0
DWIDTH 9 0
BBX 9 15 0 -3
BITMAP
0000
0000
6600
CC00
0000
C600
C600
C600
C600
C600
6E00
3B00
0000
0000
0000
ENDCHAR

STARTCHAR Uogonek
ENCODING 370
SWIDTH 785 0
DWIDTH 9 0
BBX 9 15 0 -3
BITMAP
0000
0000
C300
C300
C300
C300
C300
C300
C300
C300
6600
3C00
1000
1800
0000
ENDCHAR

STARTCHAR uogonek
ENCODING 371
SWIDTH 785 0
DWIDTH 9 0
BBX 9 15 0 -3
BITMAP
0000
0000
0000
0000
0000
C600
C600
C600
C600
C600
6E00
3B00
1000
1800
0000
ENDCHAR

STARTCHAR Wcircumflex
ENCODING 372
SWIDTH 785 0
DWIDTH 9 0
BBX 9 15 0 -3
BITMAP
1800
3C00
6600
0000
C300
C300
C300
DB00
DB00
DB00
FF00
6600
0000
0000
0000
ENDCHAR

STARTCHAR wcircumflex
ENCODING 373
SWIDTH 785 0
DWIDTH 9 0
BBX 9 15 0 -3
BITMAP
0000
1800
3C00
6600
0000
C300
C300
DB00
DB00
DB00
FF00
6600
0000
0000
0000
ENDCHAR

STARTCHAR Ycircumflex
ENCODING 374
SWIDTH 785 0
DWIDTH 9 0
BBX 9 15 0 -3
BITMAP
1800
3C00
6600
0000
C300
C300
6600
3C00
1800
1800
1800
1800
0000
0000
0000
ENDCHAR

STARTCHAR ycircumflex
ENCODING 375
SWIDTH 785 0
DWIDTH 9 0
BBX 9 15 0 -3
BITMAP
0000
1800
3C00
6600
0000
C300
C300
C300
C300
C300
6700
3B00
0300
C600
7C00
ENDCHAR

STARTCHAR Ydieresis
ENCODING 376
SWIDTH 785 0
DWIDTH 9 0
BBX 9 15 0 -3
BITMAP
0000
6600
6600
0000
C300
C300
6600
3C00
1800
1800
1800
1800
0000
0000
0000
ENDCHAR

STARTCHAR Zacute
ENCODING 377
SWIDTH 785 0
DWIDTH 9 0
BBX 9 15 0 -3
BITMAP
0300
0600
0C00
0000
7F00
0300
0600
0C00
1800
3000
6000
7F00
0000
0000
0000
ENDCHAR

STARTCHAR zacute
ENCODING 378
SWIDTH 785 0
DWIDTH 9 0
BBX 9 15 0 -3
BITMAP
0000
0600
0C00
1800
0000
7E00
0600
0C00
1800
3000
6000
7E00
0000
0000
0000
ENDCHAR

STARTCHAR Zdotaccent
ENCODING 379
SWIDTH 785 0
DWIDTH 9 0
BBX 9 15 0 -3
BITMAP
0C00
0C00
0000
7F00
0300
0600
0C00
1800
3000
6000
6000
7F00
0000
0000
0000
ENDCHAR

STARTCHAR zdotaccent
ENCODING 380
SWIDTH 785 0
DWIDTH 9 0
BBX 9 15 0 -3
BITMAP
0000
0000
1800
1800
0000
7E00
0600
0C00
1800
3000
6000
7E00
0000
0000
0000
ENDCHAR

STARTCHAR Zcaron
ENCODING 381
SWIDTH 785 0
DWIDTH 9 0
BBX 9 15 0 -3
BITMAP
6600
3C00
1800
0000
7F00
0300
0600
0C00
1800
3000
6000
7F00
0000
0000
0000
ENDCHAR

STARTCHAR zcaron
ENCODING 382
SWIDTH 785 0
DWIDTH 9 0
BBX 9 15 0 -3
BITMAP
0000
6600
3C00
1800
0000
7E00
0600
0C00
1800
3000
6000
7E00
0000
0000
0000
ENDCHAR

STARTCHAR longs
ENCODING 383
SWIDTH 785 0
DWIDTH 9 0
BBX 9 15 0 -3
BITMAP
0000
0000
0F00
1980
3180
3000
F000
3000
3000
3000
3000
3000
0000
0000
0000
ENDCHAR

STARTCHAR uni0180
ENCODING 384
SWIDTH 785 0
DWIDTH 9 0
BBX 9 15 0 -3
BITMAP
0000
0000
6000
F800
6000
6C00
7600
6300
6300
6300
7600
6C00
0000
0000
0000
ENDCHAR

STARTCHAR uni0181
ENCODING 385
SWIDTH 785 0
DWIDTH 9 0
BBX 9 15 0 -3
BITMAP
0000
0000
FC00
B600
3300
3600
3C00
3600
3300
3300
3600
3C00
0000
0000
0000
ENDCHAR

STARTCHAR uni0182
ENCODING 386
SWIDTH 785 0
DWIDTH 9 0
BBX 9 15 0 -3
BITMAP
0000
0000
FE00
C000
C000
DC00
E600
C300
C300
C300
E600
DC00
0000
0000
0000
ENDCHAR

STARTCHAR uni0183
ENCODING 387
SWIDTH 785 0
DWIDTH 9 0
BBX 9 15 0 -3
BITMAP
0000
0000
FE00
C000
C000
DC00
E600
C300
C300
C300
6600
3C00
0000
0000
0000
ENDCHAR

STARTCHAR uni0184
ENCODING 388
SWIDTH 785 0
DWIDTH 9 0
BBX 9 15 0 -3
BITMAP
0000
0000
3000
7000
F000
3600
3B00
3180
3180
3180
3B00
3600
0000
0000
0000
ENDCHAR

STARTCHAR uni0185
ENCODING 389
SWIDTH 785 0
DWIDTH 9 0
BBX 9 15 0 -3
BITMAP
0000
0000
3000
7000
F000
3600
3B00
3180
3180
3180
1B00
0E00
0000
0000
0000
ENDCHAR

STARTCHAR uni0186
ENCODING 390
SWIDTH 785 0
DWIDTH 9 0
BBX 9 15 0 -3
BITMAP
0000
0000
7C00
C600
8300
0300
0300
0300
0300
8300
C600
7C00
0000
0000
0000
ENDCHAR

STARTCHAR uni0187
ENCODING 391
SWIDTH 785 0
DWIDTH 9 0
BBX 9 15 0 -3
BITMAP
0000
0700
3C00
6600
C200
C000
C000
C000
C000
C200
6600
3C00
0000
0000
0000
ENDCHAR

STARTCHAR uni0188
ENCODING 392
SWIDTH 785 0
DWIDTH 9 0
BBX 9 15 0 -3
BITMAP
0000
0000
0000
0300
0400
3C00
6600
C000
C000
C000
6600
3C00
0000
0000
0000
ENDCHAR

STARTCHAR uni0189
ENCODING 393
SWIDTH 785 0
DWIDTH 9 0
BBX 9 15 0 -3
BITMAP
0000
0000
7C00
6600
6300
6300
FB00
6300
6300
6300
6600
7C00
0000
0000
0000
ENDCHAR

STARTCHAR uni018A
ENCODING 394
SWIDTH 785 0
DWIDTH 9 0
BBX 9 15 0 -3
BITMAP
0000
0000
FC00
B600
B300
3300
3300
3300
3300
3300
3600
3C00
0000
0000
0000
ENDCHAR

STARTCHAR uni018B
ENCODING 395
SWIDTH 785 0
DWIDTH 9 0
BBX 9 15 0 -3
BITMAP
0000
0000
7F00
0300
0300
3B00
6700
C300
C300
C300
6700
3B00
0000
0000
0000
ENDCHAR

STARTCHAR uni018C
ENCODING 396
SWIDTH 785 0
DWIDTH 9 0
BBX 9 15 0 -3
BITMAP
0000
0000
7F00
0300
0300
3B00
6700
C300
C300
C300
6600
3C00
0000
0000
0000
ENDCHAR

STARTCHAR uni018D
ENCODING 397
SWIDTH 785 0
DWIDTH 9 0
BBX 9 15 0 -3
BITMAP
0000
0000
0000
0000
0000
3C00
6600
C300
C300
C300
6600
3C00
1800
7000
0000
ENDCHAR

STARTCHAR uni018E
ENCODING 398
SWIDTH 785 0
DWIDTH 9 0
BBX 9 15 0 -3
BITMAP
0000
0000
7F00
0300
0300
0300
3F00
0300
0300
0300
0300
7F00
0000
0000
0000
ENDCHAR

STARTCHAR uni018F
ENCODING 399
SWIDTH 785 0
DWIDTH 9 0
BBX 9 15 0 -3
BITMAP
0000
0000
3C00
6600
C300
0300
FF00
C300
C300
C300
6600
3C00
0000
0000
0000
ENDCHAR

STARTCHAR uni0190
ENCODING 400
SWIDTH 785 0
DWIDTH 9 0
BBX 9 15 0 -3
BITMAP
0000
0000
3E00
6300
C000
6000
3800
6000
C000
C000
6300
3E00
0000
0000
0000
ENDCHAR

STARTCHAR uni0191
ENCODING 401
SWIDTH 785 0
DWIDTH 9 0
BBX 9 15 0 -3
BITMAP
0000
0000
3F80
3000
3000
3000
3F00
3000
3000
3000
3000
3000
E000
0000
0000
ENDCHAR

STARTCHAR florin
ENCODING 402
SWIDTH 785 0
DWIDTH 9 0
BBX 9 15 0 -3
BITMAP
0000
0000
1E00
3300
3300
3000
3000
FC00
3000
3000
3000
3000
3000
E000
0000
ENDCHAR

STARTCHAR uni0193
ENCODING 403
SWIDTH 785 0
DWIDTH 9 0
BBX 9 15 0 -3
BITMAP
0000
0300
0400
3C00
6600
C000
C000
C000
CE00
C600
6600
3C00
0000
0000
0000
ENDCHAR

STARTCHAR uni0194
ENCODING 404
SWIDTH 785 0
DWIDTH 9 0
BBX 9 15 0 -3
BITMAP
0000
0000
0000
4100
6300
3600
1400
1C00
1C00
3600
3600
1C00
0000
0000
0000
ENDCHAR

STARTCHAR uni0195
ENCODING 405
SWIDTH 785 0
DWIDTH 9 0
BBX 9 15 0 -3
BITMAP
0000
0000
C000
C000
C000
F000
FB00
DB00
DB00
DB00
DB00
CE00
0000
0000
0000
ENDCHAR

STARTCHAR uni0196
ENCODING 406
SWIDTH 785 0
DWIDTH 9 0
BBX 9 15 0 -3
BITMAP
0000
1800
3800
7800
1800
1800
1800
1800
1800
1800
1800
1B00
0E00
0000
0000
ENDCHAR

STARTCHAR uni0197
ENCODING 407
SWIDTH 785 0
DWIDTH 9 0
BBX 9 15 0 -3
BITMAP
0000
0000
7E00
1800
1800
1800
FF00
1800
1800
1800
1800
7E00
0000
0000
0000
ENDCHAR

STARTCHAR uni0198
ENCODING 408
SWIDTH 785 0
DWIDTH 9 0
BBX 9 15 0 -3
BITMAP
0000
0000
C200
C500
CD00
D800
F000
F000
D800
CC00
C600
C200
0000
0000
0000
ENDCHAR

STARTCHAR uni0199
ENCODING 409
SWIDTH 785 0
DWIDTH 9 0
BBX 9 15 0 -3
BITMAP
0000
0000
3800
6C00
6000
6600
6C00
7800
7800
6C00
6600
6300
0000
0000
0000
ENDCHAR

STARTCHAR uni019A
ENCODING 410
SWIDTH 785 0
DWIDTH 9 0
BBX 9 15 0 -3
BITMAP
0000
0000
3800
1800
1800
1800
FF00
1800
1800
1800
1800
7E00
0000
0000
0000
ENDCHAR

STARTCHAR uni019B
ENCODING 411
SWIDTH 785 0
DWIDTH 9 0
BBX 9 15 0 -3
BITMAP
0000
0000
0000
6600
3C00
7800
4C00
1E00
3600
6300
6300
6300
0000
0000
0000
ENDCHAR

STARTCHAR uni019C
ENCODING 412
SWIDTH 785 0
DWIDTH 9 0
BBX 9 15 0 -3
BITMAP
0000
0000
DB00
DB00
DB00
DB00
DB00
DB00
DB00
DB00
DB00
6D00
0000
0000
0000
ENDCHAR

STARTCHAR uni019D
ENCODING 413
SWIDTH 785 0
DWIDTH 9 0
BBX 9 15 0 -3
BITMAP
0000
0000
6180
7180
7980
7980
6D80
6D80
6780
6380
6380
6180
6000
C000
0000
ENDCHAR

STARTCHAR uni019E
ENCODING 414
SWIDTH 785 0
DWIDTH 9 0
BBX 9 15 0 -3
BITMAP
0000
0000
0000
0000
0000
DC00
E600
C300
C300
C300
C300
C300
0300
0300
0300
ENDCHAR

STARTCHAR uni019F
ENCODING 415
SWIDTH 785 0
DWIDTH 9 0
BBX 9 15 0 -3
BITMAP
0000
0000
3C00
6600
C300
C300
FF00
C300
C300
C300
6600
3C00
0000
0000
0000
ENDCHAR

STARTCHAR Ohorn
ENCODING 416
SWIDTH 785 0
DWIDTH 9 0
BBX 9 15 0 -3
BITMAP
0000
0180
1F00
3600
6300
6300
6300
6300
6300
6300
3600
1C00
0000
0000
0000
ENDCHAR

STARTCHAR ohorn
ENCODING 417
SWIDTH 785 0
DWIDTH 9 0
BBX 9 15 0 -3
BITMAP
0000
0000
0000
0000
0180
1F00
3600
6300
6300
6300
3600
1C00
0000
0000
0000
ENDCHAR

STARTCHAR uni01A2
ENCODING 418
SWIDTH 785 0
DWIDTH 9 0
BBX 9 15 0 -3
BITMAP
0000
0000
7600
DB00
DB00
DB00
DB00
DB00
DB00
DB00
DB00
7300
0300
0300
0000
ENDCHAR

STARTCHAR uni01A3
ENCODING 419
SWIDTH 785 0
DWIDTH 9 0
BBX 9 15 0 -3
BITMAP
0000
0000
0000
0000
0000
0000
7600
DB00
DB00
DB00
DB00
7300
0300
0300
0000
ENDCHAR

STARTCHAR uni01A4
ENCODING 420
SWIDTH 785 0
DWIDTH 9 0
BBX 9 15 0 -3
BITMAP
0000
0000
FE00
B300
B300
3300
3E00
3000
3000
3000
3000
3000
0000
0000
0000
ENDCHAR

STARTCHAR uni01A5
ENCODING 421
SWIDTH 785 0
DWIDTH 9 0
BBX 9 15 0 -3
BITMAP
0000
0000
0000
0000
0300
DA00
EC00
C600
C600
C600
EC00
D800
C000
C000
C000
ENDCHAR

STARTCHAR uni01A6
ENCODING 422
SWIDTH 785 0
DWIDTH 9 0
BBX 9 15 0 -3
BITMAP
0000
0000
C000
C000
FC00
CE00
C600
CC00
F800
CC00
CC00
CC00
0C00
0700
0000
ENDCHAR

STARTCHAR uni01A7
ENCODING 423
SWIDTH 785 0
DWIDTH 9 0
BBX 9 15 0 -3
BITMAP
0000
0000
7E00
C300
0300
0300
0E00
7000
C000
C000
C300
7E00
0000
0000
0000
ENDCHAR

STARTCHAR uni01A8
ENCODING 424
SWIDTH 785 0
DWIDTH 9 0
BBX 9 15 0 -3
BITMAP
0000
0000
0000
0000
0000
7E00
C300
0300
7E00
C000
C300
7E00
0000
0000
0000
ENDCHAR

STARTCHAR uni01A9
ENCODING 425
SWIDTH 785 0
DWIDTH 9 0
BBX 9 15 0 -3
BITMAP
0000
0000
7F00
6100
3000
1800
0C00
0C00
1800
3000
6100
7F00
0000
0000
0000
ENDCHAR

STARTCHAR uni01AA
ENCODING 426
SWIDTH 785 0
DWIDTH 9 0
BBX 9 15 0 -3
BITMAP
0000
7000
D800
D800
D800
7800
1800
1800
1800
1800
1800
1B00
0E00
0000
0000
ENDCHAR

STARTCHAR uni01AB
ENCODING 427
SWIDTH 785 0
DWIDTH 9 0
BBX 9 15 0 -3
BITMAP
0000
0000
0000
3000
3000
FC00
3000
3000
3000
3000
3000
1E00
0300
0300
0E00
ENDCHAR

STARTCHAR uni01AC
ENCODING 428
SWIDTH 785 0
DWIDTH 9 0
BBX 9 15 0 -3
BITMAP
0000
0000
7F00
9800
9800
1800
1800
1800
1800
1800
1800
1800
0000
0000
0000
ENDCHAR

STARTCHAR uni01AD
ENCODING 429
SWIDTH 785 0
DWIDTH 9 0
BBX 9 15 0 -3
BITMAP
0000
0000
1E00
3300
3000
FC00
3000
3000
3000
3000
3300
1E00
0000
0000
0000
ENDCHAR

STARTCHAR uni01AE
ENCODING 430
SWIDTH 785 0
DWIDTH 9 0
BBX 9 15 0 -3
BITMAP
0000
0000
FF00
1800
1800
1800
1800
1800
1800
1800
1800
1B00
0E00
0000
0000
ENDCHAR

STARTCHAR Uhorn
ENCODING 431
SWIDTH 785 0
DWIDTH 9 0
BBX 9 15 0 -3
BITMAP
0000
0000
6680
6680
6700
6600
6600
6600
6600
6600
6600
3C00
0000
0000
0000
ENDCHAR

STARTCHAR uhorn
ENCODING 432
SWIDTH 785 0
DWIDTH 9 0
BBX 9 15 0 -3
BITMAP
0000
0000
0000
0000
0000
6680
6680
6700
6600
6600
6E00
3B00
0000
0000
0000
ENDCHAR

STARTCHAR uni01B1
ENCODING 433
SWIDTH 785 0
DWIDTH 9 0
BBX 9 15 0 -3
BITMAP
0000
0000
E700
6600
6600
C300
C300
C300
C300
C300
6600
3C00
0000
0000
0000
ENDCHAR

STARTCHAR uni01B2
ENCODING 434
SWIDTH 785 0
DWIDTH 9 0
BBX 9 15 0 -3
BITMAP
0000
0000
CC00
C600
C300
6600
6600
6600
3C00
3C00
1800
1800
0000
0000
0000
ENDCHAR

STARTCHAR uni01B3
ENCODING 435
SWIDTH 785 0
DWIDTH 9 0
BBX 9 15 0 -3
BITMAP
0000
0000
0180
6180
B300
9E00
0C00
0C00
0C00
0C00
0C00
0C00
0000
0000
0000
ENDCHAR

STARTCHAR uni01B4
ENCODING 436
SWIDTH 785 0
DWIDTH 9 0
BBX 9 15 0 -3
BITMAP
0000
0000
0000
0300
0600
C600
C600
C600
C600
C600
6E00
3600
0600
CC00
7800
ENDCHAR

STARTCHAR uni01B5
ENCODING 437
SWIDTH 785 0
DWIDTH 9 0
BBX 9 15 0 -3
BITMAP
0000
0000
7F00
0300
0300
0600
7F00
1800
3000
6000
6000
7F00
0000
0000
0000
ENDCHAR

STARTCHAR uni01B6
ENCODING 438
SWIDTH 785 0
DWIDTH 9 0
BBX 9 15 0 -3
BITMAP
0000
0000
0000
0000
0000
7E00
0600
0C00
7E00
3000
6000
7E00
0000
0000
0000
ENDCHAR

STARTCHAR uni01B7
ENCODING 439
SWIDTH 785 0
DWIDTH 9 0
BBX 9 15 0 -3
BITMAP
0000
0000
FF00
0300
0600
0C00
1C00
0600
0300
0300
C600
7C00
0000
0000
0000
ENDCHAR

STARTCHAR uni01B8
ENCODING 440
SWIDTH 785 0
DWIDTH 9 0
BBX 9 15 0 -3
BITMAP
0000
0000
FF00
C000
6000
3000
3800
6000
C000
C000
6300
3E00
0000
0000
0000
ENDCHAR

STARTCHAR uni01B9
ENCODING 441
SWIDTH 785 0
DWIDTH 9 0
BBX 9 15 0 -3
BITMAP
0000
0000
0000
0000
0000
FF00
C000
6000
3000
3800
6000
C000
C000
6300
3E00
ENDCHAR

STARTCHAR uni01BA
ENCODING 442
SWIDTH 785 0
DWIDTH 9 0
BBX 9 15 0 -3
BITMAP
0000
0000
0000
FF00
0300
0600
0C00
1C00
0600
0300
0300
0600
7C00
C000
7F00
ENDCHAR

STARTCHAR uni01BB
ENCODING 443
SWIDTH 785 0
DWIDTH 9 0
BBX 9 15 0 -3
BITMAP
0000
0000
3C00
6600
C300
0300
0600
0C00
FF00
3000
6000
FF00
0000
0000
0000
ENDCHAR

STARTCHAR uni01BC
ENCODING 444
SWIDTH 785 0
DWIDTH 9 0
BBX 9 15 0 -3
BITMAP
0000
0000
FF00
C100
C000
DC00
E600
0300
0300
C300
6600
3C00
0000
0000
0000
ENDCHAR

STARTCHAR uni01BD
ENCODING 445
SWIDTH 785 0
DWIDTH 9 0
BBX 9 15 0 -3
BITMAP
0000
0000
7F00
6000
6000
6C00
7600
0300
0300
6300
3600
1C00
0000
0000
0000
ENDCHAR

STARTCHAR uni01BE
ENCODING 446
SWIDTH 785 0
DWIDTH 9 0
BBX 9 15 0 -3
BITMAP
0000
0000
1800
1800
7E00
1800
1C00
0600
0300
0300
0600
1C00
0000
0000
0000
ENDCHAR

STARTCHAR uni01BF
ENCODING 447
SWIDTH 785 0
DWIDTH 9 0
BBX 9 15 0 -3
BITMAP
0000
0000
0000
0000
0000
1C00
3600
6300
6300
6300
7600
6C00
6000
6000
C000
ENDCHAR

STARTCHAR uni01C0
ENCODING 448
SWIDTH 785 0
DWIDTH 9 0
BBX 9 15 0 -3
BITMAP
0000
0000
1800
1800
1800
1800
1800
1800
1800
1800
1800
1800
0000
0000
0000
ENDCHAR

STARTCHAR uni01C1
ENCODING 449
SWIDTH 785 0
DWIDTH 9 0
BBX 9 15 0 -3
BITMAP
0000
0000
6600
6600
6600
6600
6600
6600
6600
6600
6600
6600
0000
0000
0000
ENDCHAR

STARTCHAR uni01C2
ENCODING 450
SWIDTH 785 0
DWIDTH 9 0
BBX 9 15 0 -3
BITMAP
0000
0000
1800
1800
7E00
1800
1800
7E00
1800
1800
1800
1800
0000
0000
0000
ENDCHAR

STARTCHAR uni01C3
ENCODING 451
SWIDTH 785 0
DWIDTH 9 0
BBX 9 15 0 -3
BITMAP
0000
0000
1800
1800
1800
1800
1800
1800
0000
0000
1800
1800
0000
0000
0000
ENDCHAR

STARTCHAR uni01C4
ENCODING 452
SWIDTH 785 0
DWIDTH 9 0
BBX 9 15 0 -3
BITMAP
0500
0200
0000
F700
D900
D900
DB00
DA00
DE00
DC00
DC00
F700
0000
0000
0000
ENDCHAR

STARTCHAR uni01C5
ENCODING 453
SWIDTH 785 0
DWIDTH 9 0
BBX 9 15 0 -3
BITMAP
0000
0500
F200
D800
D800
DF00
D900
DB00
DA00
DE00
DC00
F700
0000
0000
0000
ENDCHAR

STARTCHAR uni01C6
ENCODING 454
SWIDTH 785 0
DWIDTH 9 0
BBX 9 15 0 -3
BITMAP
0000
0500
1A00
1800
1800
7F00
D900
DB00
DA00
DE00
DC00
7F00
0000
0000
0000
ENDCHAR

STARTCHAR uni01C7
ENCODING 455
SWIDTH 785 0
DWIDTH 9 0
BBX 9 15 0 -3
BITMAP
0000
0000
C300
C300
C300
C300
C300
C300
C300
CB00
CB00
F600
0000
0000
0000
ENDCHAR

STARTCHAR uni01C8
ENCODING 456
SWIDTH 785 0
DWIDTH 9 0
BBX 9 15 0 -3
BITMAP
0000
0000
C300
C300
C000
CF00
C300
C300
C300
C300
C300
FB00
0300
1B00
0E00
ENDCHAR

STARTCHAR uni01C9
ENCODING 457
SWIDTH 785 0
DWIDTH 9 0
BBX 9 15 0 -3
BITMAP
0000
0000
C300
C300
C000
CF00
C300
C300
C300
C300
C300
6300
0300
1B00
0E00
ENDCHAR

STARTCHAR uni01CA
ENCODING 458
SWIDTH 785 0
DWIDTH 9 0
BBX 9 15 0 -3
BITMAP
0000
0000
DF00
DB00
DB00
FB00
FB00
FB00
FB00
DB00
DB00
DB00
0300
1B00
0E00
ENDCHAR

STARTCHAR uni01CB
ENCODING 459
SWIDTH 785 0
DWIDTH 9 0
BBX 9 15 0 -3
BITMAP
0000
0000
DB00
DB00
D800
FB00
FB00
FB00
FB00
DB00
DB00
DB00
0300
1B00
0E00
ENDCHAR

STARTCHAR uni01CC
ENCODING 460
SWIDTH 785 0
DWIDTH 9 0
BBX 9 15 0 -3
BITMAP
0000
0000
0300
0300
0000
B300
FB00
DB00
DB00
DB00
DB00
DB00
0300
1B00
0E00
ENDCHAR

STARTCHAR uni01CD
ENCODING 461
SWIDTH 785 0
DWIDTH 9 0
BBX 9 15 0 -3
BITMAP
6600
3C00
1800
0000
3C00
6600
C300
C300
FF00
C300
C300
C300
0000
0000
0000
ENDCHAR

STARTCHAR uni01CE
ENCODING 462
SWIDTH 785 0
DWIDTH 9 0
BBX 9 15 0 -3
BITMAP
0000
6600
3C00
1800
0000
3E00
4300
0300
7F00
C300
C700
7B00
0000
0000
0000
ENDCHAR

STARTCHAR uni01CF
ENCODING 463
SWIDTH 785 0
DWIDTH 9 0
BBX 9 15 0 -3
BITMAP
6600
3C00
1800
0000
7E00
1800
1800
1800
1800
1800
1800
7E00
0000
0000
0000
ENDCHAR

STARTCHAR uni01D0
ENCODING 464
SWIDTH 785 0
DWIDTH 9 0
BBX 9 15 0 -3
BITMAP
0000
6600
3C00
1800
0000
3800
1800
1800
1800
1800
1800
7E00
0000
0000
0000
ENDCHAR

STARTCHAR uni01D1
ENCODING 465
SWIDTH 785 0
DWIDTH 9 0
BBX 9 15 0 -3
BITMAP
6600
3C00
1800
0000
3C00
6600
C300
C300
C300
C300
6600
3C00
0000
0000
0000
ENDCHAR

STARTCHAR uni01D2
ENCODING 466
SWIDTH 785 0
DWIDTH 9 0
BBX 9 15 0 -3
BITMAP
0000
6600
3C00
1800
0000
3C00
6600
C300
C300
C300
6600
3C00
0000
0000
0000
ENDCHAR

STARTCHAR uni01D3
ENCODING 467
SWIDTH 785 0
DWIDTH 9 0
BBX 9 15 0 -3
BITMAP
6600
3C00
1800
0000
C300
C300
C300
C300
C300
C300
6600
3C00
0000
0000
0000
ENDCHAR

STARTCHAR uni01D4
ENCODING 468
SWIDTH 785 0
DWIDTH 9 0
BBX 9 15 0 -3
BITMAP
0000
6600
3C00
1800
0000
C300
C300
C300
C300
C300
6700
3B00
0000
0000
0000
ENDCHAR

STARTCHAR uni01D5
ENCODING 469
SWIDTH 785 0
DWIDTH 9 0
BBX 9 15 0 -3
BITMAP
7E00
0000
6600
6600
0000
C300
C300
C300
C300
C300
6600
3C00
0000
0000
0000
ENDCHAR

STARTCHAR uni01D6
ENCODING 470
SWIDTH 785 0
DWIDTH 9 0
BBX 9 15 0 -3
BITMAP
7E00
0000
6600
6600
0000
C300
C300
C300
C300
C300
6700
3B00
0000
0000
0000
ENDCHAR

STARTCHAR uni01D7
ENCODING 471
SWIDTH 785 0
DWIDTH 9 0
BBX 9 15 0 -3
BITMAP
0C00
1800
0000
6600
0000
C300
C300
C300
C300
C300
6600
3C00
0000
0000
0000
ENDCHAR

STARTCHAR uni01D8
ENCODING 472
SWIDTH 785 0
DWIDTH 9 0
BBX 9 15 0 -3
BITMAP
0C00
1800
0000
6600
0000
C300
C300
C300
C300
C300
6700
3B00
0000
0000
0000
ENDCHAR

STARTCHAR uni01D9
ENCODING 473
SWIDTH 785 0
DWIDTH 9 0
BBX 9 15 0 -3
BITMAP
2400
1800
0000
6600
0000
C300
C300
C300
C300
C300
6600
3C00
0000
0000
0000
ENDCHAR

STARTCHAR uni01DA
ENCODING 474
SWIDTH 785 0
DWIDTH 9 0
BBX 9 15 0 -3
BITMAP
2400
1800
0000
6600
0000
C300
C300
C300
C300
C300
6700
3B00
0000
0000
0000
ENDCHAR

STARTCHAR uni01DB
ENCODING 475
SWIDTH 785 0
DWIDTH 9 0
BBX 9 15 0 -3
BITMAP
3000
1800
0000
6600
0000
C300
C300
C300
C300
C300
6600
3C00
0000
0000
0000
ENDCHAR

STARTCHAR uni01DC
ENCODING 476
SWIDTH 785 0
DWIDTH 9 0
BBX 9 15 0 -3
BITMAP
3000
1800
0000
6600
0000
C300
C300
C300
C300
C300
6700
3B00
0000
0000
0000
ENDCHAR

STARTCHAR uni01DD
ENCODING 477
SWIDTH 785 0
DWIDTH 9 0
BBX 9 15 0 -3
BITMAP
0000
0000
0000
0000
0000
7C00
C600
0300
FF00
C300
6600
3C00
0000
0000
0000
ENDCHAR

STARTCHAR uni01DE
ENCODING 478
SWIDTH 785 0
DWIDTH 9 0
BBX 9 15 0 -3
BITMAP
7E00
0000
6600
6600
0000
3C00
6600
C300
C300
FF00
C300
C300
0000
0000
0000
ENDCHAR

STARTCHAR uni01DF
ENCODING 479
SWIDTH 785 0
DWIDTH 9 0
BBX 9 15 0 -3
BITMAP
7E00
0000
6600
6600
0000
3E00
4300
0300
7F00
C300
C700
7B00
0000
0000
0000
ENDCHAR

STARTCHAR uni01E0
ENCODING 480
SWIDTH 785 0
DWIDTH 9 0
BBX 9 15 0 -3
BITMAP
7E00
0000
1800
1800
0000
3C00
6600
C300
C300
FF00
C300
C300
0000
0000
0000
ENDCHAR

STARTCHAR uni01E1
ENCODING 481
SWIDTH 785 0
DWIDTH 9 0
BBX 9 15 0 -3
BITMAP
7E00
0000
1800
1800
0000
3E00
4300
0300
7F00
C300
C700
7B00
0000
0000
0000
ENDCHAR

STARTCHAR uni01E2
ENCODING 482
SWIDTH 785 0
DWIDTH 9 0
BBX 9 15 0 -3
BITMAP
0000
7E00
0000
1F00
3C00
6C00
CC00
FF00
CC00
CC00
CC00
CF00
0000
0000
0000
ENDCHAR

STARTCHAR uni01E3
ENCODING 483
SWIDTH 785 0
DWIDTH 9 0
BBX 9 15 0 -3
BITMAP
0000
0000
0000
7E00
0000
7600
9B00
1B00
7E00
D800
D900
6E00
0000
0000
0000
ENDCHAR

STARTCHAR uni01E4
ENCODING 484
SWIDTH 785 0
DWIDTH 9 0
BBX 9 15 0 -3
BITMAP
0000
0000
3C00
6600
C000
C000
CE00
C600
DF00
C600
6600
3C00
0000
0000
0000
ENDCHAR

STARTCHAR uni01E5
ENCODING 485
SWIDTH 785 0
DWIDTH 9 0
BBX 9 15 0 -3
BITMAP
0000
0000
0000
0000
0000
3D80
7700
6300
6300
6300
3700
1B00
0300
FF80
3C00
ENDCHAR

STARTCHAR Gcaron
ENCODING 486
SWIDTH 785 0
DWIDTH 9 0
BBX 9 15 0 -3
BITMAP
2400
1800
0000
3E00
6300
C000
C000
C700
C300
C300
6300
3E00
0000
0000
0000
ENDCHAR

STARTCHAR gcaron
ENCODING 487
SWIDTH 785 0
DWIDTH 9 0
BBX 9 15 0 -3
BITMAP
0000
6600
3C00
1800
0000
7D00
C700
C600
C600
7C00
C000
7E00
C300
C300
7E00
ENDCHAR

STARTCHAR uni01E8
ENCODING 488
SWIDTH 785 0
DWIDTH 9 0
BBX 9 15 0 -3
BITMAP
2400
1800
0000
C300
C600
CC00
D800
F000
D800
CC00
C600
C300
0000
0000
0000
ENDCHAR

STARTCHAR uni01E9
ENCODING 489
SWIDTH 785 0
DWIDTH 9 0
BBX 9 15 0 -3
BITMAP
1200
0C00
6000
6000
6000
6600
6C00
7800
7800
6C00
6600
6300
0000
0000
0000
ENDCHAR

STARTCHAR uni01EA
ENCODING 490
SWIDTH 785 0
DWIDTH 9 0
BBX 9 15 0 -3
BITMAP
0000
0000
3C00
6600
C300
C300
C300
C300
C300
C300
6600
3C00
1800
3000
1800
ENDCHAR

STARTCHAR uni01EB
ENCODING 491
SWIDTH 785 0
DWIDTH 9 0
BBX 9 15 0 -3
BITMAP
0000
0000
0000
0000
0000
3C00
6600
C300
C300
C300
6600
3C00
1800
3000
1800
ENDCHAR

STARTCHAR uni01EC
ENCODING 492
SWIDTH 785 0
DWIDTH 9 0
BBX 9 15 0 -3
BITMAP
0000
7E00
0000
3C00
6600
C300
C300
C300
C300
C300
6600
3C00
1800
3000
1800
ENDCHAR

STARTCHAR uni01ED
ENCODING 493
SWIDTH 785 0
DWIDTH 9 0
BBX 9 15 0 -3
BITMAP
0000
0000
0000
7E00
0000
3C00
6600
C300
C300
C300
6600
3C00
1800
3000
1800
ENDCHAR

STARTCHAR uni01EE
ENCODING 494
SWIDTH 785 0
DWIDTH 9 0
BBX 9 15 0 -3
BITMAP
2400
1800
0000
FF00
0600
0C00
1C00
0600
0300
0300
C600
7C00
0000
0000
0000
ENDCHAR

STARTCHAR uni01EF
ENCODING 495
SWIDTH 785 0
DWIDTH 9 0
BBX 9 15 0 -3
BITMAP
0000
6600
3C00
1800
0000
FF00
0300
0600
0C00
1C00
0600
0300
0300
C600
7C00
ENDCHAR

STARTCHAR uni01F0
ENCODING 496
SWIDTH 785 0
DWIDTH 9 0
BBX 9 15 0 -3
BITMAP
0000
3300
1E00
0C00
0000
1E00
0600
0600
0600
0600
0600
C600
C600
C600
7C00
ENDCHAR

STARTCHAR uni01F1
ENCODING 497
SWIDTH 785 0
DWIDTH 9 0
BBX 9 15 0 -3
BITMAP
0000
0000
F700
D900
D900
DB00
DA00
DA00
DE00
DC00
DC00
F700
0000
0000
0000
ENDCHAR

STARTCHAR uni01F2
ENCODING 498
SWIDTH 785 0
DWIDTH 9 0
BBX 9 15 0 -3
BITMAP
0000
0000
F000
D800
D800
DF00
D900
DB00
DA00
DE00
DC00
F700
0000
0000
0000
ENDCHAR

STARTCHAR uni01F3
ENCODING 499
SWIDTH 785 0
DWIDTH 9 0
BBX 9 15 0 -3
BITMAP
0000
0000
1800
1800
1800
7F00
D900
DB00
DA00
DE00
DC00
7F00
0000
0000
0000
ENDCHAR

STARTCHAR uni01F4
ENCODING 500
SWIDTH 785 0
DWIDTH 9 0
BBX 9 15 0 -3
BITMAP
0C00
1800
0000
3E00
6300
C000
C000
C700
C300
C300
6300
3E00
0000
0000
0000
ENDCHAR

STARTCHAR uni01F5
ENCODING 501
SWIDTH 785 0
DWIDTH 9 0
BBX 9 15 0 -3
BITMAP
0000
0C00
1800
3000
0000
7D00
C700
C600
C600
7C00
C000
7E00
C300
C300
7E00
ENDCHAR

STARTCHAR Aringacute
ENCODING 506
SWIDTH 785 0
DWIDTH 9 0
BBX 9 15 0 -3
BITMAP
0C00
1800
0000
1800
2400
1800
3C00
6600
C300
FF00
C300
C300
0000
0000
0000
ENDCHAR

STARTCHAR aringacute
ENCODING 507
SWIDTH 785 0
DWIDTH 9 0
BBX 9 15 0 -3
BITMAP
0C00
1800
0000
1800
2400
1800
7E00
0300
7F00
C300
C700
7B00
0000
0000
0000
ENDCHAR

STARTCHAR AEacute
ENCODING 508
SWIDTH 785 0
DWIDTH 9 0
BBX 9 15 0 -3
BITMAP
0600
0C00
0000
1F00
3C00
6C00
CC00
FF00
CC00
CC00
CC00
CF00
0000
0000
0000
ENDCHAR

STARTCHAR aeacute
ENCODING 509
SWIDTH 785 0
DWIDTH 9 0
BBX 9 15 0 -3
BITMAP
0000
0600
0C00
1800
0000
7600
9B00
1B00
7E00
D800
D900
6E00
0000
0000
0000
ENDCHAR

STARTCHAR Oslashacute
ENCODING 510
SWIDTH 785 0
DWIDTH 9 0
BBX 9 15 0 -3
BITMAP
0C00
1800
0100
3F00
6600
C700
CB00
D300
D300
E300
6600
FC00
8000
0000
0000
ENDCHAR

STARTCHAR oslashacute
ENCODING 511
SWIDTH 785 0
DWIDTH 9 0
BBX 9 15 0 -3
BITMAP
0000
0600
0C00
1800
0100
3F00
6600
CF00
DB00
F300
6600
FC00
8000
0000
0000
ENDCHAR

STARTCHAR uni0200
ENCODING 512
SWIDTH 785 0
DWIDTH 9 0
BBX 9 15 0 -3
BITMAP
0000
CC00
6600
0000
3C00
6600
C300
C300
FF00
C300
C300
C300
0000
0000
0000
ENDCHAR

STARTCHAR uni0201
ENCODING 513
SWIDTH 785 0
DWIDTH 9 0
BBX 9 15 0 -3
BITMAP
0000
0000
CC00
6600
0000
3E00
4300
0300
7F00
C300
C700
7B00
0000
0000
0000
ENDCHAR

STARTCHAR uni0202
ENCODING 514
SWIDTH 785 0
DWIDTH 9 0
BBX 9 15 0 -3
BITMAP
0000
3C00
4200
0000
3C00
6600
C300
C300
FF00
C300
C300
C300
0000
0000
0000
ENDCHAR

STARTCHAR uni0203
ENCODING 515
SWIDTH 785 0
DWIDTH 9 0
BBX 9 15 0 -3
BITMAP
0000
0000
3C00
4200
0000
3E00
4300
0300
7F00
C300
C700
7B00
0000
0000
0000
ENDCHAR

STARTCHAR uni0204
ENCODING 516
SWIDTH 785 0
DWIDTH 9 0
BBX 9 15 0 -3
BITMAP
0000
6600
3300
0000
7F00
6000
6000
7E00
6000
6000
6000
7F00
0000
0000
0000
ENDCHAR

STARTCHAR uni0205
ENCODING 517
SWIDTH 785 0
DWIDTH 9 0
BBX 9 15 0 -3
BITMAP
0000
0000
CC00
6600
0000
3C00
6600
C300
FF00
C000
6300
3E00
0000
0000
0000
ENDCHAR

STARTCHAR uni0206
ENCODING 518
SWIDTH 785 0
DWIDTH 9 0
BBX 9 15 0 -3
BITMAP
0000
1E00
2100
0000
7F00
6000
6000
7E00
6000
6000
6000
7F00
0000
0000
0000
ENDCHAR

STARTCHAR uni0207
ENCODING 519
SWIDTH 785 0
DWIDTH 9 0
BBX 9 15 0 -3
BITMAP
0000
0000
3C00
4200
0000
3C00
6600
C300
FF00
C000
6300
3E00
0000
0000
0000
ENDCHAR

STARTCHAR uni0208
ENCODING 520
SWIDTH 785 0
DWIDTH 9 0
BBX 9 15 0 -3
BITMAP
0000
6600
3300
0000
3F00
0C00
0C00
0C00
0C00
0C00
0C00
3F00
0000
0000
0000
ENDCHAR

STARTCHAR uni0209
ENCODING 521
SWIDTH 785 0
DWIDTH 9 0
BBX 9 15 0 -3
BITMAP
0000
0000
6600
3300
0000
1C00
0C00
0C00
0C00
0C00
0C00
3F00
0000
0000
0000
ENDCHAR

STARTCHAR uni020A
ENCODING 522
SWIDTH 785 0
DWIDTH 9 0
BBX 9 15 0 -3
BITMAP
0000
3C00
4200
0000
7E00
1800
1800
1800
1800
1800
1800
7E00
0000
0000
0000
ENDCHAR

STARTCHAR uni020B
ENCODING 523
SWIDTH 785 0
DWIDTH 9 0
BBX 9 15 0 -3
BITMAP
0000
0000
3C00
4200
0000
3800
1800
1800
1800
1800
1800
7E00
0000
0000
0000
ENDCHAR

STARTCHAR uni020C
ENCODING 524
SWIDTH 785 0
DWIDTH 9 0
BBX 9 15 0 -3
BITMAP
0000
CC00
6600
0000
3C00
6600
C300
C300
C300
C300
6600
3C00
0000
0000
0000
ENDCHAR

STARTCHAR uni020D
ENCODING 525
SWIDTH 785 0
DWIDTH 9 0
BBX 9 15 0 -3
BITMAP
0000
0000
CC00
6600
0000
3C00
6600
C300
C300
C300
6600
3C00
0000
0000
0000
ENDCHAR

STARTCHAR uni020E
ENCODING 526
SWIDTH 785 0
DWIDTH 9 0
BBX 9 15 0 -3
BITMAP
0000
3C00
4200
0000
3C00
6600
C300
C300
C300
C300
6600
3C00
0000
0000
0000
ENDCHAR

STARTCHAR uni020F
ENCODING 527
SWIDTH 785 0
DWIDTH 9 0
BBX 9 15 0 -3
BITMAP
0000
0000
3C00
4200
0000
3C00
6600
C300
C300
C300
6600
3C00
0000
0000
0000
ENDCHAR

STARTCHAR uni0210
ENCODING 528
SWIDTH 785 0
DWIDTH 9 0
BBX 9 15 0 -3
BITMAP
CC00
6600
0000
FE00
C300
C300
C300
FE00
F800
CC00
C600
C300
0000
0000
0000
ENDCHAR

STARTCHAR uni0211
ENCODING 529
SWIDTH 785 0
DWIDTH 9 0
BBX 9 15 0 -3
BITMAP
0000
0000
CC00
6600
0000
DE00
7300
6000
6000
6000
6000
6000
0000
0000
0000
ENDCHAR

STARTCHAR uni0212
ENCODING 530
SWIDTH 785 0
DWIDTH 9 0
BBX 9 15 0 -3
BITMAP
3C00
4200
0000
FE00
C300
C300
C300
FE00
F800
CC00
C600
C300
0000
0000
0000
ENDCHAR

STARTCHAR uni0213
ENCODING 531
SWIDTH 785 0
DWIDTH 9 0
BBX 9 15 0 -3
BITMAP
0000
0000
3C00
4200
0000
DE00
7300
6000
6000
6000
6000
6000
0000
0000
0000
ENDCHAR

STARTCHAR uni0214
ENCODING 532
SWIDTH 785 0
DWIDTH 9 0
BBX 9 15 0 -3
BITMAP
0000
CC00
6600
0000
C300
C300
C300
C300
C300
C300
6600
3C00
0000
0000
0000
ENDCHAR

STARTCHAR uni0215
ENCODING 533
SWIDTH 785 0
DWIDTH 9 0
BBX 9 15 0 -3
BITMAP
0000
0000
CC00
6600
0000
C300
C300
C300
C300
C300
6700
3B00
0000
0000
0000
ENDCHAR

STARTCHAR uni0216
ENCODING 534
SWIDTH 785 0
DWIDTH 9 0
BBX 9 15 0 -3
BITMAP
0000
3C00
4200
0000
C300
C300
C300
C300
C300
C300
6600
3C00
0000
0000
0000
ENDCHAR

STARTCHAR uni0217
ENCODING 535
SWIDTH 785 0
DWIDTH 9 0
BBX 9 15 0 -3
BITMAP
0000
0000
3C00
4200
0000
C300
C300
C300
C300
C300
6700
3B00
0000
0000
0000
ENDCHAR

STARTCHAR Scommaaccent
ENCODING 536
SWIDTH 785 0
DWIDTH 9 0
BBX 9 15 0 -3
BITMAP
0000
0000
7E00
C300
C000
C000
7E00
0300
0300
0300
C300
7E00
1C00
0C00
1800
ENDCHAR

STARTCHAR scommaaccent
ENCODING 537
SWIDTH 785 0
DWIDTH 9 0
BBX 9 15 0 -3
BITMAP
0000
0000
0000
0000
0000
7E00
C300
C000
7E00
0300
C300
7E00
1C00
0C00
1800
ENDCHAR

STARTCHAR Tcommaaccent
ENCODING 538
SWIDTH 785 0
DWIDTH 9 0
BBX 9 15 0 -3
BITMAP
0000
0000
FF00
1800
1800
1800
1800
1800
1800
1800
1800
1800
0C00
0C00
1800
ENDCHAR

STARTCHAR tcommaaccent
ENCODING 539
SWIDTH 785 0
DWIDTH 9 0
BBX 9 15 0 -3
BITMAP
0000
0000
0000
3000
3000
FC00
3000
3000
3000
3000
3300
1E00
0C00
0C00
1800
ENDCHAR

STARTCHAR uni0258
ENCODING 600
SWIDTH 785 0
DWIDTH 9 0
BBX 9 15 0 -3
BITMAP
0000
0000
0000
0000
0000
3C00
6600
C300
FF00
0300
C600
7C00
0000
0000
0000
ENDCHAR

STARTCHAR uni0259
ENCODING 601
SWIDTH 785 0
DWIDTH 9 0
BBX 9 15 0 -3
BITMAP
0000
0000
0000
0000
0000
7C00
C600
0300
FF00
C300
6600
3C00
0000
0000
0000
ENDCHAR

STARTCHAR afii57929
ENCODING 700
SWIDTH 785 0
DWIDTH 9 0
BBX 9 15 0 -3
BITMAP
0000
0000
1C00
0C00
1800
0000
0000
0000
0000
0000
0000
0000
0000
0000
0000
ENDCHAR

STARTCHAR afii64937
ENCODING 701
SWIDTH 785 0
DWIDTH 9 0
BBX 9 15 0 -3
BITMAP
0000
0000
1C00
1800
0C00
0000
0000
0000
0000
0000
0000
0000
0000
0000
0000
ENDCHAR

STARTCHAR circumflex
ENCODING 710
SWIDTH 785 0
DWIDTH 9 0
BBX 9 15 0 -3
BITMAP
1800
3C00
6600
0000
0000
0000
0000
0000
0000
0000
0000
0000
0000
0000
0000
ENDCHAR

STARTCHAR caron
ENCODING 711
SWIDTH 785 0
DWIDTH 9 0
BBX 9 15 0 -3
BITMAP
6600
3C00
1800
0000
0000
0000
0000
0000
0000
0000
0000
0000
0000
0000
0000
ENDCHAR

STARTCHAR breve
ENCODING 728
SWIDTH 785 0
DWIDTH 9 0
BBX 9 15 0 -3
BITMAP
6300
3E00
0000
0000
0000
0000
0000
0000
0000
0000
0000
0000
0000
0000
0000
ENDCHAR

STARTCHAR dotaccent
ENCODING 729
SWIDTH 785 0
DWIDTH 9 0
BBX 9 15 0 -3
BITMAP
0000
1800
0000
0000
0000
0000
0000
0000
0000
0000
0000
0000
0000
0000
0000
ENDCHAR

STARTCHAR ring
ENCODING 730
SWIDTH 785 0
DWIDTH 9 0
BBX 9 15 0 -3
BITMAP
1C00
3600
1C00
0000
0000
0000
0000
0000
0000
0000
0000
0000
0000
0000
0000
ENDCHAR

STARTCHAR ogonek
ENCODING 731
SWIDTH 785 0
DWIDTH 9 0
BBX 9 15 0 -3
BITMAP
0000
0000
0000
0000
0000
0000
0000
0000
0000
0000
0000
0000
3000
3C00
0000
ENDCHAR

STARTCHAR tilde
ENCODING 732
SWIDTH 785 0
DWIDTH 9 0
BBX 9 15 0 -3
BITMAP
3600
6C00
0000
0000
0000
0000
0000
0000
0000
0000
0000
0000
0000
0000
0000
ENDCHAR

STARTCHAR hungarumlaut
ENCODING 733
SWIDTH 785 0
DWIDTH 9 0
BBX 9 15 0 -3
BITMAP
3300
6600
0000
0000
0000
0000
0000
0000
0000
0000
0000
0000
0000
0000
0000
ENDCHAR

STARTCHAR gravecomb
ENCODING 768
SWIDTH 785 0
DWIDTH 9 0
BBX 9 15 0 -3
BITMAP
6000
3000
1800
0000
0000
0000
0000
0000
0000
0000
0000
0000
0000
0000
0000
ENDCHAR

STARTCHAR acutecomb
ENCODING 769
SWIDTH 785 0
DWIDTH 9 0
BBX 9 15 0 -3
BITMAP
0600
0C00
1800
0000
0000
0000
0000
0000
0000
0000
0000
0000
0000
0000
0000
ENDCHAR

STARTCHAR uni0302
ENCODING 770
SWIDTH 785 0
DWIDTH 9 0
BBX 9 15 0 -3
BITMAP
1800
3C00
6600
0000
0000
0000
0000
0000
0000
0000
0000
0000
0000
0000
0000
ENDCHAR

STARTCHAR tildecomb
ENCODING 771
SWIDTH 785 0
DWIDTH 9 0
BBX 9 15 0 -3
BITMAP
3200
7E00
4C00
0000
0000
0000
0000
0000
0000
0000
0000
0000
0000
0000
0000
ENDCHAR

STARTCHAR uni0304
ENCODING 772
SWIDTH 785 0
DWIDTH 9 0
BBX 9 15 0 -3
BITMAP
3E00
0000
0000
0000
0000
0000
0000
0000
0000
0000
0000
0000
0000
0000
0000
ENDCHAR

STARTCHAR uni0305
ENCODING 773
SWIDTH 785 0
DWIDTH 9 0
BBX 9 15 0 -3
BITMAP
FF80
0000
0000
0000
0000
0000
0000
0000
0000
0000
0000
0000
0000
0000
0000
ENDCHAR

STARTCHAR uni0306
ENCODING 774
SWIDTH 785 0
DWIDTH 9 0
BBX 9 15 0 -3
BITMAP
4200
3C00
0000
0000
0000
0000
0000
0000
0000
0000
0000
0000
0000
0000
0000
ENDCHAR

STARTCHAR uni0307
ENCODING 775
SWIDTH 785 0
DWIDTH 9 0
BBX 9 15 0 -3
BITMAP
1800
1800
0000
0000
0000
0000
0000
0000
0000
0000
0000
0000
0000
0000
0000
ENDCHAR

STARTCHAR uni0308
ENCODING 776
SWIDTH 785 0
DWIDTH 9 0
BBX 9 15 0 -3
BITMAP
6600
6600
0000
0000
0000
0000
0000
0000
0000
0000
0000
0000
0000
0000
0000
ENDCHAR

STARTCHAR hookabovecomb
ENCODING 777
SWIDTH 785 0
DWIDTH 9 0
BBX 9 15 0 -3
BITMAP
1800
0C00
1800
0000
0000
0000
0000
0000
0000
0000
0000
0000
0000
0000
0000
ENDCHAR

STARTCHAR uni030A
ENCODING 778
SWIDTH 785 0
DWIDTH 9 0
BBX 9 15 0 -3
BITMAP
1800
2400
2400
1800
0000
0000
0000
0000
0000
0000
0000
0000
0000
0000
0000
ENDCHAR

STARTCHAR uni030B
ENCODING 779
SWIDTH 785 0
DWIDTH 9 0
BBX 9 15 0 -3
BITMAP
3300
6600
0000
0000
0000
0000
0000
0000
0000
0000
0000
0000
0000
0000
0000
ENDCHAR

STARTCHAR uni030C
ENCODING 780
SWIDTH 785 0
DWIDTH 9 0
BBX 9 15 0 -3
BITMAP
6600
3C00
1800
0000
0000
0000
0000
0000
0000
0000
0000
0000
0000
0000
0000
ENDCHAR

STARTCHAR uni030D
ENCODING 781
SWIDTH 785 0
DWIDTH 9 0
BBX 9 15 0 -3
BITMAP
0800
0800
0800
0000
0000
0000
0000
0000
0000
0000
0000
0000
0000
0000
0000
ENDCHAR

STARTCHAR uni030E
ENCODING 782
SWIDTH 785 0
DWIDTH 9 0
BBX 9 15 0 -3
BITMAP
1400
1400
1400
0000
0000
0000
0000
0000
0000
0000
0000
0000
0000
0000
0000
ENDCHAR

STARTCHAR uni030F
ENCODING 783
SWIDTH 785 0
DWIDTH 9 0
BBX 9 15 0 -3
BITMAP
6600
3300
0000
0000
0000
0000
0000
0000
0000
0000
0000
0000
0000
0000
0000
ENDCHAR

STARTCHAR uni0310
ENCODING 784
SWIDTH 785 0
DWIDTH 9 0
BBX 9 15 0 -3
BITMAP
1800
4200
3C00
0000
0000
0000
0000
0000
0000
0000
0000
0000
0000
0000
0000
ENDCHAR

STARTCHAR uni0311
ENCODING 785
SWIDTH 785 0
DWIDTH 9 0
BBX 9 15 0 -3
BITMAP
3C00
4200
0000
0000
0000
0000
0000
0000
0000
0000
0000
0000
0000
0000
0000
ENDCHAR

STARTCHAR uni0312
ENCODING 786
SWIDTH 785 0
DWIDTH 9 0
BBX 9 15 0 -3
BITMAP
0800
1000
1800
1800
0000
0000
0000
0000
0000
0000
0000
0000
0000
0000
0000
ENDCHAR

STARTCHAR uni0313
ENCODING 787
SWIDTH 785 0
DWIDTH 9 0
BBX 9 15 0 -3
BITMAP
1000
0800
1800
1800
0000
0000
0000
0000
0000
0000
0000
0000
0000
0000
0000
ENDCHAR

STARTCHAR uni0314
ENCODING 788
SWIDTH 785 0
DWIDTH 9 0
BBX 9 15 0 -3
BITMAP
1800
1800
1000
0800
0000
0000
0000
0000
0000
0000
0000
0000
0000
0000
0000
ENDCHAR

STARTCHAR uni0316
ENCODING 790
SWIDTH 785 0
DWIDTH 9 0
BBX 9 15 0 -3
BITMAP
0000
0000
0000
0000
0000
0000
0000
0000
0000
0000
0000
0000
3000
1800
0C00
ENDCHAR

STARTCHAR uni0317
ENCODING 791
SWIDTH 785 0
DWIDTH 9 0
BBX 9 15 0 -3
BITMAP
0000
0000
0000
0000
0000
0000
0000
0000
0000
0000
0000
0000
0C00
1800
3000
ENDCHAR

STARTCHAR dotbelowcomb
ENCODING 803
SWIDTH 785 0
DWIDTH 9 0
BBX 9 15 0 -3
BITMAP
0000
0000
0000
0000
0000
0000
0000
0000
0000
0000
0000
0000
0000
1800
1800
ENDCHAR

STARTCHAR uni0324
ENCODING 804
SWIDTH 785 0
DWIDTH 9 0
BBX 9 15 0 -3
BITMAP
0000
0000
0000
0000
0000
0000
0000
0000
0000
0000
0000
0000
0000
6600
6600
ENDCHAR

STARTCHAR uni0325
ENCODING 805
SWIDTH 785 0
DWIDTH 9 0
BBX 9 15 0 -3
BITMAP
0000
0000
0000
0000
0000
0000
0000
0000
0000
0000
0000
0000
1C00
3600
1C00
ENDCHAR

STARTCHAR uni0326
ENCODING 806
SWIDTH 785 0
DWIDTH 9 0
BBX 9 15 0 -3
BITMAP
0000
0000
0000
0000
0000
0000
0000
0000
0000
0000
0000
0000
1C00
0C00
1800
ENDCHAR

STARTCHAR uni0330
ENCODING 816
SWIDTH 785 0
DWIDTH 9 0
BBX 9 15 0 -3
BITMAP
0000
0000
0000
0000
0000
0000
0000
0000
0000
0000
0000
0000
3200
7E00
4C00
ENDCHAR

STARTCHAR uni0331
ENCODING 817
SWIDTH 785 0
DWIDTH 9 0
BBX 9 15 0 -3
BITMAP
0000
0000
0000
0000
0000
0000
0000
0000
0000
0000
0000
0000
0000
3E00
0000
ENDCHAR

STARTCHAR uni0332
ENCODING 818
SWIDTH 785 0
DWIDTH 9 0
BBX 9 15 0 -3
BITMAP
0000
0000
0000
0000
0000
0000
0000
0000
0000
0000
0000
0000
0000
FF80
0000
ENDCHAR

STARTCHAR uni0374
ENCODING 884
SWIDTH 785 0
DWIDTH 9 0
BBX 9 15 0 -3
BITMAP
0000
0C00
1800
3000
0000
0000
0000
0000
0000
0000
0000
0000
0000
0000
0000
ENDCHAR

STARTCHAR uni0375
ENCODING 885
SWIDTH 785 0
DWIDTH 9 0
BBX 9 15 0 -3
BITMAP
0000
0000
0000
0000
0000
0000
0000
0000
0000
0000
0000
0000
0C00
1800
3000
ENDCHAR

STARTCHAR uni037A
ENCODING 890
SWIDTH 785 0
DWIDTH 9 0
BBX 9 15 0 -3
BITMAP
0000
0000
0000
0000
0000
0000
0000
0000
0000
0000
0000
0000
0000
1800
1C00
ENDCHAR

STARTCHAR uni037E
ENCODING 894
SWIDTH 785 0
DWIDTH 9 0
BBX 9 15 0 -3
BITMAP
0000
0000
0000
0000
0000
0C00
1E00
0C00
0000
0000
1E00
1C00
3000
0000
0000
ENDCHAR

STARTCHAR tonos
ENCODING 900
SWIDTH 785 0
DWIDTH 9 0
BBX 9 15 0 -3
BITMAP
0000
0C00
1800
3000
0000
0000
0000
0000
0000
0000
0000
0000
0000
0000
0000
ENDCHAR

STARTCHAR dieresistonos
ENCODING 901
SWIDTH 785 0
DWIDTH 9 0
BBX 9 15 0 -3
BITMAP
0000
0C00
DB00
F300
0000
0000
0000
0000
0000
0000
0000
0000
0000
0000
0000
ENDCHAR

STARTCHAR Alphatonos
ENCODING 902
SWIDTH 785 0
DWIDTH 9 0
BBX 9 15 0 -3
BITMAP
0000
0000
6600
CF00
9980
1980
1980
1980
1F80
1980
1980
1980
0000
0000
0000
ENDCHAR

STARTCHAR anoteleia
ENCODING 903
SWIDTH 785 0
DWIDTH 9 0
BBX 9 15 0 -3
BITMAP
0000
0000
0000
0000
0000
0800
1C00
0800
0000
0000
0000
0000
0000
0000
0000
ENDCHAR

STARTCHAR Epsilontonos
ENCODING 904
SWIDTH 785 0
DWIDTH 9 0
BBX 9 15 0 -3
BITMAP
0000
0000
7F80
D800
9800
1800
1F00
1800
1800
1800
1800
1F80
0000
0000
0000
ENDCHAR

STARTCHAR Etatonos
ENCODING 905
SWIDTH 785 0
DWIDTH 9 0
BBX 9 15 0 -3
BITMAP
0000
0000
7980
D980
9980
1980
1F80
1980
1980
1980
1980
1980
0000
0000
0000
ENDCHAR

STARTCHAR Iotatonos
ENCODING 906
SWIDTH 785 0
DWIDTH 9 0
BBX 9 15 0 -3
BITMAP
0000
0000
7F80
C600
8600
0600
0600
0600
0600
0600
0600
1F80
0000
0000
0000
ENDCHAR

STARTCHAR Omicrontonos
ENCODING 908
SWIDTH 785 0
DWIDTH 9 0
BBX 9 15 0 -3
BITMAP
0000
0000
6600
CF00
9980
1980
1980
1980
1980
1980
0F00
0600
0000
0000
0000
ENDCHAR

STARTCHAR Upsilontonos
ENCODING 910
SWIDTH 785 0
DWIDTH 9 0
BBX 9 15 0 -3
BITMAP
0000
0000
7980
D980
9980
0F00
0600
0600
0600
0600
0600
0600
0000
0000
0000
ENDCHAR

STARTCHAR Omegatonos
ENCODING 911
SWIDTH 785 0
DWIDTH 9 0
BBX 9 15 0 -3
BITMAP
0000
0000
6600
CF00
9980
1980
1980
1980
1980
0F00
0F00
1980
0000
0000
0000
ENDCHAR

STARTCHAR iotadieresistonos
ENCODING 912
SWIDTH 785 0
DWIDTH 9 0
BBX 9 15 0 -3
BITMAP
0000
0C00
DB00
F300
0000
1800
1800
1800
1800
1800
1B00
0E00
0000
0000
0000
ENDCHAR

STARTCHAR Alpha
ENCODING 913
SWIDTH 785 0
DWIDTH 9 0
BBX 9 15 0 -3
BITMAP
0000
0000
1800
3C00
6600
C300
C300
C300
FF00
C300
C300
C300
0000
0000
0000
ENDCHAR

STARTCHAR Beta
ENCODING 914
SWIDTH 785 0
DWIDTH 9 0
BBX 9 15 0 -3
BITMAP
0000
0000
FC00
C600
C300
C600
FC00
C600
C300
C300
C600
FC00
0000
0000
0000
ENDCHAR

STARTCHAR Gamma
ENCODING 915
SWIDTH 785 0
DWIDTH 9 0
BBX 9 15 0 -3
BITMAP
0000
0000
FF00
C000
C000
C000
C000
C000
C000
C000
C000
C000
0000
0000
0000
ENDCHAR

STARTCHAR Delta
ENCODING 916
SWIDTH 785 0
DWIDTH 9 0
BBX 9 15 0 -3
BITMAP
0000
0000
1800
1800
3C00
3C00
6600
6600
6600
C300
C300
FF00
0000
0000
0000
ENDCHAR

STARTCHAR Epsilon
ENCODING 917
SWIDTH 785 0
DWIDTH 9 0
BBX 9 15 0 -3
BITMAP
0000
0000
7F00
6000
6000
6000
7E00
6000
6000
6000
6000
7F00
0000
0000
0000
ENDCHAR

STARTCHAR Zeta
ENCODING 918
SWIDTH 785 0
DWIDTH 9 0
BBX 9 15 0 -3
BITMAP
0000
0000
7F00
0300
0300
0600
0C00
1800
3000
6000
6000
7F00
0000
0000
0000
ENDCHAR

STARTCHAR Eta
ENCODING 919
SWIDTH 785 0
DWIDTH 9 0
BBX 9 15 0 -3
BITMAP
0000
0000
C300
C300
C300
C300
FF00
C300
C300
C300
C300
C300
0000
0000
0000
ENDCHAR

STARTCHAR Theta
ENCODING 920
SWIDTH 785 0
DWIDTH 9 0
BBX 9 15 0 -3
BITMAP
0000
0000
3C00
6600
C300
C300
FF00
C300
C300
C300
6600
3C00
0000
0000
0000
ENDCHAR

STARTCHAR Iota
ENCODING 921
SWIDTH 785 0
DWIDTH 9 0
BBX 9 15 0 -3
BITMAP
0000
0000
7E00
1800
1800
1800
1800
1800
1800
1800
1800
7E00
0000
0000
0000
ENDCHAR

STARTCHAR Kappa
ENCODING 922
SWIDTH 785 0
DWIDTH 9 0
BBX 9 15 0 -3
BITMAP
0000
0000
C300
C600
CC00
D800
F000
F000
D800
CC00
C600
C300
0000
0000
0000
ENDCHAR

STARTCHAR Lambda
ENCODING 923
SWIDTH 785 0
DWIDTH 9 0
BBX 9 15 0 -3
BITMAP
0000
0000
1800
1800
3C00
3C00
6600
6600
6600
C300
C300
C300
0000
0000
0000
ENDCHAR

STARTCHAR Mu
ENCODING 924
SWIDTH 785 0
DWIDTH 9 0
BBX 9 15 0 -3
BITMAP
0000
0000
C300
E700
FF00
DB00
DB00
DB00
C300
C300
C300
C300
0000
0000
0000
ENDCHAR

STARTCHAR Nu
ENCODING 925
SWIDTH 785 0
DWIDTH 9 0
BBX 9 15 0 -3
BITMAP
0000
0000
C300
E300
F300
F300
DB00
DB00
CF00
C700
C700
C300
0000
0000
0000
ENDCHAR

STARTCHAR Xi
ENCODING 926
SWIDTH 785 0
DWIDTH 9 0
BBX 9 15 0 -3
BITMAP
0000
0000
FF00
0000
0000
0000
7E00
0000
0000
0000
0000
FF00
0000
0000
0000
ENDCHAR

STARTCHAR Omicron
ENCODING 927
SWIDTH 785 0
DWIDTH 9 0
BBX 9 15 0 -3
BITMAP
0000
0000
3C00
6600
C300
C300
C300
C300
C300
C300
6600
3C00
0000
0000
0000
ENDCHAR

STARTCHAR Pi
ENCODING 928
SWIDTH 785 0
DWIDTH 9 0
BBX 9 15 0 -3
BITMAP
0000
0000
FF00
6600
6600
6600
6600
6600
6600
6600
6600
6600
0000
0000
0000
ENDCHAR

STARTCHAR Rho
ENCODING 929
SWIDTH 785 0
DWIDTH 9 0
BBX 9 15 0 -3
BITMAP
0000
0000
FE00
C300
C300
C300
FE00
C000
C000
C000
C000
C000
0000
0000
0000
ENDCHAR

STARTCHAR Sigma
ENCODING 931
SWIDTH 785 0
DWIDTH 9 0
BBX 9 15 0 -3
BITMAP
0000
0000
FF00
C000
6000
3000
1800
1800
3000
6000
C000
FF00
0000
0000
0000
ENDCHAR

STARTCHAR Tau
ENCODING 932
SWIDTH 785 0
DWIDTH 9 0
BBX 9 15 0 -3
BITMAP
0000
0000
FF00
1800
1800
1800
1800
1800
1800
1800
1800
1800
0000
0000
0000
ENDCHAR

STARTCHAR Upsilon
ENCODING 933
SWIDTH 785 0
DWIDTH 9 0
BBX 9 15 0 -3
BITMAP
0000
0000
C300
C300
6600
3C00
1800
1800
1800
1800
1800
1800
0000
0000
0000
ENDCHAR

STARTCHAR Phi
ENCODING 934
SWIDTH 785 0
DWIDTH 9 0
BBX 9 15 0 -3
BITMAP
0000
0000
1800
7E00
DB00
DB00
DB00
DB00
DB00
DB00
7E00
1800
0000
0000
0000
ENDCHAR

STARTCHAR Chi
ENCODING 935
SWIDTH 785 0
DWIDTH 9 0
BBX 9 15 0 -3
BITMAP
0000
0000
C300
C300
6600
3C00
1800
1800
3C00
6600
C300
C300
0000
0000
0000
ENDCHAR

STARTCHAR Psi
ENCODING 936
SWIDTH 785 0
DWIDTH 9 0
BBX 9 15 0 -3
BITMAP
0000
0000
DB00
DB00
DB00
DB00
DB00
DB00
7E00
1800
1800
1800
0000
0000
0000
ENDCHAR

STARTCHAR Omega
ENCODING 937
SWIDTH 785 0
DWIDTH 9 0
BBX 9 15 0 -3
BITMAP
0000
0000
3C00
6600
C300
C300
C300
C300
C300
6600
6600
E700
0000
0000
0000
ENDCHAR

STARTCHAR Iotadieresis
ENCODING 938
SWIDTH 785 0
DWIDTH 9 0
BBX 9 15 0 -3
BITMAP
0000
6600
6600
0000
7E00
1800
1800
1800
1800
1800
1800
7E00
0000
0000
0000
ENDCHAR

STARTCHAR Upsilondieresis
ENCODING 939
SWIDTH 785 0
DWIDTH 9 0
BBX 9 15 0 -3
BITMAP
0000
C300
C300
0000
C300
6600
3C00
1800
1800
1800
1800
1800
0000
0000
0000
ENDCHAR

STARTCHAR alphatonos
ENCODING 940
SWIDTH 785 0
DWIDTH 9 0
BBX 9 15 0 -3
BITMAP
0000
0600
0C00
1800
0000
7B00
C700
C300
C300
C700
CB00
7300
0000
0000
0000
ENDCHAR

STARTCHAR epsilontonos
ENCODING 941
SWIDTH 785 0
DWIDTH 9 0
BBX 9 15 0 -3
BITMAP
0000
0600
0C00
1800
0000
7E00
C300
C000
7C00
C000
C300
7E00
0000
0000
0000
ENDCHAR

STARTCHAR etatonos
ENCODING 942
SWIDTH 785 0
DWIDTH 9 0
BBX 9 15 0 -3
BITMAP
0000
0600
0C00
1800
0000
DC00
E600
C300
C300
C300
C300
C300
0300
0300
0300
ENDCHAR

STARTCHAR iotatonos
ENCODING 943
SWIDTH 785 0
DWIDTH 9 0
BBX 9 15 0 -3
BITMAP
0000
0C00
1800
3000
0000
3000
3000
3000
3000
3000
3600
1C00
0000
0000
0000
ENDCHAR

STARTCHAR upsilondieresistonos
ENCODING 944
SWIDTH 785 0
DWIDTH 9 0
BBX 9 15 0 -3
BITMAP
0000
0C00
DB00
F300
0000
C300
C300
C300
C300
C300
6600
3C00
0000
0000
0000
ENDCHAR

STARTCHAR alpha
ENCODING 945
SWIDTH 785 0
DWIDTH 9 0
BBX 9 15 0 -3
BITMAP
0000
0000
0000
0000
0000
7B00
C700
C300
C300
C700
CB00
7300
0000
0000
0000
ENDCHAR

STARTCHAR beta
ENCODING 946
SWIDTH 785 0
DWIDTH 9 0
BBX 9 15 0 -3
BITMAP
0000
0000
3C00
6600
C600
C600
FC00
C600
C300
C300
E300
DE00
C000
C000
C000
ENDCHAR

STARTCHAR gamma
ENCODING 947
SWIDTH 785 0
DWIDTH 9 0
BBX 9 15 0 -3
BITMAP
0000
0000
0000
0000
0000
C300
C300
6600
6600
3C00
3C00
1800
1800
1800
1800
ENDCHAR

STARTCHAR delta
ENCODING 948
SWIDTH 785 0
DWIDTH 9 0
BBX 9 15 0 -3
BITMAP
0000
0000
7C00
C600
6000
3C00
6600
C300
C300
C300
6600
3C00
0000
0000
0000
ENDCHAR

STARTCHAR epsilon
ENCODING 949
SWIDTH 785 0
DWIDTH 9 0
BBX 9 15 0 -3
BITMAP
0000
0000
0000
0000
0000
7E00
C300
C000
7C00
C000
C300
7E00
0000
0000
0000
ENDCHAR

STARTCHAR zeta
ENCODING 950
SWIDTH 785 0
DWIDTH 9 0
BBX 9 15 0 -3
BITMAP
0000
0000
FF00
1800
3000
6000
6000
C000
C000
C000
C000
7E00
0300
0300
0E00
ENDCHAR

STARTCHAR eta
ENCODING 951
SWIDTH 785 0
DWIDTH 9 0
BBX 9 15 0 -3
BITMAP
0000
0000
0000
0000
0000
DC00
E600
C300
C300
C300
C300
C300
0300
0300
0300
ENDCHAR

STARTCHAR theta
ENCODING 952
SWIDTH 785 0
DWIDTH 9 0
BBX 9 15 0 -3
BITMAP
0000
0000
1C00
3600
6300
6300
7F00
6300
6300
6300
3600
1C00
0000
0000
0000
ENDCHAR

STARTCHAR iota
ENCODING 953
SWIDTH 785 0
DWIDTH 9 0
BBX 9 15 0 -3
BITMAP
0000
0000
0000
0000
0000
3000
3000
3000
3000
3000
3600
1C00
0000
0000
0000
ENDCHAR

STARTCHAR kappa
ENCODING 954
SWIDTH 785 0
DWIDTH 9 0
BBX 9 15 0 -3
BITMAP
0000
0000
0000
0000
0000
6300
6600
6C00
7800
6C00
6600
6300
0000
0000
0000
ENDCHAR

STARTCHAR lambda
ENCODING 955
SWIDTH 785 0
DWIDTH 9 0
BBX 9 15 0 -3
BITMAP
0000
0000
7C00
C600
0300
3B00
6700
C300
C300
C300
C300
C300
0000
0000
0000
ENDCHAR

STARTCHAR mu
ENCODING 956
SWIDTH 785 0
DWIDTH 9 0
BBX 9 15 0 -3
BITMAP
0000
0000
0000
0000
0000
C300
C300
C300
C300
C300
E700
FB00
C000
C000
C000
ENDCHAR

STARTCHAR nu
ENCODING 957
SWIDTH 785 0
DWIDTH 9 0
BBX 9 15 0 -3
BITMAP
0000
0000
0000
0000
0000
C300
C300
6600
6600
3C00
3C00
1800
0000
0000
0000
ENDCHAR

STARTCHAR xi
ENCODING 958
SWIDTH 785 0
DWIDTH 9 0
BBX 9 15 0 -3
BITMAP
0000
0000
FF00
3000
6000
6000
3C00
6000
C000
C000
C000
7E00
0300
0300
0E00
ENDCHAR

STARTCHAR omicron
ENCODING 959
SWIDTH 785 0
DWIDTH 9 0
BBX 9 15 0 -3
BITMAP
0000
0000
0000
0000
0000
3C00
6600
C300
C300
C300
6600
3C00
0000
0000
0000
ENDCHAR

STARTCHAR pi
ENCODING 960
SWIDTH 785 0
DWIDTH 9 0
BBX 9 15 0 -3
BITMAP
0000
0000
0000
0000
0000
FF00
6600
6600
6600
6600
6600
6600
0000
0000
0000
ENDCHAR

STARTCHAR rho
ENCODING 961
SWIDTH 785 0
DWIDTH 9 0
BBX 9 15 0 -3
BITMAP
0000
0000
0000
0000
0000
3C00
6600
C300
C300
C300
E600
FC00
C000
C000
C000
ENDCHAR

STARTCHAR sigma1
ENCODING 962
SWIDTH 785 0
DWIDTH 9 0
BBX 9 15 0 -3
BITMAP
0000
0000
0000
0000
0000
7E00
C300
C000
C000
C000
C000
7E00
0300
0300
0E00
ENDCHAR

STARTCHAR sigma
ENCODING 963
SWIDTH 785 0
DWIDTH 9 0
BBX 9 15 0 -3
BITMAP
0000
0000
0000
0000
0000
3F00
6C00
C600
C300
C300
6600
3C00
0000
0000
0000
ENDCHAR

STARTCHAR tau
ENCODING 964
SWIDTH 785 0
DWIDTH 9 0
BBX 9 15 0 -3
BITMAP
0000
0000
0000
0000
0000
FF00
1800
1800
1800
1800
1B00
0E00
0000
0000
0000
ENDCHAR

STARTCHAR upsilon
ENCODING 965
SWIDTH 785 0
DWIDTH 9 0
BBX 9 15 0 -3
BITMAP
0000
0000
0000
0000
0000
C300
C300
C300
C300
C300
6600
3C00
0000
0000
0000
ENDCHAR

STARTCHAR phi
ENCODING 966
SWIDTH 785 0
DWIDTH 9 0
BBX 9 15 0 -3
BITMAP
0000
0000
0000
0000
0000
6E00
DB00
DB00
DB00
DB00
DB00
7E00
1800
1800
1800
ENDCHAR

STARTCHAR chi
ENCODING 967
SWIDTH 785 0
DWIDTH 9 0
BBX 9 15 0 -3
BITMAP
0000
0000
0000
0000
0000
C300
C300
6600
3C00
1800
1800
3C00
6600
C300
C300
ENDCHAR

STARTCHAR psi
ENCODING 968
SWIDTH 785 0
DWIDTH 9 0
BBX 9 15 0 -3
BITMAP
0000
0000
0000
0000
0000
DB00
DB00
DB00
DB00
DB00
DB00
7E00
1800
1800
1800
ENDCHAR

STARTCHAR omega
ENCODING 969
SWIDTH 785 0
DWIDTH 9 0
BBX 9 15 0 -3
BITMAP
0000
0000
0000
0000
0000
C300
DB00
DB00
DB00
DB00
FF00
6600
0000
0000
0000
ENDCHAR

STARTCHAR iotadieresis
ENCODING 970
SWIDTH 785 0
DWIDTH 9 0
BBX 9 15 0 -3
BITMAP
0000
0000
C300
C300
0000
1800
1800
1800
1800
1800
1B00
0E00
0000
0000
0000
ENDCHAR

STARTCHAR upsilondieresis
ENCODING 971
SWIDTH 785 0
DWIDTH 9 0
BBX 9 15 0 -3
BITMAP
0000
0000
C300
C300
0000
C300
C300
C300
C300
C300
6600
3C00
0000
0000
0000
ENDCHAR

STARTCHAR omicrontonos
ENCODING 972
SWIDTH 785 0
DWIDTH 9 0
BBX 9 15 0 -3
BITMAP
0000
0600
0C00
1800
0000
3C00
6600
C300
C300
C300
6600
3C00
0000
0000
0000
ENDCHAR

STARTCHAR upsilontonos
ENCODING 973
SWIDTH 785 0
DWIDTH 9 0
BBX 9 15 0 -3
BITMAP
0000
0600
0C00
1800
0000
C300
C300
C300
C300
C300
6600
3C00
0000
0000
0000
ENDCHAR

STARTCHAR omegatonos
ENCODING 974
SWIDTH 785 0
DWIDTH 9 0
BBX 9 15 0 -3
BITMAP
0000
0600
0C00
1800
0000
C300
DB00
DB00
DB00
DB00
FF00
6600
0000
0000
0000
ENDCHAR

STARTCHAR uni03D0
ENCODING 976
SWIDTH 785 0
DWIDTH 9 0
BBX 9 15 0 -3
BITMAP
0000
0000
3C00
6600
C600
CC00
FC00
C600
C300
C300
6600
3C00
0000
0000
0000
ENDCHAR

STARTCHAR theta1
ENCODING 977
SWIDTH 785 0
DWIDTH 9 0
BBX 9 15 0 -3
BITMAP
0000
0000
3E00
6300
6300
3F80
0300
C300
6300
6300
6300
3E00
0000
0000
0000
ENDCHAR

STARTCHAR Upsilon1
ENCODING 978
SWIDTH 785 0
DWIDTH 9 0
BBX 9 15 0 -3
BITMAP
0000
0000
6600
BD00
1800
1800
1800
1800
1800
1800
1800
1800
0000
0000
0000
ENDCHAR

STARTCHAR uni03D3
ENCODING 979
SWIDTH 785 0
DWIDTH 9 0
BBX 9 15 0 -3
BITMAP
0000
0000
5300
DE80
8C00
0C00
0C00
0C00
0C00
0C00
0C00
0C00
0000
0000
0000
ENDCHAR

STARTCHAR uni03D4
ENCODING 980
SWIDTH 785 0
DWIDTH 9 0
BBX 9 15 0 -3
BITMAP
0000
6600
6600
0000
6600
BD00
1800
1800
1800
1800
1800
1800
0000
0000
0000
ENDCHAR

STARTCHAR phi1
ENCODING 981
SWIDTH 785 0
DWIDTH 9 0
BBX 9 15 0 -3
BITMAP
0000
0000
1800
1800
1800
7E00
DB00
DB00
DB00
DB00
DB00
7E00
1800
1800
1800
ENDCHAR

STARTCHAR omega1
ENCODING 982
SWIDTH 785 0
DWIDTH 9 0
BBX 9 15 0 -3
BITMAP
0000
0000
0000
0000
0000
FF00
C300
DB00
DB00
DB00
FF00
6600
0000
0000
0000
ENDCHAR

STARTCHAR uni03D7
ENCODING 983
SWIDTH 785 0
DWIDTH 9 0
BBX 9 15 0 -3
BITMAP
0000
0600
0C00
1800
0000
C300
6600
6C00
3C00
7C00
E700
C300
0300
0600
3C00
ENDCHAR

STARTCHAR uni03DA
ENCODING 986
SWIDTH 785 0
DWIDTH 9 0
BBX 9 15 0 -3
BITMAP
0000
0000
1E00
3300
6000
C000
C000
C000
C000
6000
3E00
0300
0300
0E00
0000
ENDCHAR

STARTCHAR uni03DB
ENCODING 987
SWIDTH 785 0
DWIDTH 9 0
BBX 9 15 0 -3
BITMAP
0000
0000
0000
0000
0300
3E00
6000
6000
6000
6000
6000
3E00
0300
0300
0E00
ENDCHAR

STARTCHAR uni03DC
ENCODING 988
SWIDTH 785 0
DWIDTH 9 0
BBX 9 15 0 -3
BITMAP
0000
0000
FF00
C000
C000
C000
FC00
C000
C000
C000
C000
C000
0000
0000
0000
ENDCHAR

STARTCHAR uni03DD
ENCODING 989
SWIDTH 785 0
DWIDTH 9 0
BBX 9 15 0 -3
BITMAP
0000
0000
0000
0000
0000
7E00
6000
6000
6000
7C00
6000
6000
6000
6000
6000
ENDCHAR

STARTCHAR uni03DE
ENCODING 990
SWIDTH 785 0
DWIDTH 9 0
BBX 9 15 0 -3
BITMAP
0000
0000
C000
6000
6300
6700
6F00
7B00
7300
6300
0300
0180
0000
0000
0000
ENDCHAR

STARTCHAR uni03DF
ENCODING 991
SWIDTH 785 0
DWIDTH 9 0
BBX 9 15 0 -3
BITMAP
0000
0000
3000
3000
6000
6000
6000
C000
FF00
0300
0600
0600
0600
0C00
0C00
ENDCHAR

STARTCHAR uni03E0
ENCODING 992
SWIDTH 785 0
DWIDTH 9 0
BBX 9 15 0 -3
BITMAP
0000
0000
1800
1800
3C00
3C00
6600
6600
6E00
CF00
DB00
DB00
0000
0000
0000
ENDCHAR

STARTCHAR uni03E1
ENCODING 993
SWIDTH 785 0
DWIDTH 9 0
BBX 9 15 0 -3
BITMAP
0000
0000
E000
3000
1800
1C00
3600
6600
CF00
1B00
3300
2300
0300
0300
0300
ENDCHAR

STARTCHAR uni03F0
ENCODING 1008
SWIDTH 785 0
DWIDTH 9 0
BBX 9 15 0 -3
BITMAP
0000
0000
0000
0000
0000
C300
6600
6C00
3C00
7C00
E700
C300
0000
0000
0000
ENDCHAR

STARTCHAR uni03F1
ENCODING 1009
SWIDTH 785 0
DWIDTH 9 0
BBX 9 15 0 -3
BITMAP
0000
0000
0000
0000
0000
3C00
6600
C300
C300
C300
E600
FC00
C000
6000
3E00
ENDCHAR

STARTCHAR uni03F2
ENCODING 1010
SWIDTH 785 0
DWIDTH 9 0
BBX 9 15 0 -3
BITMAP
0000
0000
0000
0000
0000
3E00
6100
C000
C000
C000
6100
3E00
0000
0000
0000
ENDCHAR

STARTCHAR uni03F3
ENCODING 1011
SWIDTH 785 0
DWIDTH 9 0
BBX 9 15 0 -3
BITMAP
0000
0000
0300
0300
0000
0F00
0300
0300
0300
0300
0300
6300
6300
6300
3E00
ENDCHAR

STARTCHAR uni03F4
ENCODING 1012
SWIDTH 785 0
DWIDTH 9 0
BBX 9 15 0 -3
BITMAP
0000
0000
3C00
6600
C300
C300
FF00
C300
C300
C300
6600
3C00
0000
0000
0000
ENDCHAR

STARTCHAR uni03F5
ENCODING 1013
SWIDTH 785 0
DWIDTH 9 0
BBX 9 15 0 -3
BITMAP
0000
0000
0000
0000
0000
3F00
6000
6000
7E00
6000
6000
3F00
0000
0000
0000
ENDCHAR

STARTCHAR uni0400
ENCODING 1024
SWIDTH 785 0
DWIDTH 9 0
BBX 9 15 0 -3
BITMAP
0000
1800
0C00
0000
7F00
6000
6000
7C00
6000
6000
6000
7F00
0000
0000
0000
ENDCHAR

STARTCHAR afii10023
ENCODING 1025
SWIDTH 785 0
DWIDTH 9 0
BBX 9 15 0 -3
BITMAP
0000
3300
3300
0000
7F00
6000
6000
7C00
6000
6000
6000
7F00
0000
0000
0000
ENDCHAR

STARTCHAR afii10051
ENCODING 1026
SWIDTH 785 0
DWIDTH 9 0
BBX 9 15 0 -3
BITMAP
0000
0000
FE00
3000
3000
3000
3E00
3300
3300
3300
3300
3300
0300
0600
0000
ENDCHAR

STARTCHAR afii10052
ENCODING 1027
SWIDTH 785 0
DWIDTH 9 0
BBX 9 15 0 -3
BITMAP
0000
0C00
1800
0000
7F00
6000
6000
6000
6000
6000
6000
6000
0000
0000
0000
ENDCHAR

STARTCHAR afii10053
ENCODING 1028
SWIDTH 785 0
DWIDTH 9 0
BBX 9 15 0 -3
BITMAP
0000
0000
0000
1E00
2300
6000
6000
7800
6000
6000
2300
1E00
0000
0000
0000
ENDCHAR

STARTCHAR afii10054
ENCODING 1029
SWIDTH 785 0
DWIDTH 9 0
BBX 9 15 0 -3
BITMAP
0000
0000
3E00
6300
6300
6000
3800
0600
0300
6300
6300
3E00
0000
0000
0000
ENDCHAR

STARTCHAR afii10055
ENCODING 1030
SWIDTH 785 0
DWIDTH 9 0
BBX 9 15 0 -3
BITMAP
0000
0000
7E00
1800
1800
1800
1800
1800
1800
1800
1800
7E00
0000
0000
0000
ENDCHAR

STARTCHAR afii10056
ENCODING 1031
SWIDTH 785 0
DWIDTH 9 0
BBX 9 15 0 -3
BITMAP
0000
6600
6600
0000
7E00
1800
1800
1800
1800
1800
1800
7E00
0000
0000
0000
ENDCHAR

STARTCHAR afii10057
ENCODING 1032
SWIDTH 785 0
DWIDTH 9 0
BBX 9 15 0 -3
BITMAP
0000
0000
0F00
0600
0600
0600
0600
0600
0600
0600
4600
3C00
0000
0000
0000
ENDCHAR

STARTCHAR afii10058
ENCODING 1033
SWIDTH 785 0
DWIDTH 9 0
BBX 9 15 0 -3
BITMAP
0000
0000
7C00
6C00
6C00
6C00
6F00
6D80
6D80
6D80
6D80
EF00
0000
0000
0000
ENDCHAR

STARTCHAR afii10059
ENCODING 1034
SWIDTH 785 0
DWIDTH 9 0
BBX 9 15 0 -3
BITMAP
0000
0000
D800
D800
D800
D800
FE00
DB00
DB00
DB00
DB00
DE00
0000
0000
0000
ENDCHAR

STARTCHAR afii10060
ENCODING 1035
SWIDTH 785 0
DWIDTH 9 0
BBX 9 15 0 -3
BITMAP
0000
0000
FE00
3000
3000
3000
3E00
3300
3300
3300
3300
3300
0000
0000
0000
ENDCHAR

STARTCHAR afii10061
ENCODING 1036
SWIDTH 785 0
DWIDTH 9 0
BBX 9 15 0 -3
BITMAP
0400
0800
6300
6600
6C00
7800
7000
7000
7800
6C00
6600
6300
0000
0000
0000
ENDCHAR

STARTCHAR uni040D
ENCODING 1037
SWIDTH 785 0
DWIDTH 9 0
BBX 9 15 0 -3
BITMAP
0000
1800
0C00
0000
6300
6300
6700
6B00
7300
6300
6300
6300
0000
0000
0000
ENDCHAR

STARTCHAR afii10062
ENCODING 1038
SWIDTH 785 0
DWIDTH 9 0
BBX 9 15 0 -3
BITMAP
0000
2200
1C00
0000
6300
6300
6300
6300
3F00
0300
4300
3E00
0000
0000
0000
ENDCHAR

STARTCHAR afii10145
ENCODING 1039
SWIDTH 785 0
DWIDTH 9 0
BBX 9 15 0 -3
BITMAP
0000
0000
6300
6300
6300
6300
6300
6300
6300
6300
6300
7F00
0800
0800
0000
ENDCHAR

STARTCHAR afii10017
ENCODING 1040
SWIDTH 785 0
DWIDTH 9 0
BBX 9 15 0 -3
BITMAP
0000
0000
1800
3C00
6600
C300
C300
C300
FF00
C300
C300
C300
0000
0000
0000
ENDCHAR

STARTCHAR afii10018
ENCODING 1041
SWIDTH 785 0
DWIDTH 9 0
BBX 9 15 0 -3
BITMAP
0000
0000
7E00
6000
6000
6000
7E00
6300
6300
6300
6300
7E00
0000
0000
0000
ENDCHAR

STARTCHAR afii10019
ENCODING 1042
SWIDTH 785 0
DWIDTH 9 0
BBX 9 15 0 -3
BITMAP
0000
0000
FC00
C600
C300
C600
FC00
C600
C300
C300
C600
FC00
0000
0000
0000
ENDCHAR

STARTCHAR afii10020
ENCODING 1043
SWIDTH 785 0
DWIDTH 9 0
BBX 9 15 0 -3
BITMAP
0000
0000
7F00
6000
6000
6000
6000
6000
6000
6000
6000
6000
0000
0000
0000
ENDCHAR

STARTCHAR afii10021
ENCODING 1044
SWIDTH 785 0
DWIDTH 9 0
BBX 9 15 0 -3
BITMAP
0000
0000
1F00
1B00
1B00
1B00
3300
3300
3300
6300
6300
7F00
4100
0000
0000
ENDCHAR

STARTCHAR afii10022
ENCODING 1045
SWIDTH 785 0
DWIDTH 9 0
BBX 9 15 0 -3
BITMAP
0000
0000
7F00
6000
6000
6000
7C00
6000
6000
6000
6000
7F00
0000
0000
0000
ENDCHAR

STARTCHAR afii10024
ENCODING 1046
SWIDTH 785 0
DWIDTH 9 0
BBX 9 15 0 -3
BITMAP
0000
0000
6B00
6B00
3E00
3E00
1C00
3E00
3E00
6B00
6B00
6B00
0000
0000
0000
ENDCHAR

STARTCHAR afii10025
ENCODING 1047
SWIDTH 785 0
DWIDTH 9 0
BBX 9 15 0 -3
BITMAP
0000
0000
3E00
4300
0300
0300
0E00
0300
0300
0300
4300
3E00
0000
0000
0000
ENDCHAR

STARTCHAR afii10026
ENCODING 1048
SWIDTH 785 0
DWIDTH 9 0
BBX 9 15 0 -3
BITMAP
0000
0000
6300
6300
6300
6700
6B00
7300
6300
6300
6300
6300
0000
0000
0000
ENDCHAR

STARTCHAR afii10027
ENCODING 1049
SWIDTH 785 0
DWIDTH 9 0
BBX 9 15 0 -3
BITMAP
0000
2200
1C00
0000
6300
6300
6700
6B00
7300
6300
6300
6300
0000
0000
0000
ENDCHAR

STARTCHAR afii10028
ENCODING 1050
SWIDTH 785 0
DWIDTH 9 0
BBX 9 15 0 -3
BITMAP
0000
0000
6300
6600
6C00
7800
7000
7000
7800
6C00
6600
6300
0000
0000
0000
ENDCHAR

STARTCHAR afii10029
ENCODING 1051
SWIDTH 785 0
DWIDTH 9 0
BBX 9 15 0 -3
BITMAP
0000
0000
1F00
1B00
1B00
1B00
3300
3300
3300
3300
7300
6300
0000
0000
0000
ENDCHAR

STARTCHAR afii10030
ENCODING 1052
SWIDTH 785 0
DWIDTH 9 0
BBX 9 15 0 -3
BITMAP
0000
0000
6300
6300
7700
7700
7F00
6B00
6B00
6300
6300
6300
0000
0000
0000
ENDCHAR

STARTCHAR afii10031
ENCODING 1053
SWIDTH 785 0
DWIDTH 9 0
BBX 9 15 0 -3
BITMAP
0000
0000
6300
6300
6300
6300
7F00
6300
6300
6300
6300
6300
0000
0000
0000
ENDCHAR

STARTCHAR afii10032
ENCODING 1054
SWIDTH 785 0
DWIDTH 9 0
BBX 9 15 0 -3
BITMAP
0000
0000
3E00
6300
6300
6300
6300
6300
6300
6300
6300
3E00
0000
0000
0000
ENDCHAR

STARTCHAR afii10033
ENCODING 1055
SWIDTH 785 0
DWIDTH 9 0
BBX 9 15 0 -3
BITMAP
0000
0000
7F00
6300
6300
6300
6300
6300
6300
6300
6300
6300
0000
0000
0000
ENDCHAR

STARTCHAR afii10034
ENCODING 1056
SWIDTH 785 0
DWIDTH 9 0
BBX 9 15 0 -3
BITMAP
0000
0000
7E00
6300
6300
6300
7E00
6000
6000
6000
6000
6000
0000
0000
0000
ENDCHAR

STARTCHAR afii10035
ENCODING 1057
SWIDTH 785 0
DWIDTH 9 0
BBX 9 15 0 -3
BITMAP
0000
0000
3E00
6300
6000
6000
6000
6000
6000
6000
6300
3E00
0000
0000
0000
ENDCHAR

STARTCHAR afii10036
ENCODING 1058
SWIDTH 785 0
DWIDTH 9 0
BBX 9 15 0 -3
BITMAP
0000
0000
FF00
1800
1800
1800
1800
1800
1800
1800
1800
1800
0000
0000
0000
ENDCHAR

STARTCHAR afii10037
ENCODING 1059
SWIDTH 785 0
DWIDTH 9 0
BBX 9 15 0 -3
BITMAP
0000
0000
6300
6300
6300
6300
6300
6300
3F00
0300
6300
3E00
0000
0000
0000
ENDCHAR

STARTCHAR afii10038
ENCODING 1060
SWIDTH 785 0
DWIDTH 9 0
BBX 9 15 0 -3
BITMAP
0000
0000
0800
3E00
6B00
6B00
6B00
6B00
6B00
6B00
3E00
0800
0000
0000
0000
ENDCHAR

STARTCHAR afii10039
ENCODING 1061
SWIDTH 785 0
DWIDTH 9 0
BBX 9 15 0 -3
BITMAP
0000
0000
C300
C300
6600
3C00
1800
1800
3C00
6600
C300
C300
0000
0000
0000
ENDCHAR

STARTCHAR afii10040
ENCODING 1062
SWIDTH 785 0
DWIDTH 9 0
BBX 9 15 0 -3
BITMAP
0000
0000
6300
6300
6300
6300
6300
6300
6300
6300
6300
7F00
0300
0300
0000
ENDCHAR

STARTCHAR afii10041
ENCODING 1063
SWIDTH 785 0
DWIDTH 9 0
BBX 9 15 0 -3
BITMAP
0000
0000
6300
6300
6300
6300
6300
3F00
0300
0300
0300
0300
0000
0000
0000
ENDCHAR

STARTCHAR afii10042
ENCODING 1064
SWIDTH 785 0
DWIDTH 9 0
BBX 9 15 0 -3
BITMAP
0000
0000
DB00
DB00
DB00
DB00
DB00
DB00
DB00
DB00
DB00
FF00
0000
0000
0000
ENDCHAR

STARTCHAR afii10043
ENCODING 1065
SWIDTH 785 0
DWIDTH 9 0
BBX 9 15 0 -3
BITMAP
0000
0000
DB00
DB00
DB00
DB00
DB00
DB00
DB00
DB00
DB00
FF00
0300
0300
0000
ENDCHAR

STARTCHAR afii10044
ENCODING 1066
SWIDTH 785 0
DWIDTH 9 0
BBX 9 15 0 -3
BITMAP
0000
0000
F000
3000
3000
3000
3E00
3300
3300
3300
3300
3E00
0000
0000
0000
ENDCHAR

STARTCHAR afii10045
ENCODING 1067
SWIDTH 785 0
DWIDTH 9 0
BBX 9 15 0 -3
BITMAP
0000
0000
C300
C300
C300
C300
F300
DB00
DB00
DB00
DB00
F300
0000
0000
0000
ENDCHAR

STARTCHAR afii10046
ENCODING 1068
SWIDTH 785 0
DWIDTH 9 0
BBX 9 15 0 -3
BITMAP
0000
0000
6000
6000
6000
6000
7E00
6300
6300
6300
6300
7E00
0000
0000
0000
ENDCHAR

STARTCHAR afii10047
ENCODING 1069
SWIDTH 785 0
DWIDTH 9 0
BBX 9 15 0 -3
BITMAP
0000
0000
0000
3C00
4600
0300
0300
0F00
0300
0300
4600
3C00
0000
0000
0000
ENDCHAR

STARTCHAR afii10048
ENCODING 1070
SWIDTH 785 0
DWIDTH 9 0
BBX 9 15 0 -3
BITMAP
0000
0000
CE00
DB00
DB00
DB00
FB00
DB00
DB00
DB00
DB00
CE00
0000
0000
0000
ENDCHAR

STARTCHAR afii10049
ENCODING 1071
SWIDTH 785 0
DWIDTH 9 0
BBX 9 15 0 -3
BITMAP
0000
0000
3F00
6300
6300
6300
3F00
0F00
1B00
3300
6300
6300
0000
0000
0000
ENDCHAR

STARTCHAR afii10065
ENCODING 1072
SWIDTH 785 0
DWIDTH 9 0
BBX 9 15 0 -3
BITMAP
0000
0000
0000
0000
0000
3E00
0300
0300
3F00
6300
6300
3F00
0000
0000
0000
ENDCHAR

STARTCHAR afii10066
ENCODING 1073
SWIDTH 785 0
DWIDTH 9 0
BBX 9 15 0 -3
BITMAP
0000
0000
0200
3C00
6000
7E00
6300
6300
6300
6300
6300
3E00
0000
0000
0000
ENDCHAR

STARTCHAR afii10067
ENCODING 1074
SWIDTH 785 0
DWIDTH 9 0
BBX 9 15 0 -3
BITMAP
0000
0000
0000
0000
0000
7E00
6300
6300
7E00
6300
6300
7E00
0000
0000
0000
ENDCHAR

STARTCHAR afii10068
ENCODING 1075
SWIDTH 785 0
DWIDTH 9 0
BBX 9 15 0 -3
BITMAP
0000
0000
0000
0000
0000
7F00
6000
6000
6000
6000
6000
6000
0000
0000
0000
ENDCHAR

STARTCHAR afii10069
ENCODING 1076
SWIDTH 785 0
DWIDTH 9 0
BBX 9 15 0 -3
BITMAP
0000
0000
0000
0000
0000
1E00
1600
3600
3600
6600
6600
7F00
4100
0000
0000
ENDCHAR

STARTCHAR afii10070
ENCODING 1077
SWIDTH 785 0
DWIDTH 9 0
BBX 9 15 0 -3
BITMAP
0000
0000
0000
0000
0000
3C00
6600
C300
FF00
C000
6300
3E00
0000
0000
0000
ENDCHAR

STARTCHAR afii10072
ENCODING 1078
SWIDTH 785 0
DWIDTH 9 0
BBX 9 15 0 -3
BITMAP
0000
0000
0000
0000
0000
DB00
DB00
7E00
3C00
7E00
DB00
DB00
0000
0000
0000
ENDCHAR

STARTCHAR afii10073
ENCODING 1079
SWIDTH 785 0
DWIDTH 9 0
BBX 9 15 0 -3
BITMAP
0000
0000
0000
0000
0000
3E00
6300
0300
0E00
0300
6300
3E00
0000
0000
0000
ENDCHAR

STARTCHAR afii10074
ENCODING 1080
SWIDTH 785 0
DWIDTH 9 0
BBX 9 15 0 -3
BITMAP
0000
0000
0000
0000
0000
6300
6300
6700
6B00
7300
6300
6300
0000
0000
0000
ENDCHAR

STARTCHAR afii10075
ENCODING 1081
SWIDTH 785 0
DWIDTH 9 0
BBX 9 15 0 -3
BITMAP
0000
0000
2200
1C00
0000
6300
6300
6700
6B00
7300
6300
6300
0000
0000
0000
ENDCHAR

STARTCHAR afii10076
ENCODING 1082
SWIDTH 785 0
DWIDTH 9 0
BBX 9 15 0 -3
BITMAP
0000
0000
0000
0000
0000
6300
6600
6C00
7800
6C00
6600
6300
0000
0000
0000
ENDCHAR

STARTCHAR afii10077
ENCODING 1083
SWIDTH 785 0
DWIDTH 9 0
BBX 9 15 0 -3
BITMAP
0000
0000
0000
0000
0000
0F00
1B00
1B00
3300
3300
3300
6300
0000
0000
0000
ENDCHAR

STARTCHAR afii10078
ENCODING 1084
SWIDTH 785 0
DWIDTH 9 0
BBX 9 15 0 -3
BITMAP
0000
0000
0000
0000
0000
6300
7700
7F00
6B00
6300
6300
6300
0000
0000
0000
ENDCHAR

STARTCHAR afii10079
ENCODING 1085
SWIDTH 785 0
DWIDTH 9 0
BBX 9 15 0 -3
BITMAP
0000
0000
0000
0000
0000
6300
6300
6300
7F00
6300
6300
6300
0000
0000
0000
ENDCHAR

STARTCHAR afii10080
ENCODING 1086
SWIDTH 785 0
DWIDTH 9 0
BBX 9 15 0 -3
BITMAP
0000
0000
0000
0000
0000
3E00
6300
6300
6300
6300
6300
3E00
0000
0000
0000
ENDCHAR

STARTCHAR afii10081
ENCODING 1087
SWIDTH 785 0
DWIDTH 9 0
BBX 9 15 0 -3
BITMAP
0000
0000
0000
0000
0000
7F00
6300
6300
6300
6300
6300
6300
0000
0000
0000
ENDCHAR

STARTCHAR afii10082
ENCODING 1088
SWIDTH 785 0
DWIDTH 9 0
BBX 9 15 0 -3
BITMAP
0000
0000
0000
0000
0000
7E00
6300
6300
6300
6300
6300
7E00
6000
6000
6000
ENDCHAR

STARTCHAR afii10083
ENCODING 1089
SWIDTH 785 0
DWIDTH 9 0
BBX 9 15 0 -3
BITMAP
0000
0000
0000
0000
0000
3E00
6300
6000
6000
6000
6300
3E00
0000
0000
0000
ENDCHAR

STARTCHAR afii10084
ENCODING 1090
SWIDTH 785 0
DWIDTH 9 0
BBX 9 15 0 -3
BITMAP
0000
0000
0000
0000
0000
FF00
1800
1800
1800
1800
1800
1800
0000
0000
0000
ENDCHAR

STARTCHAR afii10085
ENCODING 1091
SWIDTH 785 0
DWIDTH 9 0
BBX 9 15 0 -3
BITMAP
0000
0000
0000
0000
0000
6300
6300
6300
6300
6300
6300
3F00
0300
4300
3E00
ENDCHAR

STARTCHAR afii10086
ENCODING 1092
SWIDTH 785 0
DWIDTH 9 0
BBX 9 15 0 -3
BITMAP
0000
0000
0000
0000
1800
7E00
DB00
DB00
DB00
DB00
DB00
7E00
1800
1800
1800
ENDCHAR

STARTCHAR afii10087
ENCODING 1093
SWIDTH 785 0
DWIDTH 9 0
BBX 9 15 0 -3
BITMAP
0000
0000
0000
0000
0000
C300
6600
3C00
1800
3C00
6600
C300
0000
0000
0000
ENDCHAR

STARTCHAR afii10088
ENCODING 1094
SWIDTH 785 0
DWIDTH 9 0
BBX 9 15 0 -3
BITMAP
0000
0000
0000
0000
0000
6300
6300
6300
6300
6300
6300
7F00
0300
0300
0000
ENDCHAR

STARTCHAR afii10089
ENCODING 1095
SWIDTH 785 0
DWIDTH 9 0
BBX 9 15 0 -3
BITMAP
0000
0000
0000
0000
0000
6300
6300
6300
3F00
0300
0300
0300
0000
0000
0000
ENDCHAR

STARTCHAR afii10090
ENCODING 1096
SWIDTH 785 0
DWIDTH 9 0
BBX 9 15 0 -3
BITMAP
0000
0000
0000
0000
0000
DB00
DB00
DB00
DB00
DB00
DB00
FF00
0000
0000
0000
ENDCHAR

STARTCHAR afii10091
ENCODING 1097
SWIDTH 785 0
DWIDTH 9 0
BBX 9 15 0 -3
BITMAP
0000
0000
0000
0000
0000
DB00
DB00
DB00
DB00
DB00
DB00
FF00
0300
0300
0000
ENDCHAR

STARTCHAR afii10092
ENCODING 1098
SWIDTH 785 0
DWIDTH 9 0
BBX 9 15 0 -3
BITMAP
0000
0000
0000
0000
0000
F000
3000
3000
3E00
3300
3300
3E00
0000
0000
0000
ENDCHAR

STARTCHAR afii10093
ENCODING 1099
SWIDTH 785 0
DWIDTH 9 0
BBX 9 15 0 -3
BITMAP
0000
0000
0000
0000
0000
C300
C300
C300
F300
DB00
DB00
F300
0000
0000
0000
ENDCHAR

STARTCHAR afii10094
ENCODING 1100
SWIDTH 785 0
DWIDTH 9 0
BBX 9 15 0 -3
BITMAP
0000
0000
0000
0000
0000
6000
6000
6000
7E00
6300
6300
7E00
0000
0000
0000
ENDCHAR

STARTCHAR afii10095
ENCODING 1101
SWIDTH 785 0
DWIDTH 9 0
BBX 9 15 0 -3
BITMAP
0000
0000
0000
0000
0000
3E00
6300
0300
0F00
0300
6300
3E00
0000
0000
0000
ENDCHAR

STARTCHAR afii10096
ENCODING 1102
SWIDTH 785 0
DWIDTH 9 0
BBX 9 15 0 -3
BITMAP
0000
0000
0000
0000
0000
CE00
DB00
DB00
FB00
DB00
DB00
CE00
0000
0000
0000
ENDCHAR

STARTCHAR afii10097
ENCODING 1103
SWIDTH 785 0
DWIDTH 9 0
BBX 9 15 0 -3
BITMAP
0000
0000
0000
0000
0000
3F00
6300
6300
3F00
1B00
3300
6300
0000
0000
0000
ENDCHAR

STARTCHAR uni0450
ENCODING 1104
SWIDTH 785 0
DWIDTH 9 0
BBX 9 15 0 -3
BITMAP
0000
0000
1800
0C00
0000
3E00
6300
6300
7F00
6000
6300
3E00
0000
0000
0000
ENDCHAR

STARTCHAR afii10071
ENCODING 1105
SWIDTH 785 0
DWIDTH 9 0
BBX 9 15 0 -3
BITMAP
0000
0000
3300
3300
0000
3E00
6300
6300
7F00
6000
6300
3E00
0000
0000
0000
ENDCHAR

STARTCHAR afii10099
ENCODING 1106
SWIDTH 785 0
DWIDTH 9 0
BBX 9 15 0 -3
BITMAP
0000
0000
3000
7C00
3000
3E00
3300
3300
3300
3300
3300
3300
0300
0E00
0000
ENDCHAR

STARTCHAR afii10100
ENCODING 1107
SWIDTH 785 0
DWIDTH 9 0
BBX 9 15 0 -3
BITMAP
0000
0000
0C00
1800
0000
7F00
6000
6000
6000
6000
6000
6000
0000
0000
0000
ENDCHAR

STARTCHAR afii10101
ENCODING 1108
SWIDTH 785 0
DWIDTH 9 0
BBX 9 15 0 -3
BITMAP
0000
0000
0000
0000
0000
3E00
6100
6000
7800
6000
6100
3E00
0000
0000
0000
ENDCHAR

STARTCHAR afii10102
ENCODING 1109
SWIDTH 785 0
DWIDTH 9 0
BBX 9 15 0 -3
BITMAP
0000
0000
0000
0000
0000
3E00
6100
6000
3E00
0300
4300
3E00
0000
0000
0000
ENDCHAR

STARTCHAR afii10103
ENCODING 1110
SWIDTH 785 0
DWIDTH 9 0
BBX 9 15 0 -3
BITMAP
0000
0000
1800
1800
0000
3800
1800
1800
1800
1800
1800
7E00
0000
0000
0000
ENDCHAR

STARTCHAR afii10104
ENCODING 1111
SWIDTH 785 0
DWIDTH 9 0
BBX 9 15 0 -3
BITMAP
0000
0000
6600
6600
0000
3800
1800
1800
1800
1800
1800
7E00
0000
0000
0000
ENDCHAR

STARTCHAR afii10105
ENCODING 1112
SWIDTH 785 0
DWIDTH 9 0
BBX 9 15 0 -3
BITMAP
0000
0000
0600
0600
0000
0E00
0600
0600
0600
0600
0600
6600
6600
6600
3C00
ENDCHAR

STARTCHAR afii10106
ENCODING 1113
SWIDTH 785 0
DWIDTH 9 0
BBX 9 15 0 -3
BITMAP
0000
0000
0000
0000
0000
3C00
6C00
6C00
6F00
6D80
ED80
CF00
0000
0000
0000
ENDCHAR

STARTCHAR afii10107
ENCODING 1114
SWIDTH 785 0
DWIDTH 9 0
BBX 9 15 0 -3
BITMAP
0000
0000
0000
0000
0000
D800
D800
D800
FE00
DB00
DB00
DE00
0000
0000
0000
ENDCHAR

STARTCHAR afii10108
ENCODING 1115
SWIDTH 785 0
DWIDTH 9 0
BBX 9 15 0 -3
BITMAP
0000
0000
3000
7C00
3000
3E00
3300
3300
3300
3300
3300
3300
0000
0000
0000
ENDCHAR

STARTCHAR afii10109
ENCODING 1116
SWIDTH 785 0
DWIDTH 9 0
BBX 9 15 0 -3
BITMAP
0000
0000
0C00
1800
0000
6300
6600
6C00
7800
6C00
6600
6300
0000
0000
0000
ENDCHAR

STARTCHAR uni045D
ENCODING 1117
SWIDTH 785 0
DWIDTH 9 0
BBX 9 15 0 -3
BITMAP
0000
0000
1800
0C00
0000
6300
6300
6700
6B00
7300
6300
6300
0000
0000
0000
ENDCHAR

STARTCHAR afii10110
ENCODING 1118
SWIDTH 785 0
DWIDTH 9 0
BBX 9 15 0 -3
BITMAP
0000
0000
2200
1C00
0000
6300
6300
6300
6300
6300
6300
3F00
0300
6300
3E00
ENDCHAR

STARTCHAR afii10193
ENCODING 1119
SWIDTH 785 0
DWIDTH 9 0
BBX 9 15 0 -3
BITMAP
0000
0000
0000
0000
0000
6300
6300
6300
6300
6300
6300
7F00
0800
0800
0000
ENDCHAR

STARTCHAR afii10146
ENCODING 1122
SWIDTH 785 0
DWIDTH 9 0
BBX 9 15 0 -3
BITMAP
0000
3000
3000
FC00
3000
3000
3E00
3300
3300
3300
3300
3E00
0000
0000
0000
ENDCHAR

STARTCHAR afii10194
ENCODING 1123
SWIDTH 785 0
DWIDTH 9 0
BBX 9 15 0 -3
BITMAP
0000
0000
3000
3000
3000
FC00
3000
3000
3E00
3300
3300
3E00
0000
0000
0000
ENDCHAR

STARTCHAR uni0470
ENCODING 1136
SWIDTH 785 0
DWIDTH 9 0
BBX 9 15 0 -3
BITMAP
0000
0000
DB00
DB00
DB00
DB00
DB00
DB00
7E00
1800
1800
1800
0000
0000
0000
ENDCHAR

STARTCHAR uni0471
ENCODING 1137
SWIDTH 785 0
DWIDTH 9 0
BBX 9 15 0 -3
BITMAP
0000
0000
0000
0000
0000
DB00
DB00
DB00
DB00
DB00
DB00
7E00
1800
1800
1800
ENDCHAR

STARTCHAR afii10147
ENCODING 1138
SWIDTH 785 0
DWIDTH 9 0
BBX 9 15 0 -3
BITMAP
0000
0000
3C00
6600
C300
C300
FF00
C300
C300
C300
6600
3C00
0000
0000
0000
ENDCHAR

STARTCHAR afii10195
ENCODING 1139
SWIDTH 785 0
DWIDTH 9 0
BBX 9 15 0 -3
BITMAP
0000
0000
0000
0000
0000
3E00
6300
6300
7F00
6300
6300
3E00
0000
0000
0000
ENDCHAR

STARTCHAR afii10148
ENCODING 1140
SWIDTH 785 0
DWIDTH 9 0
BBX 9 15 0 -3
BITMAP
0000
0000
C300
C600
C600
CC00
6C00
6C00
6C00
2C00
3800
1000
0000
0000
0000
ENDCHAR

STARTCHAR afii10196
ENCODING 1141
SWIDTH 785 0
DWIDTH 9 0
BBX 9 15 0 -3
BITMAP
0000
0000
0000
0000
0000
6100
6300
6600
3600
3600
3C00
1800
0000
0000
0000
ENDCHAR

STARTCHAR uni0476
ENCODING 1142
SWIDTH 785 0
DWIDTH 9 0
BBX 9 15 0 -3
BITMAP
0000
4800
2400
0000
C300
C600
C600
6C00
6C00
6C00
3800
1000
0000
0000
0000
ENDCHAR

STARTCHAR uni0477
ENCODING 1143
SWIDTH 785 0
DWIDTH 9 0
BBX 9 15 0 -3
BITMAP
0000
0000
2400
1200
0000
6100
6300
6600
3600
3600
3C00
1800
0000
0000
0000
ENDCHAR

STARTCHAR afii10050
ENCODING 1168
SWIDTH 785 0
DWIDTH 9 0
BBX 9 15 0 -3
BITMAP
0000
0300
7F00
6000
6000
6000
6000
6000
6000
6000
6000
6000
0000
0000
0000
ENDCHAR

STARTCHAR afii10098
ENCODING 1169
SWIDTH 785 0
DWIDTH 9 0
BBX 9 15 0 -3
BITMAP
0000
0000
0000
0000
0300
7F00
6000
6000
6000
6000
6000
6000
0000
0000
0000
ENDCHAR

STARTCHAR afii57664
ENCODING 1488
SWIDTH 785 0
DWIDTH 9 0
BBX 9 15 0 -3
BITMAP
0000
0000
0000
C400
E700
7700
3E00
FE00
CE00
6700
7300
F300
0000
0000
0000
ENDCHAR

STARTCHAR afii57665
ENCODING 1489
SWIDTH 785 0
DWIDTH 9 0
BBX 9 15 0 -3
BITMAP
0000
0000
0000
0000
8000
FC00
7E00
0600
0600
0600
7F00
FE00
0000
0000
0000
ENDCHAR

STARTCHAR afii57666
ENCODING 1490
SWIDTH 785 0
DWIDTH 9 0
BBX 9 15 0 -3
BITMAP
0000
0000
0000
0000
6000
3800
1C00
0C00
0C00
0E00
1F00
3B00
0000
0000
0000
ENDCHAR

STARTCHAR afii57667
ENCODING 1491
SWIDTH 785 0
DWIDTH 9 0
BBX 9 15 0 -3
BITMAP
0000
0000
0000
0000
8000
FF00
7F00
0600
0600
0600
0600
0600
0000
0000
0000
ENDCHAR

STARTCHAR afii57668
ENCODING 1492
SWIDTH 785 0
DWIDTH 9 0
BBX 9 15 0 -3
BITMAP
0000
0000
0000
0000
C000
FF00
7F00
0600
6600
6600
6600
C600
0000
0000
0000
ENDCHAR

STARTCHAR afii57669
ENCODING 1493
SWIDTH 785 0
DWIDTH 9 0
BBX 9 15 0 -3
BITMAP
0000
0000
0000
0000
6000
7800
1C00
0C00
0C00
0C00
0C00
0C00
0000
0000
0000
ENDCHAR

STARTCHAR afii57670
ENCODING 1494
SWIDTH 785 0
DWIDTH 9 0
BBX 9 15 0 -3
BITMAP
0000
0000
0000
0000
6000
7C00
3E00
1800
1800
1800
1800
1800
0000
0000
0000
ENDCHAR

STARTCHAR afii57671
ENCODING 1495
SWIDTH 785 0
DWIDTH 9 0
BBX 9 15 0 -3
BITMAP
0000
0000
0000
0000
C000
FF00
7F00
6600
6600
6600
6600
C600
0000
0000
0000
ENDCHAR

STARTCHAR afii57672
ENCODING 1496
SWIDTH 785 0
DWIDTH 9 0
BBX 9 15 0 -3
BITMAP
0000
0000
0000
0000
C000
E300
7700
6700
6300
6300
7F00
7E00
0000
0000
0000
ENDCHAR

STARTCHAR afii57673
ENCODING 1497
SWIDTH 785 0
DWIDTH 9 0
BBX 9 15 0 -3
BITMAP
0000
0000
0000
0000
6000
7800
3C00
0C00
0C00
0000
0000
0000
0000
0000
0000
ENDCHAR

STARTCHAR afii57674
ENCODING 1498
SWIDTH 785 0
DWIDTH 9 0
BBX 9 15 0 -3
BITMAP
0000
0000
0000
0000
8000
FE00
7F00
0600
0C00
0C00
0C00
0C00
0C00
0C00
0C00
ENDCHAR

STARTCHAR afii57675
ENCODING 1499
SWIDTH 785 0
DWIDTH 9 0
BBX 9 15 0 -3
BITMAP
0000
0000
0000
0000
C000
FE00
7F00
0300
0300
0700
7E00
FC00
0000
0000
0000
ENDCHAR

STARTCHAR afii57676
ENCODING 1500
SWIDTH 785 0
DWIDTH 9 0
BBX 9 15 0 -3
BITMAP
0000
0000
C000
6000
6000
7F00
3F00
0300
0300
0600
0C00
1800
0000
0000
0000
ENDCHAR

STARTCHAR afii57677
ENCODING 1501
SWIDTH 785 0
DWIDTH 9 0
BBX 9 15 0 -3
BITMAP
0000
0000
0000
0000
C000
FE00
7F00
C300
C300
C300
FF00
FF00
0000
0000
0000
ENDCHAR

STARTCHAR afii57678
ENCODING 1502
SWIDTH 785 0
DWIDTH 9 0
BBX 9 15 0 -3
BITMAP
0000
0000
0000
0000
C000
DE00
7F00
6300
C300
C300
DF00
BE00
0000
0000
0000
ENDCHAR

STARTCHAR afii57679
ENCODING 1503
SWIDTH 785 0
DWIDTH 9 0
BBX 9 15 0 -3
BITMAP
0000
0000
0000
3000
3800
1C00
0C00
1800
1800
1800
1800
1800
1800
1800
1800
ENDCHAR

STARTCHAR afii57680
ENCODING 1504
SWIDTH 785 0
DWIDTH 9 0
BBX 9 15 0 -3
BITMAP
0000
0000
0000
0000
3000
3800
1C00
0C00
0C00
0C00
1C00
3C00
0000
0000
0000
ENDCHAR

STARTCHAR afii57681
ENCODING 1505
SWIDTH 785 0
DWIDTH 9 0
BBX 9 15 0 -3
BITMAP
0000
0000
0000
0000
C000
FE00
7F00
6300
6300
6300
7E00
3C00
0000
0000
0000
ENDCHAR

STARTCHAR afii57682
ENCODING 1506
SWIDTH 785 0
DWIDTH 9 0
BBX 9 15 0 -3
BITMAP
0000
0000
0000
0000
C600
E700
7300
6300
3300
1B00
7E00
FC00
0000
0000
0000
ENDCHAR

STARTCHAR afii57683
ENCODING 1507
SWIDTH 785 0
DWIDTH 9 0
BBX 9 15 0 -3
BITMAP
0000
0000
0000
0000
C000
FE00
7F00
C600
EC00
EC00
0C00
0C00
0C00
0C00
0C00
ENDCHAR

STARTCHAR afii57684
ENCODING 1508
SWIDTH 785 0
DWIDTH 9 0
BBX 9 15 0 -3
BITMAP
0000
0000
0000
0000
C000
FF00
7F00
6300
7300
0700
7E00
FC00
0000
0000
0000
ENDCHAR

STARTCHAR afii57685
ENCODING 1509
SWIDTH 785 0
DWIDTH 9 0
BBX 9 15 0 -3
BITMAP
0000
0000
0000
0000
C600
F700
7300
3600
3C00
3800
3000
3000
3000
3000
3000
ENDCHAR

STARTCHAR afii57686
ENCODING 1510
SWIDTH 785 0
DWIDTH 9 0
BBX 9 15 0 -3
BITMAP
0000
0000
0000
0000
C600
E700
6700
3C00
1800
0600
7F00
FE00
0000
0000
0000
ENDCHAR

STARTCHAR afii57687
ENCODING 1511
SWIDTH 785 0
DWIDTH 9 0
BBX 9 15 0 -3
BITMAP
0000
0000
0000
0000
C000
FE00
7F00
0300
6300
6300
6600
6C00
6000
6000
6000
ENDCHAR

STARTCHAR afii57688
ENCODING 1512
SWIDTH 785 0
DWIDTH 9 0
BBX 9 15 0 -3
BITMAP
0000
0000
0000
0000
C000
FE00
7F00
0300
0300
0300
0300
0300
0000
0000
0000
ENDCHAR

STARTCHAR afii57689
ENCODING 1513
SWIDTH 785 0
DWIDTH 9 0
BBX 9 15 0 -3
BITMAP
0000
0000
0000
0000
DB00
DB00
DB00
DB00
DB00
B300
FE00
7C00
0000
0000
0000
ENDCHAR

STARTCHAR afii57690
ENCODING 1514
SWIDTH 785 0
DWIDTH 9 0
BBX 9 15 0 -3
BITMAP
0000
0000
0000
0000
C000
FE00
7F00
3300
6300
6300
6300
E300
0000
0000
0000
ENDCHAR

STARTCHAR afii57388
ENCODING 1548
SWIDTH 785 0
DWIDTH 9 0
BBX 9 15 0 -3
BITMAP
0000
0000
1800
3000
3000
3000
3000
3C00
1C00
1C00
0000
0000
0000
0000
0000
ENDCHAR

STARTCHAR afii57403
ENCODING 1563
SWIDTH 785 0
DWIDTH 9 0
BBX 9 15 0 -3
BITMAP
0000
0000
0000
0000
0600
0E00
0C00
0C00
0000
0C00
0C00
0000
0000
0000
0000
ENDCHAR

STARTCHAR afii57407
ENCODING 1567
SWIDTH 785 0
DWIDTH 9 0
BBX 9 15 0 -3
BITMAP
1E00
3E00
7000
6000
6000
7800
3C00
0C00
0C00
0000
0C00
0C00
0000
0000
0000
ENDCHAR

STARTCHAR afii57409
ENCODING 1569
SWIDTH 785 0
DWIDTH 9 0
BBX 9 15 0 -3
BITMAP
0000
0000
1800
3C00
3400
3000
3C00
3C00
1800
3000
0000
0000
0000
0000
0000
ENDCHAR

STARTCHAR afii57410
ENCODING 1570
SWIDTH 785 0
DWIDTH 9 0
BBX 9 15 0 -3
BITMAP
3B00
6E00
1000
1800
1800
1800
1800
1800
1800
1800
0000
0000
0000
0000
0000
ENDCHAR

STARTCHAR afii57411
ENCODING 1571
SWIDTH 785 0
DWIDTH 9 0
BBX 9 15 0 -3
BITMAP
1C00
3000
1C00
3000
1800
1800
1800
1800
1800
1800
0000
0000
0000
0000
0000
ENDCHAR

STARTCHAR afii57412
ENCODING 1572
SWIDTH 785 0
DWIDTH 9 0
BBX 9 15 0 -3
BITMAP
1C00
3000
1C00
3000
0000
1E00
3F00
3300
3F00
1F00
0300
0700
0E00
7C00
F800
ENDCHAR

STARTCHAR afii57413
ENCODING 1573
SWIDTH 785 0
DWIDTH 9 0
BBX 9 15 0 -3
BITMAP
1800
1800
1800
1800
1800
1800
1800
1800
1800
1800
0000
1C00
3000
1C00
3000
ENDCHAR

STARTCHAR afii57414
ENCODING 1574
SWIDTH 785 0
DWIDTH 9 0
BBX 9 15 0 -3
BITMAP
0000
0000
3800
6000
3800
6000
0F80
1F80
1800
DC00
C700
FF00
7E00
0000
0000
ENDCHAR

STARTCHAR afii57415
ENCODING 1575
SWIDTH 785 0
DWIDTH 9 0
BBX 9 15 0 -3
BITMAP
1800
1800
1800
1800
1800
1800
1800
1800
1800
1800
0000
0000
0000
0000
0000
ENDCHAR

STARTCHAR afii57416
ENCODING 1576
SWIDTH 785 0
DWIDTH 9 0
BBX 9 15 0 -3
BITMAP
0000
0000
0000
0000
0000
0000
4180
C180
FF80
FF00
0000
0800
1C00
0800
0000
ENDCHAR

STARTCHAR afii57417
ENCODING 1577
SWIDTH 785 0
DWIDTH 9 0
BBX 9 15 0 -3
BITMAP
2400
7E00
2400
0000
1800
3C00
6600
6600
7E00
3C00
0000
0000
0000
0000
0000
ENDCHAR

STARTCHAR afii57418
ENCODING 1578
SWIDTH 785 0
DWIDTH 9 0
BBX 9 15 0 -3
BITMAP
0000
0000
0000
1200
3F00
1200
4080
C180
FF80
FF00
0000
0000
0000
0000
0000
ENDCHAR

STARTCHAR afii57419
ENCODING 1579
SWIDTH 785 0
DWIDTH 9 0
BBX 9 15 0 -3
BITMAP
0000
0400
0E00
1200
3F00
1200
4080
C180
FF80
FF00
0000
0000
0000
0000
0000
ENDCHAR

STARTCHAR afii57420
ENCODING 1580
SWIDTH 785 0
DWIDTH 9 0
BBX 9 15 0 -3
BITMAP
0000
0000
0000
0000
0000
0000
7900
5F00
3F00
7000
E600
C600
F000
7F00
1F00
ENDCHAR

STARTCHAR afii57421
ENCODING 1581
SWIDTH 785 0
DWIDTH 9 0
BBX 9 15 0 -3
BITMAP
0000
0000
0000
0000
0000
0000
7900
5F00
3F00
7000
E000
C000
F000
7F00
1F00
ENDCHAR

STARTCHAR afii57422
ENCODING 1582
SWIDTH 785 0
DWIDTH 9 0
BBX 9 15 0 -3
BITMAP
0000
0000
0800
1C00
0800
0000
7900
5F00
3F00
7000
E000
C000
F000
7F00
1F00
ENDCHAR

STARTCHAR afii57423
ENCODING 1583
SWIDTH 785 0
DWIDTH 9 0
BBX 9 15 0 -3
BITMAP
0000
0000
0000
1800
1C00
0E00
0600
3E00
3C00
0000
0000
0000
0000
0000
0000
ENDCHAR

STARTCHAR afii57424
ENCODING 1584
SWIDTH 785 0
DWIDTH 9 0
BBX 9 15 0 -3
BITMAP
1000
3800
1000
0400
0C00
0E00
0600
3E00
3C00
0000
0000
0000
0000
0000
0000
ENDCHAR

STARTCHAR afii57425
ENCODING 1585
SWIDTH 785 0
DWIDTH 9 0
BBX 9 15 0 -3
BITMAP
0000
0000
0000
0000
0000
0000
0000
0000
0600
0600
0600
0E00
3C00
F800
E000
ENDCHAR

STARTCHAR afii57426
ENCODING 1586
SWIDTH 785 0
DWIDTH 9 0
BBX 9 15 0 -3
BITMAP
0000
0000
0000
0000
0400
0E00
0400
0000
0600
0600
0600
0E00
3C00
F800
E000
ENDCHAR

STARTCHAR afii57427
ENCODING 1587
SWIDTH 785 0
DWIDTH 9 0
BBX 9 15 0 -3
BITMAP
0000
0000
0000
0000
0000
0000
2D80
3580
BF80
9F80
CC00
CC00
CC00
FC00
7800
ENDCHAR

STARTCHAR afii57428
ENCODING 1588
SWIDTH 785 0
DWIDTH 9 0
BBX 9 15 0 -3
BITMAP
0200
0700
0900
1F80
0900
0000
2D80
3580
BF80
9F80
CC00
CC00
CC00
FC00
7800
ENDCHAR

STARTCHAR afii57429
ENCODING 1589
SWIDTH 785 0
DWIDTH 9 0
BBX 9 15 0 -3
BITMAP
0000
0000
0000
0000
0000
0700
2F80
3D80
BF80
9F80
CC00
CC00
CC00
FC00
7800
ENDCHAR

STARTCHAR afii57430
ENCODING 1590
SWIDTH 785 0
DWIDTH 9 0
BBX 9 15 0 -3
BITMAP
0000
0200
0700
0200
0000
0700
2F80
3D80
BF80
9F80
CC00
CC00
CC00
FC00
7800
ENDCHAR

STARTCHAR afii57431
ENCODING 1591
SWIDTH 785 0
DWIDTH 9 0
BBX 9 15 0 -3
BITMAP
6000
6000
6000
2000
2E00
3F00
3300
2300
FF00
7E00
0000
0000
0000
0000
0000
ENDCHAR

STARTCHAR afii57432
ENCODING 1592
SWIDTH 785 0
DWIDTH 9 0
BBX 9 15 0 -3
BITMAP
6400
6E00
6400
2000
2E00
3F00
3300
2300
FF00
7E00
0000
0000
0000
0000
0000
ENDCHAR

STARTCHAR afii57433
ENCODING 1593
SWIDTH 785 0
DWIDTH 9 0
BBX 9 15 0 -3
BITMAP
0000
0000
0000
0000
6000
E000
8000
D000
7800
F000
C000
C000
C000
FC00
7C00
ENDCHAR

STARTCHAR afii57434
ENCODING 1594
SWIDTH 785 0
DWIDTH 9 0
BBX 9 15 0 -3
BITMAP
2000
7000
2000
0000
6000
E000
8000
D000
7800
F000
C000
C000
C000
FC00
7C00
ENDCHAR

STARTCHAR afii57440
ENCODING 1600
SWIDTH 785 0
DWIDTH 9 0
BBX 9 15 0 -3
BITMAP
0000
0000
0000
0000
0000
0000
0000
0000
FF80
FF80
0000
0000
0000
0000
0000
ENDCHAR

STARTCHAR afii57441
ENCODING 1601
SWIDTH 785 0
DWIDTH 9 0
BBX 9 15 0 -3
BITMAP
0000
0200
0700
0200
0000
0300
4780
C580
FF80
7F00
0000
0000
0000
0000
0000
ENDCHAR

STARTCHAR afii57442
ENCODING 1602
SWIDTH 785 0
DWIDTH 9 0
BBX 9 15 0 -3
BITMAP
0000
0A00
1F00
0A00
0000
0E00
1F00
1B00
5F00
CF00
C300
C300
FF00
7E00
0000
ENDCHAR

STARTCHAR afii57443
ENCODING 1603
SWIDTH 785 0
DWIDTH 9 0
BBX 9 15 0 -3
BITMAP
0300
0300
3300
6300
3300
6300
0300
C300
FF00
FF00
0000
0000
0000
0000
0000
ENDCHAR

STARTCHAR afii57444
ENCODING 1604
SWIDTH 785 0
DWIDTH 9 0
BBX 9 15 0 -3
BITMAP
0000
0300
0300
0300
0300
0300
0300
0300
0300
C300
C300
E600
7E00
7C00
0000
ENDCHAR

STARTCHAR afii57445
ENCODING 1605
SWIDTH 785 0
DWIDTH 9 0
BBX 9 15 0 -3
BITMAP
0000
0000
0000
0000
0000
1C00
3E00
3600
7E00
7C00
6000
6000
6000
6000
6000
ENDCHAR

STARTCHAR afii57446
ENCODING 1606
SWIDTH 785 0
DWIDTH 9 0
BBX 9 15 0 -3
BITMAP
0000
0000
0000
0400
0E00
0400
0000
7300
E300
C300
C300
E700
7F00
7E00
0000
ENDCHAR

STARTCHAR afii57470
ENCODING 1607
SWIDTH 785 0
DWIDTH 9 0
BBX 9 15 0 -3
BITMAP
0000
0000
0000
0000
1800
3C00
6600
6600
7E00
3C00
0000
0000
0000
0000
0000
ENDCHAR

STARTCHAR afii57448
ENCODING 1608
SWIDTH 785 0
DWIDTH 9 0
BBX 9 15 0 -3
BITMAP
0000
0000
0000
0000
0000
1E00
3F00
3300
3F00
1F00
0300
0700
0E00
7C00
F800
ENDCHAR

STARTCHAR afii57449
ENCODING 1609
SWIDTH 785 0
DWIDTH 9 0
BBX 9 15 0 -3
BITMAP
0000
0000
0000
0000
0000
0000
0F80
1F80
CC00
C700
FF00
7E00
0000
0000
0000
ENDCHAR

STARTCHAR afii57450
ENCODING 1610
SWIDTH 785 0
DWIDTH 9 0
BBX 9 15 0 -3
BITMAP
0000
0000
0000
0000
0000
0000
0F80
1F80
CC00
C700
FF00
7E00
2400
7E00
2400
ENDCHAR

STARTCHAR afii57451
ENCODING 1611
SWIDTH 785 0
DWIDTH 9 0
BBX 9 15 0 -3
BITMAP
2000
4000
A000
4000
8000
0000
0000
0000
0000
0000
0000
0000
0000
0000
0000
ENDCHAR

STARTCHAR afii57452
ENCODING 1612
SWIDTH 785 0
DWIDTH 9 0
BBX 9 15 0 -3
BITMAP
3800
AC00
B800
E000
8000
0000
0000
0000
0000
0000
0000
0000
0000
0000
0000
ENDCHAR

STARTCHAR afii57453
ENCODING 1613
SWIDTH 785 0
DWIDTH 9 0
BBX 9 15 0 -3
BITMAP
0000
0000
0000
0000
0000
0000
0000
0000
0000
0000
2000
4000
A000
4000
8000
ENDCHAR

STARTCHAR afii57454
ENCODING 1614
SWIDTH 785 0
DWIDTH 9 0
BBX 9 15 0 -3
BITMAP
2000
4000
8000
0000
0000
0000
0000
0000
0000
0000
0000
0000
0000
0000
0000
ENDCHAR

STARTCHAR afii57455
ENCODING 1615
SWIDTH 785 0
DWIDTH 9 0
BBX 9 15 0 -3
BITMAP
D000
A000
4000
8000
0000
0000
0000
0000
0000
0000
0000
0000
0000
0000
0000
ENDCHAR

STARTCHAR afii57456
ENCODING 1616
SWIDTH 785 0
DWIDTH 9 0
BBX 9 15 0 -3
BITMAP
0000
0000
0000
0000
0000
0000
0000
0000
0000
0000
0000
0000
2000
4000
8000
ENDCHAR

STARTCHAR afii57457
ENCODING 1617
SWIDTH 785 0
DWIDTH 9 0
BBX 9 15 0 -3
BITMAP
0800
2800
B800
E000
4000
0000
0000
0000
0000
0000
0000
0000
0000
0000
0000
ENDCHAR

STARTCHAR afii57458
ENCODING 1618
SWIDTH 785 0
DWIDTH 9 0
BBX 9 15 0 -3
BITMAP
1000
2800
2800
1000
0000
0000
0000
0000
0000
0000
0000
0000
0000
0000
0000
ENDCHAR

STARTCHAR uni0654
ENCODING 1620
SWIDTH 785 0
DWIDTH 9 0
BBX 9 15 0 -3
BITMAP
7000
C000
7000
C000
0000
0000
0000
0000
0000
0000
0000
0000
0000
0000
0000
ENDCHAR

STARTCHAR uni0655
ENCODING 1621
SWIDTH 785 0
DWIDTH 9 0
BBX 9 15 0 -3
BITMAP
0000
0000
0000
0000
0000
0000
0000
0000
0000
0000
0000
7000
C000
7000
C000
ENDCHAR

STARTCHAR afii57392
ENCODING 1632
SWIDTH 785 0
DWIDTH 9 0
BBX 9 15 0 -3
BITMAP
0000
0000
0000
0000
0000
1000
3800
1000
0000
0000
0000
0000
0000
0000
0000
ENDCHAR

STARTCHAR afii57393
ENCODING 1633
SWIDTH 785 0
DWIDTH 9 0
BBX 9 15 0 -3
BITMAP
0000
6000
6000
7000
7000
3000
3000
3000
3000
3000
0000
0000
0000
0000
0000
ENDCHAR

STARTCHAR afii57394
ENCODING 1634
SWIDTH 785 0
DWIDTH 9 0
BBX 9 15 0 -3
BITMAP
0000
6600
7E00
7C00
7000
3000
3000
3000
3000
3000
0000
0000
0000
0000
0000
ENDCHAR

STARTCHAR afii57395
ENCODING 1635
SWIDTH 785 0
DWIDTH 9 0
BBX 9 15 0 -3
BITMAP
0000
6D80
6D80
7F00
3E00
3000
3000
3000
3000
3000
0000
0000
0000
0000
0000
ENDCHAR

STARTCHAR afii57396
ENCODING 1636
SWIDTH 785 0
DWIDTH 9 0
BBX 9 15 0 -3
BITMAP
0000
3C00
7C00
6000
7C00
3C00
6000
6000
7E00
3E00
0000
0000
0000
0000
0000
ENDCHAR

STARTCHAR afii57397
ENCODING 1637
SWIDTH 785 0
DWIDTH 9 0
BBX 9 15 0 -3
BITMAP
0000
0000
1C00
3E00
6700
6300
6300
7300
3E00
1C00
0000
0000
0000
0000
0000
ENDCHAR

STARTCHAR afii57398
ENCODING 1638
SWIDTH 785 0
DWIDTH 9 0
BBX 9 15 0 -3
BITMAP
0000
0000
6300
7700
3E00
1E00
0600
0300
0300
0300
0000
0000
0000
0000
0000
ENDCHAR

STARTCHAR afii57399
ENCODING 1639
SWIDTH 785 0
DWIDTH 9 0
BBX 9 15 0 -3
BITMAP
0000
6300
6300
3300
3200
3600
1E00
1E00
0C00
0C00
0000
0000
0000
0000
0000
ENDCHAR

STARTCHAR afii57400
ENCODING 1640
SWIDTH 785 0
DWIDTH 9 0
BBX 9 15 0 -3
BITMAP
0000
0C00
0C00
1C00
1E00
3600
3700
6300
6300
6300
0000
0000
0000
0000
0000
ENDCHAR

STARTCHAR afii57401
ENCODING 1641
SWIDTH 785 0
DWIDTH 9 0
BBX 9 15 0 -3
BITMAP
0000
1C00
3E00
3300
3F00
1F00
0300
0300
0300
0300
0000
0000
0000
0000
0000
ENDCHAR

STARTCHAR afii57381
ENCODING 1642
SWIDTH 785 0
DWIDTH 9 0
BBX 9 15 0 -3
BITMAP
0000
0000
0000
E300
A600
EC00
1800
3700
6500
C700
0000
0000
0000
0000
0000
ENDCHAR

STARTCHAR afii57506
ENCODING 1662
SWIDTH 785 0
DWIDTH 9 0
BBX 9 15 0 -3
BITMAP
0000
0000
0000
0000
0000
0000
4080
C180
FF80
FF00
0000
3600
1C00
0800
0000
ENDCHAR

STARTCHAR afii57507
ENCODING 1670
SWIDTH 785 0
DWIDTH 9 0
BBX 9 15 0 -3
BITMAP
0000
0000
0000
0000
0000
0000
7900
5F00
3F00
7000
ED80
C700
F200
7F00
1F00
ENDCHAR

STARTCHAR uni068E
ENCODING 1678
SWIDTH 785 0
DWIDTH 9 0
BBX 9 15 0 -3
BITMAP
0800
1C00
3600
0000
1C00
0E00
0600
3E00
3C00
0000
0000
0000
0000
0000
0000
ENDCHAR

STARTCHAR uni0697
ENCODING 1687
SWIDTH 785 0
DWIDTH 9 0
BBX 9 15 0 -3
BITMAP
0000
0000
0000
0000
0A00
1F00
0A00
0000
0600
0600
0600
0E00
3C00
F800
E000
ENDCHAR

STARTCHAR uni069F
ENCODING 1695
SWIDTH 785 0
DWIDTH 9 0
BBX 9 15 0 -3
BITMAP
6200
6700
6D80
2000
2E00
3F00
3300
2300
FF00
7E00
0000
0000
0000
0000
0000
ENDCHAR

STARTCHAR afii57505
ENCODING 1700
SWIDTH 785 0
DWIDTH 9 0
BBX 9 15 0 -3
BITMAP
0000
0200
0700
0D80
0000
0300
4780
C580
FF80
7F00
0000
0000
0000
0000
0000
ENDCHAR

STARTCHAR uni06A9
ENCODING 1705
SWIDTH 785 0
DWIDTH 9 0
BBX 9 15 0 -3
BITMAP
0700
0E00
1C00
3800
7000
3800
1C00
8E00
FF00
7E00
0000
0000
0000
0000
0000
ENDCHAR

STARTCHAR afii57509
ENCODING 1711
SWIDTH 785 0
DWIDTH 9 0
BBX 9 15 0 -3
BITMAP
1B00
3600
6C00
5800
3000
3800
1C00
8E00
FF00
7E00
0000
0000
0000
0000
0000
ENDCHAR

STARTCHAR uni0E01
ENCODING 3585
SWIDTH 785 0
DWIDTH 9 0
BBX 9 15 0 -3
BITMAP
0000
0000
0000
0000
0000
7E00
C300
E300
6300
6300
6300
6300
0000
0000
0000
ENDCHAR

STARTCHAR uni0E02
ENCODING 3586
SWIDTH 785 0
DWIDTH 9 0
BBX 9 15 0 -3
BITMAP
0000
0000
0000
0000
0000
7300
DB00
BB00
5B00
1B00
1B00
0E00
0000
0000
0000
ENDCHAR

STARTCHAR uni0E03
ENCODING 3587
SWIDTH 785 0
DWIDTH 9 0
BBX 9 15 0 -3
BITMAP
0000
0000
0000
0000
0000
B300
DB00
9B00
5B00
1B00
1B00
0E00
0000
0000
0000
ENDCHAR

STARTCHAR uni0E04
ENCODING 3588
SWIDTH 785 0
DWIDTH 9 0
BBX 9 15 0 -3
BITMAP
0000
0000
0000
0000
0000
7E00
C300
D300
EB00
5300
C300
C300
0000
0000
0000
ENDCHAR

STARTCHAR uni0E05
ENCODING 3589
SWIDTH 785 0
DWIDTH 9 0
BBX 9 15 0 -3
BITMAP
0000
0000
0000
0000
0000
6E00
D300
D300
EB00
5300
C300
C300
0000
0000
0000
ENDCHAR

STARTCHAR uni0E06
ENCODING 3590
SWIDTH 785 0
DWIDTH 9 0
BBX 9 15 0 -3
BITMAP
0000
0000
0000
0000
0000
B300
F300
B300
3300
7300
BB00
6600
0000
0000
0000
ENDCHAR

STARTCHAR uni0E07
ENCODING 3591
SWIDTH 785 0
DWIDTH 9 0
BBX 9 15 0 -3
BITMAP
0000
0000
0000
0000
0000
0600
0B00
0700
6300
3300
1B00
0E00
0000
0000
0000
ENDCHAR

STARTCHAR uni0E08
ENCODING 3592
SWIDTH 785 0
DWIDTH 9 0
BBX 9 15 0 -3
BITMAP
0000
0000
0000
0000
0000
7E00
8300
3300
5B00
3B00
1B00
0E00
0000
0000
0000
ENDCHAR

STARTCHAR uni0E09
ENCODING 3593
SWIDTH 785 0
DWIDTH 9 0
BBX 9 15 0 -3
BITMAP
0000
0000
0000
0000
0000
7C00
8600
6600
B600
7600
3D00
3200
0000
0000
0000
ENDCHAR

STARTCHAR uni0E0A
ENCODING 3594
SWIDTH 785 0
DWIDTH 9 0
BBX 9 15 0 -3
BITMAP
0000
0000
0000
0000
0300
7300
DE00
BB00
5B00
1B00
1B00
0E00
0000
0000
0000
ENDCHAR

STARTCHAR uni0E0B
ENCODING 3595
SWIDTH 785 0
DWIDTH 9 0
BBX 9 15 0 -3
BITMAP
0000
0000
0000
0000
0300
B300
DE00
9B00
5B00
1B00
1B00
0E00
0000
0000
0000
ENDCHAR

STARTCHAR uni0E0C
ENCODING 3596
SWIDTH 785 0
DWIDTH 9 0
BBX 9 15 0 -3
BITMAP
0000
0000
0000
0000
0000
7300
DB00
7B00
DB00
DB00
AF00
5B00
0000
0000
0000
ENDCHAR

STARTCHAR uni0E0D
ENCODING 3597
SWIDTH 785 0
DWIDTH 9 0
BBX 9 15 0 -3
BITMAP
0000
0000
0000
0000
0000
7300
DB00
7B00
DB00
DB00
BB00
4E00
0900
0E00
0000
ENDCHAR

STARTCHAR uni0E0E
ENCODING 3598
SWIDTH 785 0
DWIDTH 9 0
BBX 9 15 0 -3
BITMAP
0000
0000
0000
0000
0000
3F00
6180
7180
3180
7180
B180
6980
3D80
4B80
3000
ENDCHAR

STARTCHAR uni0E0F
ENCODING 3599
SWIDTH 785 0
DWIDTH 9 0
BBX 9 15 0 -3
BITMAP
0000
0000
0000
0000
0000
3F00
6180
7180
3180
7180
B180
5180
3580
5B80
2000
ENDCHAR

STARTCHAR uni0E10
ENCODING 3600
SWIDTH 785 0
DWIDTH 9 0
BBX 9 15 0 -3
BITMAP
0000
0000
0000
0000
0000
7D00
C200
FE00
3300
5B00
3B00
0E00
6700
AB00
5700
ENDCHAR

STARTCHAR uni0E11
ENCODING 3601
SWIDTH 785 0
DWIDTH 9 0
BBX 9 15 0 -3
BITMAP
0000
0000
0000
0000
0000
B300
F580
B580
3980
3980
3180
3180
0000
0000
0000
ENDCHAR

STARTCHAR uni0E12
ENCODING 3602
SWIDTH 785 0
DWIDTH 9 0
BBX 9 15 0 -3
BITMAP
0000
0000
0000
0000
0000
5300
AB00
8B00
EB00
AB00
DF00
9B00
0000
0000
0000
ENDCHAR

STARTCHAR uni0E13
ENCODING 3603
SWIDTH 785 0
DWIDTH 9 0
BBX 9 15 0 -3
BITMAP
0000
0000
0000
0000
0000
6600
D600
7600
D600
D600
B500
5A00
0000
0000
0000
ENDCHAR

STARTCHAR uni0E14
ENCODING 3604
SWIDTH 785 0
DWIDTH 9 0
BBX 9 15 0 -3
BITMAP
0000
0000
0000
0000
0000
7E00
C300
D300
EB00
D300
E300
4300
0000
0000
0000
ENDCHAR

STARTCHAR uni0E15
ENCODING 3605
SWIDTH 785 0
DWIDTH 9 0
BBX 9 15 0 -3
BITMAP
0000
0000
0000
0000
0000
6E00
D300
D300
EB00
D300
E300
4300
0000
0000
0000
ENDCHAR

STARTCHAR uni0E16
ENCODING 3606
SWIDTH 785 0
DWIDTH 9 0
BBX 9 15 0 -3
BITMAP
0000
0000
0000
0000
0000
7E00
C300
E300
6300
6300
5300
2300
0000
0000
0000
ENDCHAR

STARTCHAR uni0E17
ENCODING 3607
SWIDTH 785 0
DWIDTH 9 0
BBX 9 15 0 -3
BITMAP
0000
0000
0000
0000
0000
6300
B580
7580
3980
3980
3180
3180
0000
0000
0000
ENDCHAR

STARTCHAR uni0E18
ENCODING 3608
SWIDTH 785 0
DWIDTH 9 0
BBX 9 15 0 -3
BITMAP
0000
0000
0000
0000
0000
7D00
C200
FE00
6300
6300
6300
3E00
0000
0000
0000
ENDCHAR

STARTCHAR uni0E19
ENCODING 3609
SWIDTH 785 0
DWIDTH 9 0
BBX 9 15 0 -3
BITMAP
0000
0000
0000
0000
0000
6300
B300
7300
3300
3700
3A80
3100
0000
0000
0000
ENDCHAR

STARTCHAR uni0E1A
ENCODING 3610
SWIDTH 785 0
DWIDTH 9 0
BBX 9 15 0 -3
BITMAP
0000
0000
0000
0000
0000
6180
B180
7180
3180
3180
3180
1F00
0000
0000
0000
ENDCHAR

STARTCHAR uni0E1B
ENCODING 3611
SWIDTH 785 0
DWIDTH 9 0
BBX 9 15 0 -3
BITMAP
0000
0000
0000
0180
0180
6180
B180
7180
3180
3180
3180
1F00
0000
0000
0000
ENDCHAR

STARTCHAR uni0E1C
ENCODING 3612
SWIDTH 785 0
DWIDTH 9 0
BBX 9 15 0 -3
BITMAP
0000
0000
0000
0000
0000
4300
A300
C300
C300
DB00
DB00
6600
0000
0000
0000
ENDCHAR

STARTCHAR uni0E1D
ENCODING 3613
SWIDTH 785 0
DWIDTH 9 0
BBX 9 15 0 -3
BITMAP
0000
0000
0000
0300
0300
4300
A300
C300
C300
DB00
DB00
6600
0000
0000
0000
ENDCHAR

STARTCHAR uni0E1E
ENCODING 3614
SWIDTH 785 0
DWIDTH 9 0
BBX 9 15 0 -3
BITMAP
0000
0000
0000
0000
0000
6180
B180
7580
3580
3B80
3B80
3180
0000
0000
0000
ENDCHAR

STARTCHAR uni0E1F
ENCODING 3615
SWIDTH 785 0
DWIDTH 9 0
BBX 9 15 0 -3
BITMAP
0000
0000
0000
0180
0180
6180
B180
7580
3580
3B80
3B80
3180
0000
0000
0000
ENDCHAR

STARTCHAR uni0E20
ENCODING 3616
SWIDTH 785 0
DWIDTH 9 0
BBX 9 15 0 -3
BITMAP
0000
0000
0000
0000
0000
3F00
6180
7180
3180
7180
B180
6180
0000
0000
0000
ENDCHAR

STARTCHAR uni0E21
ENCODING 3617
SWIDTH 785 0
DWIDTH 9 0
BBX 9 15 0 -3
BITMAP
0000
0000
0000
0000
0000
6300
B300
7300
3300
7300
BB00
6600
0000
0000
0000
ENDCHAR

STARTCHAR uni0E22
ENCODING 3618
SWIDTH 785 0
DWIDTH 9 0
BBX 9 15 0 -3
BITMAP
0000
0000
0000
0000
0000
4300
A300
C300
7300
C300
C300
7E00
0000
0000
0000
ENDCHAR

STARTCHAR uni0E23
ENCODING 3619
SWIDTH 785 0
DWIDTH 9 0
BBX 9 15 0 -3
BITMAP
0000
0000
0000
0000
0000
7D00
C200
FC00
0600
0E00
1600
0C00
0000
0000
0000
ENDCHAR

STARTCHAR uni0E24
ENCODING 3620
SWIDTH 785 0
DWIDTH 9 0
BBX 9 15 0 -3
BITMAP
0000
0000
0000
0000
0000
7E00
C300
E300
6300
6300
5300
2300
0300
0300
0000
ENDCHAR

STARTCHAR uni0E25
ENCODING 3621
SWIDTH 785 0
DWIDTH 9 0
BBX 9 15 0 -3
BITMAP
0000
0000
0000
0000
0000
7E00
8300
7300
DB00
CF00
A700
4300
0000
0000
0000
ENDCHAR

STARTCHAR uni0E26
ENCODING 3622
SWIDTH 785 0
DWIDTH 9 0
BBX 9 15 0 -3
BITMAP
0000
0000
0000
0000
0000
3F00
6180
7180
3180
7180
B180
6180
0180
0180
0000
ENDCHAR

STARTCHAR uni0E27
ENCODING 3623
SWIDTH 785 0
DWIDTH 9 0
BBX 9 15 0 -3
BITMAP
0000
0000
0000
0000
0000
7E00
8300
0300
0300
0700
0B00
0600
0000
0000
0000
ENDCHAR

STARTCHAR uni0E28
ENCODING 3624
SWIDTH 785 0
DWIDTH 9 0
BBX 9 15 0 -3
BITMAP
0000
0000
0000
0000
0300
7E00
C300
D300
EB00
5300
C300
C300
0000
0000
0000
ENDCHAR

STARTCHAR uni0E29
ENCODING 3625
SWIDTH 785 0
DWIDTH 9 0
BBX 9 15 0 -3
BITMAP
0000
0000
0000
0000
0000
6180
B580
7B80
3780
3180
3180
1F00
0000
0000
0000
ENDCHAR

STARTCHAR uni0E2A
ENCODING 3626
SWIDTH 785 0
DWIDTH 9 0
BBX 9 15 0 -3
BITMAP
0000
0000
0000
0000
0300
7E00
8300
7300
DB00
CF00
A700
4300
0000
0000
0000
ENDCHAR

STARTCHAR uni0E2B
ENCODING 3627
SWIDTH 785 0
DWIDTH 9 0
BBX 9 15 0 -3
BITMAP
0000
0000
0000
0000
0000
6100
B280
7300
3580
3980
3180
3180
0000
0000
0000
ENDCHAR

STARTCHAR uni0E2C
ENCODING 3628
SWIDTH 785 0
DWIDTH 9 0
BBX 9 15 0 -3
BITMAP
0000
0000
0000
0000
0180
6700
B180
7580
3580
3B80
3B80
3180
0000
0000
0000
ENDCHAR

STARTCHAR uni0E2D
ENCODING 3629
SWIDTH 785 0
DWIDTH 9 0
BBX 9 15 0 -3
BITMAP
0000
0000
0000
0000
0000
7E00
8300
4300
A300
C300
C300
7E00
0000
0000
0000
ENDCHAR

STARTCHAR uni0E2E
ENCODING 3630
SWIDTH 785 0
DWIDTH 9 0
BBX 9 15 0 -3
BITMAP
0000
0000
0000
0000
0300
7F00
C600
7B00
4300
A300
C300
7E00
0000
0000
0000
ENDCHAR

STARTCHAR uni0E2F
ENCODING 3631
SWIDTH 785 0
DWIDTH 9 0
BBX 9 15 0 -3
BITMAP
0000
0000
0000
0000
0000
4700
AB00
7300
0300
0300
0300
0300
0000
0000
0000
ENDCHAR

STARTCHAR uni0E30
ENCODING 3632
SWIDTH 785 0
DWIDTH 9 0
BBX 9 15 0 -3
BITMAP
0000
0000
0000
0000
0000
4300
A600
7C00
0000
4300
A600
7C00
0000
0000
0000
ENDCHAR

STARTCHAR uni0E31
ENCODING 3633
SWIDTH 785 0
DWIDTH 9 0
BBX 9 15 0 -3
BITMAP
0000
0000
6300
7E00
0000
0000
0000
0000
0000
0000
0000
0000
0000
0000
0000
ENDCHAR

STARTCHAR uni0E32
ENCODING 3634
SWIDTH 785 0
DWIDTH 9 0
BBX 9 15 0 -3
BITMAP
0000
0000
0000
0000
0000
7E00
8300
0300
0300
0300
0300
0300
0000
0000
0000
ENDCHAR

STARTCHAR uni0E33
ENCODING 3635
SWIDTH 785 0
DWIDTH 9 0
BBX 9 15 0 -3
BITMAP
0000
0000
0000
4000
A000
4F00
1180
0180
0180
0180
0180
0180
0000
0000
0000
ENDCHAR

STARTCHAR uni0E34
ENCODING 3636
SWIDTH 785 0
DWIDTH 9 0
BBX 9 15 0 -3
BITMAP
0000
0000
0000
FF00
0000
0000
0000
0000
0000
0000
0000
0000
0000
0000
0000
ENDCHAR

STARTCHAR uni0E35
ENCODING 3637
SWIDTH 785 0
DWIDTH 9 0
BBX 9 15 0 -3
BITMAP
0000
0000
0300
FF00
0000
0000
0000
0000
0000
0000
0000
0000
0000
0000
0000
ENDCHAR

STARTCHAR uni0E36
ENCODING 3638
SWIDTH 785 0
DWIDTH 9 0
BBX 9 15 0 -3
BITMAP
0000
0000
0700
FF00
0000
0000
0000
0000
0000
0000
0000
0000
0000
0000
0000
ENDCHAR

STARTCHAR uni0E37
ENCODING 3639
SWIDTH 785 0
DWIDTH 9 0
BBX 9 15 0 -3
BITMAP
0000
0000
1B00
FF00
0000
0000
0000
0000
0000
0000
0000
0000
0000
0000
0000
ENDCHAR

STARTCHAR uni0E38
ENCODING 3640
SWIDTH 785 0
DWIDTH 9 0
BBX 9 15 0 -3
BITMAP
0000
0000
0000
0000
0000
0000
0000
0000
0000
0000
0000
0000
0700
0B00
0700
ENDCHAR

STARTCHAR uni0E39
ENCODING 3641
SWIDTH 785 0
DWIDTH 9 0
BBX 9 15 0 -3
BITMAP
0000
0000
0000
0000
0000
0000
0000
0000
0000
0000
0000
0000
3B00
2B00
1F00
ENDCHAR

STARTCHAR uni0E3A
ENCODING 3642
SWIDTH 785 0
DWIDTH 9 0
BBX 9 15 0 -3
BITMAP
0000
0000
0000
0000
0000
0000
0000
0000
0000
0000
0000
0000
0000
0700
0700
ENDCHAR

STARTCHAR uni0E3F
ENCODING 3647
SWIDTH 785 0
DWIDTH 9 0
BBX 9 15 0 -3
BITMAP
0000
0000
1800
FE00
DB00
DB00
FE00
DB00
DB00
DB00
FE00
1800
0000
0000
0000
ENDCHAR

STARTCHAR uni0E40
ENCODING 3648
SWIDTH 785 0
DWIDTH 9 0
BBX 9 15 0 -3
BITMAP
0000
0000
0000
0000
0000
1800
1800
1800
1800
1800
1400
0800
0000
0000
0000
ENDCHAR

STARTCHAR uni0E41
ENCODING 3649
SWIDTH 785 0
DWIDTH 9 0
BBX 9 15 0 -3
BITMAP
0000
0000
0000
0000
0000
6600
6600
6600
6600
6600
5500
2200
0000
0000
0000
ENDCHAR

STARTCHAR uni0E42
ENCODING 3650
SWIDTH 785 0
DWIDTH 9 0
BBX 9 15 0 -3
BITMAP
0000
0000
0000
7D00
C200
F800
0C00
0C00
0C00
0C00
0A00
0400
0000
0000
0000
ENDCHAR

STARTCHAR uni0E43
ENCODING 3651
SWIDTH 785 0
DWIDTH 9 0
BBX 9 15 0 -3
BITMAP
0000
0000
3C00
6600
5600
2600
0600
0600
0600
0600
0500
0200
0000
0000
0000
ENDCHAR

STARTCHAR uni0E44
ENCODING 3652
SWIDTH 785 0
DWIDTH 9 0
BBX 9 15 0 -3
BITMAP
0000
0000
0000
8E00
5600
2600
0600
0600
0600
0600
0500
0200
0000
0000
0000
ENDCHAR

STARTCHAR uni0E45
ENCODING 3653
SWIDTH 785 0
DWIDTH 9 0
BBX 9 15 0 -3
BITMAP
0000
0000
0000
0000
0000
7E00
8300
0300
0300
0300
0300
0300
0300
0300
0000
ENDCHAR

STARTCHAR uni0E46
ENCODING 3654
SWIDTH 785 0
DWIDTH 9 0
BBX 9 15 0 -3
BITMAP
0000
0000
0000
0000
0000
6E00
D300
C300
A300
4300
0300
0300
0300
0300
0600
ENDCHAR

STARTCHAR uni0E47
ENCODING 3655
SWIDTH 785 0
DWIDTH 9 0
BBX 9 15 0 -3
BITMAP
0100
3E00
6B00
3600
0000
0000
0000
0000
0000
0000
0000
0000
0000
0000
0000
ENDCHAR

STARTCHAR uni0E48
ENCODING 3656
SWIDTH 785 0
DWIDTH 9 0
BBX 9 15 0 -3
BITMAP
0300
0300
0000
0000
0000
0000
0000
0000
0000
0000
0000
0000
0000
0000
0000
ENDCHAR

STARTCHAR uni0E49
ENCODING 3657
SWIDTH 785 0
DWIDTH 9 0
BBX 9 15 0 -3
BITMAP
7300
3E00
0000
0000
0000
0000
0000
0000
0000
0000
0000
0000
0000
0000
0000
ENDCHAR

STARTCHAR uni0E4A
ENCODING 3658
SWIDTH 785 0
DWIDTH 9 0
BBX 9 15 0 -3
BITMAP
6D00
5600
0000
0000
0000
0000
0000
0000
0000
0000
0000
0000
0000
0000
0000
ENDCHAR

STARTCHAR uni0E4B
ENCODING 3659
SWIDTH 785 0
DWIDTH 9 0
BBX 9 15 0 -3
BITMAP
0600
0F00
0600
0000
0000
0000
0000
0000
0000
0000
0000
0000
0000
0000
0000
ENDCHAR

STARTCHAR uni0E4C
ENCODING 3660
SWIDTH 785 0
DWIDTH 9 0
BBX 9 15 0 -3
BITMAP
3D00
3600
0000
0000
0000
0000
0000
0000
0000
0000
0000
0000
0000
0000
0000
ENDCHAR

STARTCHAR uni0E4D
ENCODING 3661
SWIDTH 785 0
DWIDTH 9 0
BBX 9 15 0 -3
BITMAP
0000
0000
1C00
1C00
0000
0000
0000
0000
0000
0000
0000
0000
0000
0000
0000
ENDCHAR

STARTCHAR uni0E4E
ENCODING 3662
SWIDTH 785 0
DWIDTH 9 0
BBX 9 15 0 -3
BITMAP
0E00
1800
3000
1C00
0000
0000
0000
0000
0000
0000
0000
0000
0000
0000
0000
ENDCHAR

STARTCHAR uni0E4F
ENCODING 3663
SWIDTH 785 0
DWIDTH 9 0
BBX 9 15 0 -3
BITMAP
0000
0000
0000
0000
0000
1C00
2200
4900
5500
4900
2200
1C00
0000
0000
0000
ENDCHAR

STARTCHAR uni0E50
ENCODING 3664
SWIDTH 785 0
DWIDTH 9 0
BBX 9 15 0 -3
BITMAP
0000
0000
0000
0000
0000
3C00
6600
C300
C300
C300
6600
3C00
0000
0000
0000
ENDCHAR

STARTCHAR uni0E51
ENCODING 3665
SWIDTH 785 0
DWIDTH 9 0
BBX 9 15 0 -3
BITMAP
0000
0000
0000
0000
0000
3C00
6600
D300
EB00
7300
0600
3C00
0000
0000
0000
ENDCHAR

STARTCHAR uni0E52
ENCODING 3666
SWIDTH 785 0
DWIDTH 9 0
BBX 9 15 0 -3
BITMAP
0000
0000
0000
0000
C000
6B00
7580
7980
7580
6980
6180
3F00
0000
0000
0000
ENDCHAR

STARTCHAR uni0E53
ENCODING 3667
SWIDTH 785 0
DWIDTH 9 0
BBX 9 15 0 -3
BITMAP
0000
0000
0000
0000
0000
6E00
D300
D300
D300
C300
A300
4300
0000
0000
0000
ENDCHAR

STARTCHAR uni0E54
ENCODING 3668
SWIDTH 785 0
DWIDTH 9 0
BBX 9 15 0 -3
BITMAP
0000
0000
0000
0000
0100
3E00
6000
C400
CA00
CC00
6600
3F00
0000
0000
0000
ENDCHAR

STARTCHAR uni0E55
ENCODING 3669
SWIDTH 785 0
DWIDTH 9 0
BBX 9 15 0 -3
BITMAP
0000
0000
0000
0800
1500
3E00
6000
C400
CA00
CC00
6600
3F00
0000
0000
0000
ENDCHAR

STARTCHAR uni0E56
ENCODING 3670
SWIDTH 785 0
DWIDTH 9 0
BBX 9 15 0 -3
BITMAP
0000
0000
0000
0000
8000
5E00
2300
0180
0180
1180
2B00
1E00
0000
0000
0000
ENDCHAR

STARTCHAR uni0E57
ENCODING 3671
SWIDTH 785 0
DWIDTH 9 0
BBX 9 15 0 -3
BITMAP
0000
0000
0000
0180
0180
6980
D580
D580
D580
C580
A580
4700
0000
0000
0000
ENDCHAR

STARTCHAR uni0E58
ENCODING 3672
SWIDTH 785 0
DWIDTH 9 0
BBX 9 15 0 -3
BITMAP
0000
0000
0000
0000
0100
3E00
6000
C600
CB00
C700
7300
2E00
0000
0000
0000
ENDCHAR

STARTCHAR uni0E59
ENCODING 3673
SWIDTH 785 0
DWIDTH 9 0
BBX 9 15 0 -3
BITMAP
0000
0000
0000
0000
0100
0700
6A00
D800
CC00
EC00
5600
2600
0000
0000
0000
ENDCHAR

STARTCHAR uni0E5A
ENCODING 3674
SWIDTH 785 0
DWIDTH 9 0
BBX 9 15 0 -3
BITMAP
0000
0000
0000
0000
0000
DF00
FB00
1B00
1B00
1B00
1B00
3600
0000
0000
0000
ENDCHAR

STARTCHAR uni0E5B
ENCODING 3675
SWIDTH 785 0
DWIDTH 9 0
BBX 9 15 0 -3
BITMAP
0000
0000
0000
0000
0000
0000
4000
A000
AB00
AC00
9000
6000
0000
0000
0000
ENDCHAR

STARTCHAR uni16A0
ENCODING 5792
SWIDTH 785 0
DWIDTH 9 0
BBX 9 15 0 -3
BITMAP
0000
0000
3200
3400
3800
3200
3400
3800
3000
3000
3000
3000
0000
0000
0000
ENDCHAR

STARTCHAR uni16A2
ENCODING 5794
SWIDTH 785 0
DWIDTH 9 0
BBX 9 15 0 -3
BITMAP
0000
0000
7000
7800
6C00
6C00
6600
6600
6600
6600
6600
6600
0000
0000
0000
ENDCHAR

STARTCHAR uni16A3
ENCODING 5795
SWIDTH 785 0
DWIDTH 9 0
BBX 9 15 0 -3
BITMAP
0000
0000
1800
3C00
6600
C300
C300
DB00
DB00
DB00
DB00
DB00
0000
0000
0000
ENDCHAR

STARTCHAR uni16A6
ENCODING 5798
SWIDTH 785 0
DWIDTH 9 0
BBX 9 15 0 -3
BITMAP
0000
0000
6000
6000
7800
6C00
6600
6600
6C00
7800
6000
6000
0000
0000
0000
ENDCHAR

STARTCHAR uni16A9
ENCODING 5801
SWIDTH 785 0
DWIDTH 9 0
BBX 9 15 0 -3
BITMAP
0000
0000
6200
7400
6800
6200
7400
6800
6000
6000
6000
6000
0000
0000
0000
ENDCHAR

STARTCHAR uni16AA
ENCODING 5802
SWIDTH 785 0
DWIDTH 9 0
BBX 9 15 0 -3
BITMAP
0000
0000
6200
7400
6800
6000
7000
6800
6400
6000
6000
6000
0000
0000
0000
ENDCHAR

STARTCHAR uni16AB
ENCODING 5803
SWIDTH 785 0
DWIDTH 9 0
BBX 9 15 0 -3
BITMAP
0000
0000
3000
3800
3400
3200
3800
3400
3200
3000
3000
3000
0000
0000
0000
ENDCHAR

STARTCHAR uni16B1
ENCODING 5809
SWIDTH 785 0
DWIDTH 9 0
BBX 9 15 0 -3
BITMAP
0000
0000
7000
6C00
6200
6400
6800
7000
6800
6400
6000
6000
0000
0000
0000
ENDCHAR

STARTCHAR uni16B3
ENCODING 5811
SWIDTH 785 0
DWIDTH 9 0
BBX 9 15 0 -3
BITMAP
0000
0000
6000
6000
7000
7800
6C00
6C00
6600
6600
6600
6600
0000
0000
0000
ENDCHAR

STARTCHAR uni16B7
ENCODING 5815
SWIDTH 785 0
DWIDTH 9 0
BBX 9 15 0 -3
BITMAP
0000
0000
6300
6300
3600
3600
1C00
1C00
3600
3600
6300
6300
0000
0000
0000
ENDCHAR

STARTCHAR uni16B8
ENCODING 5816
SWIDTH 785 0
DWIDTH 9 0
BBX 9 15 0 -3
BITMAP
0000
0000
6300
6300
3E00
3600
2A00
2A00
3600
3E00
6300
6300
0000
0000
0000
ENDCHAR

STARTCHAR uni16B9
ENCODING 5817
SWIDTH 785 0
DWIDTH 9 0
BBX 9 15 0 -3
BITMAP
0000
0000
7000
6C00
6200
6400
6800
7000
6000
6000
6000
6000
0000
0000
0000
ENDCHAR

STARTCHAR uni16BB
ENCODING 5819
SWIDTH 785 0
DWIDTH 9 0
BBX 9 15 0 -3
BITMAP
0000
0000
C300
C300
E300
D300
CB00
E700
D300
CB00
C700
C300
0000
0000
0000
ENDCHAR

STARTCHAR uni16BE
ENCODING 5822
SWIDTH 785 0
DWIDTH 9 0
BBX 9 15 0 -3
BITMAP
0000
0000
1800
1800
5800
3800
1800
1800
1C00
1A00
1800
1800
0000
0000
0000
ENDCHAR

STARTCHAR uni16C1
ENCODING 5825
SWIDTH 785 0
DWIDTH 9 0
BBX 9 15 0 -3
BITMAP
0000
0000
1800
1800
1800
1800
1800
1800
1800
1800
1800
1800
0000
0000
0000
ENDCHAR

STARTCHAR uni16C4
ENCODING 5828
SWIDTH 785 0
DWIDTH 9 0
BBX 9 15 0 -3
BITMAP
0000
0000
1800
1800
3C00
5A00
9900
9900
5A00
3C00
1800
1800
0000
0000
0000
ENDCHAR

STARTCHAR uni16C7
ENCODING 5831
SWIDTH 785 0
DWIDTH 9 0
BBX 9 15 0 -3
BITMAP
0000
0000
1800
1C00
1A00
1900
1800
1800
9800
5800
3800
1800
0000
0000
0000
ENDCHAR

STARTCHAR uni16C8
ENCODING 5832
SWIDTH 785 0
DWIDTH 9 0
BBX 9 15 0 -3
BITMAP
0000
0000
C100
E200
D400
C800
C000
C000
C800
D400
E200
C100
0000
0000
0000
ENDCHAR

STARTCHAR uni16C9
ENCODING 5833
SWIDTH 785 0
DWIDTH 9 0
BBX 9 15 0 -3
BITMAP
0000
0000
DB00
DB00
DB00
DB00
7E00
1800
1800
1800
1800
1800
0000
0000
0000
ENDCHAR

STARTCHAR uni16CB
ENCODING 5835
SWIDTH 785 0
DWIDTH 9 0
BBX 9 15 0 -3
BITMAP
0000
0000
6000
6000
6300
6700
6B00
7300
6300
0300
0300
0300
0000
0000
0000
ENDCHAR

STARTCHAR uni16CF
ENCODING 5839
SWIDTH 785 0
DWIDTH 9 0
BBX 9 15 0 -3
BITMAP
0000
0000
1800
3C00
5A00
9900
1800
1800
1800
1800
1800
1800
0000
0000
0000
ENDCHAR

STARTCHAR uni16D2
ENCODING 5842
SWIDTH 785 0
DWIDTH 9 0
BBX 9 15 0 -3
BITMAP
0000
0000
7000
6C00
6200
6400
7800
6800
6400
6200
6C00
7000
0000
0000
0000
ENDCHAR

STARTCHAR uni16D6
ENCODING 5846
SWIDTH 785 0
DWIDTH 9 0
BBX 9 15 0 -3
BITMAP
0000
0000
C300
E700
DB00
C300
C300
C300
C300
C300
C300
C300
0000
0000
0000
ENDCHAR

STARTCHAR uni16D7
ENCODING 5847
SWIDTH 785 0
DWIDTH 9 0
BBX 9 15 0 -3
BITMAP
0000
0000
C300
E700
DB00
E700
C300
C300
C300
C300
C300
C300
0000
0000
0000
ENDCHAR

STARTCHAR uni16DA
ENCODING 5850
SWIDTH 785 0
DWIDTH 9 0
BBX 9 15 0 -3
BITMAP
0000
0000
3000
3800
3400
3200
3000
3000
3000
3000
3000
3000
0000
0000
0000
ENDCHAR

STARTCHAR uni16DD
ENCODING 5853
SWIDTH 785 0
DWIDTH 9 0
BBX 9 15 0 -3
BITMAP
0000
0000
6300
6300
3600
3E00
6300
6300
3600
3E00
6300
6300
0000
0000
0000
ENDCHAR

STARTCHAR uni16DE
ENCODING 5854
SWIDTH 785 0
DWIDTH 9 0
BBX 9 15 0 -3
BITMAP
0000
0000
C300
C300
C300
E700
DB00
E700
C300
C300
C300
C300
0000
0000
0000
ENDCHAR

STARTCHAR uni16DF
ENCODING 5855
SWIDTH 785 0
DWIDTH 9 0
BBX 9 15 0 -3
BITMAP
0000
0000
0800
1C00
3600
6300
6300
3600
1C00
1C00
3600
6300
0000
0000
0000
ENDCHAR

STARTCHAR uni16E0
ENCODING 5856
SWIDTH 785 0
DWIDTH 9 0
BBX 9 15 0 -3
BITMAP
0000
0000
DB00
5A00
3C00
1800
1800
1800
1800
1800
1800
1800
0000
0000
0000
ENDCHAR

STARTCHAR uni16E1
ENCODING 5857
SWIDTH 785 0
DWIDTH 9 0
BBX 9 15 0 -3
BITMAP
0000
0000
DB00
5A00
3C00
1800
3C00
5A00
DB00
1800
1800
1800
0000
0000
0000
ENDCHAR

STARTCHAR uni16E2
ENCODING 5858
SWIDTH 785 0
DWIDTH 9 0
BBX 9 15 0 -3
BITMAP
0000
0000
1900
1A00
1C00
1800
1800
1800
1800
3800
5800
9800
0000
0000
0000
ENDCHAR

STARTCHAR uni16E3
ENCODING 5859
SWIDTH 785 0
DWIDTH 9 0
BBX 9 15 0 -3
BITMAP
0000
0000
1800
1800
1800
1800
1800
7E00
DB00
DB00
DB00
DB00
0000
0000
0000
ENDCHAR

STARTCHAR uni16E5
ENCODING 5861
SWIDTH 785 0
DWIDTH 9 0
BBX 9 15 0 -3
BITMAP
0000
0000
C300
E700
DB00
C300
C300
C300
C300
DB00
E700
C300
0000
0000
0000
ENDCHAR

STARTCHAR uni16EB
ENCODING 5867
SWIDTH 785 0
DWIDTH 9 0
BBX 9 15 0 -3
BITMAP
0000
0000
0000
0000
0000
0000
1800
1800
0000
0000
0000
0000
0000
0000
0000
ENDCHAR

STARTCHAR uni16EC
ENCODING 5868
SWIDTH 785 0
DWIDTH 9 0
BBX 9 15 0 -3
BITMAP
0000
0000
0000
0000
1800
1800
0000
0000
1800
1800
0000
0000
0000
0000
0000
ENDCHAR

STARTCHAR uni16ED
ENCODING 5869
SWIDTH 785 0
DWIDTH 9 0
BBX 9 15 0 -3
BITMAP
0000
0000
0000
0000
2200
3600
1C00
1C00
3600
2200
0000
0000
0000
0000
0000
ENDCHAR

STARTCHAR uni1E00
ENCODING 7680
SWIDTH 785 0
DWIDTH 9 0
BBX 9 15 0 -3
BITMAP
0000
0000
1800
3C00
6600
C300
C300
C300
FF00
C300
C300
C300
1800
2400
1800
ENDCHAR

STARTCHAR uni1E01
ENCODING 7681
SWIDTH 785 0
DWIDTH 9 0
BBX 9 15 0 -3
BITMAP
0000
0000
0000
0000
0000
3E00
6300
0300
7F00
C300
C700
7B00
1800
2400
1800
ENDCHAR

STARTCHAR uni1E02
ENCODING 7682
SWIDTH 785 0
DWIDTH 9 0
BBX 9 15 0 -3
BITMAP
3000
3000
0000
FC00
C600
C300
C600
FC00
C600
C300
C700
FE00
0000
0000
0000
ENDCHAR

STARTCHAR uni1E03
ENCODING 7683
SWIDTH 785 0
DWIDTH 9 0
BBX 9 15 0 -3
BITMAP
0C00
0C00
C000
C000
C000
DC00
E600
C300
C300
C300
E600
DC00
0000
0000
0000
ENDCHAR

STARTCHAR uni1E04
ENCODING 7684
SWIDTH 785 0
DWIDTH 9 0
BBX 9 15 0 -3
BITMAP
0000
0000
FC00
C600
C300
C600
FC00
C600
C300
C300
C600
FC00
0000
3000
3000
ENDCHAR

STARTCHAR uni1E05
ENCODING 7685
SWIDTH 785 0
DWIDTH 9 0
BBX 9 15 0 -3
BITMAP
0000
0000
C000
C000
C000
DC00
E600
C300
C300
C300
E600
DC00
0000
1800
1800
ENDCHAR

STARTCHAR uni1E06
ENCODING 7686
SWIDTH 785 0
DWIDTH 9 0
BBX 9 15 0 -3
BITMAP
0000
0000
FC00
C600
C300
C600
FC00
C600
C300
C300
C600
FC00
0000
FE00
0000
ENDCHAR

STARTCHAR uni1E07
ENCODING 7687
SWIDTH 785 0
DWIDTH 9 0
BBX 9 15 0 -3
BITMAP
0000
0000
C000
C000
C000
DC00
E600
C300
C300
C300
E600
DC00
0000
FE00
0000
ENDCHAR

STARTCHAR uni1E08
ENCODING 7688
SWIDTH 785 0
DWIDTH 9 0
BBX 9 15 0 -3
BITMAP
0C00
1800
0000
3E00
6300
C100
C000
C000
C000
C100
6300
3E00
0400
3200
1C00
ENDCHAR

STARTCHAR uni1E09
ENCODING 7689
SWIDTH 785 0
DWIDTH 9 0
BBX 9 15 0 -3
BITMAP
0000
0600
0C00
1800
0000
3E00
6300
C000
C000
C000
6300
3E00
0400
3200
1C00
ENDCHAR

STARTCHAR uni1E0A
ENCODING 7690
SWIDTH 785 0
DWIDTH 9 0
BBX 9 15 0 -3
BITMAP
1800
1800
0000
FC00
C600
C300
C300
C300
C300
C300
C600
FC00
0000
0000
0000
ENDCHAR

STARTCHAR uni1E0B
ENCODING 7691
SWIDTH 785 0
DWIDTH 9 0
BBX 9 15 0 -3
BITMAP
3000
3000
0300
0300
0300
3B00
6700
C300
C300
C300
6700
3B00
0000
0000
0000
ENDCHAR

STARTCHAR uni1E0C
ENCODING 7692
SWIDTH 785 0
DWIDTH 9 0
BBX 9 15 0 -3
BITMAP
0000
0000
FC00
C600
C300
C300
C300
C300
C300
C300
C600
FC00
0000
1800
1800
ENDCHAR

STARTCHAR uni1E0D
ENCODING 7693
SWIDTH 785 0
DWIDTH 9 0
BBX 9 15 0 -3
BITMAP
0000
0000
0300
0300
0300
3B00
6700
C300
C300
C300
6700
3B00
0000
1800
1800
ENDCHAR

STARTCHAR uni1E0E
ENCODING 7694
SWIDTH 785 0
DWIDTH 9 0
BBX 9 15 0 -3
BITMAP
0000
0000
FC00
C600
C300
C300
C300
C300
C300
C300
C600
FC00
0000
7E00
0000
ENDCHAR

STARTCHAR uni1E0F
ENCODING 7695
SWIDTH 785 0
DWIDTH 9 0
BBX 9 15 0 -3
BITMAP
0000
0000
0300
0300
0300
3B00
6700
C300
C300
C300
6700
3B00
0000
7E00
0000
ENDCHAR

STARTCHAR uni1E10
ENCODING 7696
SWIDTH 785 0
DWIDTH 9 0
BBX 9 15 0 -3
BITMAP
0000
0000
FC00
C600
C300
C300
C300
C300
C300
C300
C600
FC00
1800
C800
7000
ENDCHAR

STARTCHAR uni1E11
ENCODING 7697
SWIDTH 785 0
DWIDTH 9 0
BBX 9 15 0 -3
BITMAP
0000
0000
0300
0300
0300
3B00
6700
C300
C300
C300
6700
3B00
0C00
6400
3800
ENDCHAR

STARTCHAR uni1E12
ENCODING 7698
SWIDTH 785 0
DWIDTH 9 0
BBX 9 15 0 -3
BITMAP
0000
0000
FC00
C600
C300
C300
C300
C300
C300
C300
C600
FC00
0000
1800
3400
ENDCHAR

STARTCHAR uni1E13
ENCODING 7699
SWIDTH 785 0
DWIDTH 9 0
BBX 9 15 0 -3
BITMAP
0000
0000
0300
0300
0300
3B00
6700
C300
C300
C300
6700
3B00
0000
1800
3400
ENDCHAR

STARTCHAR uni1E14
ENCODING 7700
SWIDTH 785 0
DWIDTH 9 0
BBX 9 15 0 -3
BITMAP
1800
0C00
0000
3F00
0000
7F00
6000
6000
7E00
6000
6000
7F00
0000
0000
0000
ENDCHAR

STARTCHAR uni1E15
ENCODING 7701
SWIDTH 785 0
DWIDTH 9 0
BBX 9 15 0 -3
BITMAP
3000
1800
0000
7E00
0000
3C00
6600
C300
FF00
C000
6300
3E00
0000
0000
0000
ENDCHAR

STARTCHAR uni1E16
ENCODING 7702
SWIDTH 785 0
DWIDTH 9 0
BBX 9 15 0 -3
BITMAP
0600
0C00
0000
3F00
0000
7F00
6000
6000
7E00
6000
6000
7F00
0000
0000
0000
ENDCHAR

STARTCHAR uni1E17
ENCODING 7703
SWIDTH 785 0
DWIDTH 9 0
BBX 9 15 0 -3
BITMAP
0C00
1800
0000
7E00
0000
3C00
6600
C300
FF00
C000
6300
3E00
0000
0000
0000
ENDCHAR

STARTCHAR uni1E18
ENCODING 7704
SWIDTH 785 0
DWIDTH 9 0
BBX 9 15 0 -3
BITMAP
0000
0000
7F00
6000
6000
6000
7E00
6000
6000
6000
6000
7F00
0000
0C00
1A00
ENDCHAR

STARTCHAR uni1E19
ENCODING 7705
SWIDTH 785 0
DWIDTH 9 0
BBX 9 15 0 -3
BITMAP
0000
0000
0000
0000
0000
3C00
6600
C300
FF00
C000
6300
3E00
0000
1800
3400
ENDCHAR

STARTCHAR uni1E1A
ENCODING 7706
SWIDTH 785 0
DWIDTH 9 0
BBX 9 15 0 -3
BITMAP
0000
0000
7F00
6000
6000
6000
7E00
6000
6000
6000
6000
7F00
0000
3200
4C00
ENDCHAR

STARTCHAR uni1E1B
ENCODING 7707
SWIDTH 785 0
DWIDTH 9 0
BBX 9 15 0 -3
BITMAP
0000
0000
0000
0000
0000
3C00
6600
C300
FF00
C000
6300
3E00
0000
3200
4C00
ENDCHAR

STARTCHAR uni1E1C
ENCODING 7708
SWIDTH 785 0
DWIDTH 9 0
BBX 9 15 0 -3
BITMAP
0000
2200
1C00
0000
7F00
6000
6000
7E00
6000
6000
6000
7F00
0C00
2400
1800
ENDCHAR

STARTCHAR uni1E1D
ENCODING 7709
SWIDTH 785 0
DWIDTH 9 0
BBX 9 15 0 -3
BITMAP
0000
0000
2200
1C00
0000
3C00
6600
C300
FF00
C000
6300
3E00
0C00
2400
1800
ENDCHAR

STARTCHAR uni1E1E
ENCODING 7710
SWIDTH 785 0
DWIDTH 9 0
BBX 9 15 0 -3
BITMAP
1800
1800
0000
FF00
C000
C000
C000
FC00
C000
C000
C000
C000
0000
0000
0000
ENDCHAR

STARTCHAR uni1E1F
ENCODING 7711
SWIDTH 785 0
DWIDTH 9 0
BBX 9 15 0 -3
BITMAP
0C00
0C00
0000
1E00
3300
3300
3000
3000
FC00
3000
3000
3000
0000
0000
0000
ENDCHAR

STARTCHAR uni1E20
ENCODING 7712
SWIDTH 785 0
DWIDTH 9 0
BBX 9 15 0 -3
BITMAP
0000
7E00
0000
3E00
6300
C000
C000
C000
C700
C300
6300
3E00
0000
0000
0000
ENDCHAR

STARTCHAR uni1E21
ENCODING 7713
SWIDTH 785 0
DWIDTH 9 0
BBX 9 15 0 -3
BITMAP
0000
0000
0000
7E00
0000
7D00
C700
C600
C600
7C00
C000
7E00
C300
C300
7E00
ENDCHAR

STARTCHAR uni1E22
ENCODING 7714
SWIDTH 785 0
DWIDTH 9 0
BBX 9 15 0 -3
BITMAP
1800
1800
0000
C300
C300
C300
C300
FF00
C300
C300
C300
C300
0000
0000
0000
ENDCHAR

STARTCHAR uni1E23
ENCODING 7715
SWIDTH 785 0
DWIDTH 9 0
BBX 9 15 0 -3
BITMAP
0C00
0C00
C000
C000
C000
DC00
E600
C300
C300
C300
C300
C300
0000
0000
0000
ENDCHAR

STARTCHAR uni1E24
ENCODING 7716
SWIDTH 785 0
DWIDTH 9 0
BBX 9 15 0 -3
BITMAP
0000
0000
C300
C300
C300
C300
FF00
C300
C300
C300
C300
C300
0000
1800
1800
ENDCHAR

STARTCHAR uni1E25
ENCODING 7717
SWIDTH 785 0
DWIDTH 9 0
BBX 9 15 0 -3
BITMAP
0000
0000
C000
C000
C000
DC00
E600
C300
C300
C300
C300
C300
0000
1800
1800
ENDCHAR

STARTCHAR uni1E26
ENCODING 7718
SWIDTH 785 0
DWIDTH 9 0
BBX 9 15 0 -3
BITMAP
6600
6600
0000
C300
C300
C300
C300
FF00
C300
C300
C300
C300
0000
0000
0000
ENDCHAR

STARTCHAR uni1E27
ENCODING 7719
SWIDTH 785 0
DWIDTH 9 0
BBX 9 15 0 -3
BITMAP
0000
3300
3300
0000
C000
C000
DC00
E600
C300
C300
C300
C300
0000
0000
0000
ENDCHAR

STARTCHAR uni1E28
ENCODING 7720
SWIDTH 785 0
DWIDTH 9 0
BBX 9 15 0 -3
BITMAP
0000
0000
6180
6180
6180
6180
7F80
6180
6180
6180
6180
6180
1800
C800
7000
ENDCHAR

STARTCHAR uni1E29
ENCODING 7721
SWIDTH 785 0
DWIDTH 9 0
BBX 9 15 0 -3
BITMAP
0000
0000
6000
6000
6000
6E00
7300
6180
6180
6180
6180
6180
1800
C800
7000
ENDCHAR

STARTCHAR uni1E2A
ENCODING 7722
SWIDTH 785 0
DWIDTH 9 0
BBX 9 15 0 -3
BITMAP
0000
0000
C300
C300
C300
C300
FF00
C300
C300
C300
C300
C300
0000
2200
1C00
ENDCHAR

STARTCHAR uni1E2B
ENCODING 7723
SWIDTH 785 0
DWIDTH 9 0
BBX 9 15 0 -3
BITMAP
0000
0000
C000
C000
C000
DC00
E600
C300
C300
C300
C300
C300
0000
2200
1C00
ENDCHAR

STARTCHAR uni1E2C
ENCODING 7724
SWIDTH 785 0
DWIDTH 9 0
BBX 9 15 0 -3
BITMAP
0000
0000
7E00
1800
1800
1800
1800
1800
1800
1800
1800
7E00
0000
3200
4C00
ENDCHAR

STARTCHAR uni1E2D
ENCODING 7725
SWIDTH 785 0
DWIDTH 9 0
BBX 9 15 0 -3
BITMAP
0000
0000
1800
1800
0000
3800
1800
1800
1800
1800
1800
7E00
0000
3200
4C00
ENDCHAR

STARTCHAR uni1E2E
ENCODING 7726
SWIDTH 785 0
DWIDTH 9 0
BBX 9 15 0 -3
BITMAP
0C00
1800
0000
6600
0000
7E00
1800
1800
1800
1800
1800
7E00
0000
0000
0000
ENDCHAR

STARTCHAR uni1E2F
ENCODING 7727
SWIDTH 785 0
DWIDTH 9 0
BBX 9 15 0 -3
BITMAP
0C00
1800
0000
6600
0000
3800
1800
1800
1800
1800
1800
7E00
0000
0000
0000
ENDCHAR

STARTCHAR uni1E30
ENCODING 7728
SWIDTH 785 0
DWIDTH 9 0
BBX 9 15 0 -3
BITMAP
0C00
1800
C300
C600
CC00
D800
F000
F000
D800
CC00
C600
C300
0000
0000
0000
ENDCHAR

STARTCHAR uni1E31
ENCODING 7729
SWIDTH 785 0
DWIDTH 9 0
BBX 9 15 0 -3
BITMAP
0600
0C00
6000
6000
6000
6600
6C00
7800
7800
6C00
6600
6300
0000
0000
0000
ENDCHAR

STARTCHAR uni1E32
ENCODING 7730
SWIDTH 785 0
DWIDTH 9 0
BBX 9 15 0 -3
BITMAP
0000
0000
C300
C600
CC00
D800
F000
F000
D800
CC00
C600
C300
0000
1800
1800
ENDCHAR

STARTCHAR uni1E33
ENCODING 7731
SWIDTH 785 0
DWIDTH 9 0
BBX 9 15 0 -3
BITMAP
0000
0000
6000
6000
6000
6600
6C00
7800
7800
6C00
6600
6300
0000
0C00
0C00
ENDCHAR

STARTCHAR uni1E34
ENCODING 7732
SWIDTH 785 0
DWIDTH 9 0
BBX 9 15 0 -3
BITMAP
0000
0000
C300
C600
CC00
D800
F000
F000
D800
CC00
C600
C300
0000
7E00
0000
ENDCHAR

STARTCHAR uni1E35
ENCODING 7733
SWIDTH 785 0
DWIDTH 9 0
BBX 9 15 0 -3
BITMAP
0000
0000
6000
6000
6000
6600
6C00
7800
7800
6C00
6600
6300
0000
3F00
0000
ENDCHAR

STARTCHAR uni1E36
ENCODING 7734
SWIDTH 785 0
DWIDTH 9 0
BBX 9 15 0 -3
BITMAP
0000
0000
6000
6000
6000
6000
6000
6000
6000
6000
6000
7F00
0000
0C00
0C00
ENDCHAR

STARTCHAR uni1E37
ENCODING 7735
SWIDTH 785 0
DWIDTH 9 0
BBX 9 15 0 -3
BITMAP
0000
0000
3800
1800
1800
1800
1800
1800
1800
1800
1800
7E00
0000
1800
1800
ENDCHAR

STARTCHAR uni1E38
ENCODING 7736
SWIDTH 785 0
DWIDTH 9 0
BBX 9 15 0 -3
BITMAP
0000
7F00
0000
6000
6000
6000
6000
6000
6000
6000
6000
7F00
0000
0C00
0C00
ENDCHAR

STARTCHAR uni1E39
ENCODING 7737
SWIDTH 785 0
DWIDTH 9 0
BBX 9 15 0 -3
BITMAP
0000
7E00
0000
3800
1800
1800
1800
1800
1800
1800
1800
7E00
0000
1800
1800
ENDCHAR

STARTCHAR uni1E3A
ENCODING 7738
SWIDTH 785 0
DWIDTH 9 0
BBX 9 15 0 -3
BITMAP
0000
0000
6000
6000
6000
6000
6000
6000
6000
6000
6000
7F00
0000
3F00
0000
ENDCHAR

STARTCHAR uni1E3B
ENCODING 7739
SWIDTH 785 0
DWIDTH 9 0
BBX 9 15 0 -3
BITMAP
0000
0000
3800
1800
1800
1800
1800
1800
1800
1800
1800
7E00
0000
7E00
0000
ENDCHAR

STARTCHAR uni1E3C
ENCODING 7740
SWIDTH 785 0
DWIDTH 9 0
BBX 9 15 0 -3
BITMAP
0000
0000
6000
6000
6000
6000
6000
6000
6000
6000
6000
7F00
0000
1800
3400
ENDCHAR

STARTCHAR uni1E3D
ENCODING 7741
SWIDTH 785 0
DWIDTH 9 0
BBX 9 15 0 -3
BITMAP
0000
0000
3800
1800
1800
1800
1800
1800
1800
1800
1800
7E00
0000
1800
3400
ENDCHAR

STARTCHAR uni1E3E
ENCODING 7742
SWIDTH 785 0
DWIDTH 9 0
BBX 9 15 0 -3
BITMAP
0600
0C00
1800
C300
E700
FF00
DB00
DB00
DB00
C300
C300
C300
0000
0000
0000
ENDCHAR

STARTCHAR uni1E3F
ENCODING 7743
SWIDTH 785 0
DWIDTH 9 0
BBX 9 15 0 -3
BITMAP
0000
0600
0C00
1800
0000
B600
DB00
DB00
DB00
DB00
DB00
DB00
0000
0000
0000
ENDCHAR

STARTCHAR uni1E40
ENCODING 7744
SWIDTH 785 0
DWIDTH 9 0
BBX 9 15 0 -3
BITMAP
1800
1800
C300
E700
FF00
DB00
DB00
DB00
C300
C300
C300
C300
0000
0000
0000
ENDCHAR

STARTCHAR uni1E41
ENCODING 7745
SWIDTH 785 0
DWIDTH 9 0
BBX 9 15 0 -3
BITMAP
0000
0000
1800
1800
0000
B600
DB00
DB00
DB00
DB00
DB00
DB00
0000
0000
0000
ENDCHAR

STARTCHAR uni1E42
ENCODING 7746
SWIDTH 785 0
DWIDTH 9 0
BBX 9 15 0 -3
BITMAP
0000
0000
C300
E700
FF00
DB00
DB00
DB00
C300
C300
C300
C300
0000
1800
1800
ENDCHAR

STARTCHAR uni1E43
ENCODING 7747
SWIDTH 785 0
DWIDTH 9 0
BBX 9 15 0 -3
BITMAP
0000
0000
0000
0000
0000
B600
DB00
DB00
DB00
DB00
DB00
DB00
0000
1800
1800
ENDCHAR

STARTCHAR uni1E44
ENCODING 7748
SWIDTH 785 0
DWIDTH 9 0
BBX 9 15 0 -3
BITMAP
1800
1800
C300
E300
F300
F300
DB00
DB00
CF00
C700
C700
C300
0000
0000
0000
ENDCHAR

STARTCHAR uni1E45
ENCODING 7749
SWIDTH 785 0
DWIDTH 9 0
BBX 9 15 0 -3
BITMAP
0000
0000
1800
1800
0000
DC00
E600
C300
C300
C300
C300
C300
0000
0000
0000
ENDCHAR

STARTCHAR uni1E46
ENCODING 7750
SWIDTH 785 0
DWIDTH 9 0
BBX 9 15 0 -3
BITMAP
0000
0000
C300
E300
F300
F300
DB00
DB00
CF00
C700
C700
C300
0000
1800
1800
ENDCHAR

STARTCHAR uni1E47
ENCODING 7751
SWIDTH 785 0
DWIDTH 9 0
BBX 9 15 0 -3
BITMAP
0000
0000
0000
0000
0000
DC00
E600
C300
C300
C300
C300
C300
0000
1800
1800
ENDCHAR

STARTCHAR uni1E48
ENCODING 7752
SWIDTH 785 0
DWIDTH 9 0
BBX 9 15 0 -3
BITMAP
0000
0000
C300
E300
F300
F300
DB00
DB00
CF00
C700
C700
C300
0000
7E00
0000
ENDCHAR

STARTCHAR uni1E49
ENCODING 7753
SWIDTH 785 0
DWIDTH 9 0
BBX 9 15 0 -3
BITMAP
0000
0000
0000
0000
0000
DC00
E600
C300
C300
C300
C300
C300
0000
7E00
0000
ENDCHAR

STARTCHAR uni1E4A
ENCODING 7754
SWIDTH 785 0
DWIDTH 9 0
BBX 9 15 0 -3
BITMAP
0000
0000
C300
E300
F300
F300
DB00
DB00
CF00
C700
C700
C300
1800
3C00
6600
ENDCHAR

STARTCHAR uni1E4B
ENCODING 7755
SWIDTH 785 0
DWIDTH 9 0
BBX 9 15 0 -3
BITMAP
0000
0000
0000
0000
0000
DC00
E600
C300
C300
C300
C300
C300
1800
3C00
6600
ENDCHAR

STARTCHAR uni1E4C
ENCODING 7756
SWIDTH 785 0
DWIDTH 9 0
BBX 9 15 0 -3
BITMAP
1800
2000
1400
2800
3C00
6600
C300
C300
C300
C300
6600
3C00
0000
0000
0000
ENDCHAR

STARTCHAR uni1E4D
ENCODING 7757
SWIDTH 785 0
DWIDTH 9 0
BBX 9 15 0 -3
BITMAP
1800
2000
1400
2800
0000
3C00
6600
C300
C300
C300
6600
3C00
0000
0000
0000
ENDCHAR

STARTCHAR uni1E4E
ENCODING 7758
SWIDTH 785 0
DWIDTH 9 0
BBX 9 15 0 -3
BITMAP
1400
0000
0A00
1400
3C00
6600
C300
C300
C300
C300
6600
3C00
0000
0000
0000
ENDCHAR

STARTCHAR uni1E4F
ENCODING 7759
SWIDTH 785 0
DWIDTH 9 0
BBX 9 15 0 -3
BITMAP
1400
0000
0A00
1400
0000
3C00
6600
C300
C300
C300
6600
3C00
0000
0000
0000
ENDCHAR

STARTCHAR uni1E50
ENCODING 7760
SWIDTH 785 0
DWIDTH 9 0
BBX 9 15 0 -3
BITMAP
3000
1800
7E00
0000
3C00
6600
C300
C300
C300
C300
6600
3C00
0000
0000
0000
ENDCHAR

STARTCHAR uni1E51
ENCODING 7761
SWIDTH 785 0
DWIDTH 9 0
BBX 9 15 0 -3
BITMAP
3000
1800
0000
7E00
0000
3C00
6600
C300
C300
C300
6600
3C00
0000
0000
0000
ENDCHAR

STARTCHAR uni1E52
ENCODING 7762
SWIDTH 785 0
DWIDTH 9 0
BBX 9 15 0 -3
BITMAP
0C00
1800
7E00
0000
3C00
6600
C300
C300
C300
C300
6600
3C00
0000
0000
0000
ENDCHAR

STARTCHAR uni1E53
ENCODING 7763
SWIDTH 785 0
DWIDTH 9 0
BBX 9 15 0 -3
BITMAP
0C00
1800
0000
7E00
0000
3C00
6600
C300
C300
C300
6600
3C00
0000
0000
0000
ENDCHAR

STARTCHAR uni1E54
ENCODING 7764
SWIDTH 785 0
DWIDTH 9 0
BBX 9 15 0 -3
BITMAP
0600
0C00
1800
0000
FE00
C300
C300
C300
FE00
C000
C000
C000
0000
0000
0000
ENDCHAR

STARTCHAR uni1E55
ENCODING 7765
SWIDTH 785 0
DWIDTH 9 0
BBX 9 15 0 -3
BITMAP
0000
0600
0C00
1800
0000
DC00
E600
C300
C300
C300
E600
DC00
C000
C000
C000
ENDCHAR

STARTCHAR uni1E56
ENCODING 7766
SWIDTH 785 0
DWIDTH 9 0
BBX 9 15 0 -3
BITMAP
1800
1800
0000
FE00
C300
C300
C300
FE00
C000
C000
C000
C000
0000
0000
0000
ENDCHAR

STARTCHAR uni1E57
ENCODING 7767
SWIDTH 785 0
DWIDTH 9 0
BBX 9 15 0 -3
BITMAP
0000
0000
1800
1800
0000
DC00
E600
C300
C300
C300
E600
DC00
C000
C000
C000
ENDCHAR

STARTCHAR uni1E58
ENCODING 7768
SWIDTH 785 0
DWIDTH 9 0
BBX 9 15 0 -3
BITMAP
1800
1800
0000
FE00
C300
C300
C300
FE00
F800
CC00
C600
C300
0000
0000
0000
ENDCHAR

STARTCHAR uni1E59
ENCODING 7769
SWIDTH 785 0
DWIDTH 9 0
BBX 9 15 0 -3
BITMAP
0000
0000
1800
1800
0000
DE00
7300
6000
6000
6000
6000
6000
0000
0000
0000
ENDCHAR

STARTCHAR uni1E5A
ENCODING 7770
SWIDTH 785 0
DWIDTH 9 0
BBX 9 15 0 -3
BITMAP
0000
0000
FE00
C300
C300
C300
FE00
F800
CC00
C600
C300
C300
0000
1800
1800
ENDCHAR

STARTCHAR uni1E5B
ENCODING 7771
SWIDTH 785 0
DWIDTH 9 0
BBX 9 15 0 -3
BITMAP
0000
0000
0000
0000
0000
DE00
7300
6000
6000
6000
6000
6000
0000
1800
1800
ENDCHAR

STARTCHAR uni1E5C
ENCODING 7772
SWIDTH 785 0
DWIDTH 9 0
BBX 9 15 0 -3
BITMAP
0000
7E00
0000
FE00
C300
C300
C300
FE00
F800
CC00
C600
C300
0000
1800
1800
ENDCHAR

STARTCHAR uni1E5D
ENCODING 7773
SWIDTH 785 0
DWIDTH 9 0
BBX 9 15 0 -3
BITMAP
0000
0000
0000
7E00
0000
DE00
7300
6000
6000
6000
6000
6000
0000
1800
1800
ENDCHAR

STARTCHAR uni1E5E
ENCODING 7774
SWIDTH 785 0
DWIDTH 9 0
BBX 9 15 0 -3
BITMAP
0000
0000
FE00
C300
C300
C300
FE00
F800
CC00
C600
C300
C300
0000
7E00
0000
ENDCHAR

STARTCHAR uni1E5F
ENCODING 7775
SWIDTH 785 0
DWIDTH 9 0
BBX 9 15 0 -3
BITMAP
0000
0000
0000
0000
0000
DE00
7300
6000
6000
6000
6000
6000
0000
7E00
0000
ENDCHAR

STARTCHAR uni1E60
ENCODING 7776
SWIDTH 785 0
DWIDTH 9 0
BBX 9 15 0 -3
BITMAP
1800
1800
0000
7E00
C300
C000
C000
7E00
0300
0300
C300
7E00
0000
0000
0000
ENDCHAR

STARTCHAR uni1E61
ENCODING 7777
SWIDTH 785 0
DWIDTH 9 0
BBX 9 15 0 -3
BITMAP
0000
0000
1800
1800
0000
7E00
C300
C000
7E00
0300
C300
7E00
0000
0000
0000
ENDCHAR

STARTCHAR uni1E62
ENCODING 7778
SWIDTH 785 0
DWIDTH 9 0
BBX 9 15 0 -3
BITMAP
0000
0000
7E00
C300
C000
C000
7E00
0300
0300
0300
C300
7E00
0000
1800
1800
ENDCHAR

STARTCHAR uni1E63
ENCODING 7779
SWIDTH 785 0
DWIDTH 9 0
BBX 9 15 0 -3
BITMAP
0000
0000
0000
0000
0000
7E00
C300
C000
7E00
0300
C300
7E00
0000
1800
1800
ENDCHAR

STARTCHAR uni1E64
ENCODING 7780
SWIDTH 785 0
DWIDTH 9 0
BBX 9 15 0 -3
BITMAP
6000
0C00
1800
0000
7E00
C300
C000
7E00
0300
0300
C300
7E00
0000
0000
0000
ENDCHAR

STARTCHAR uni1E65
ENCODING 7781
SWIDTH 785 0
DWIDTH 9 0
BBX 9 15 0 -3
BITMAP
0000
6000
0C00
1800
0000
7E00
C300
C000
7E00
0300
C300
7E00
0000
0000
0000
ENDCHAR

STARTCHAR uni1E66
ENCODING 7782
SWIDTH 785 0
DWIDTH 9 0
BBX 9 15 0 -3
BITMAP
0800
0000
3400
1800
7E00
C300
C000
7E00
0300
0300
C300
7E00
0000
0000
0000
ENDCHAR

STARTCHAR uni1E67
ENCODING 7783
SWIDTH 785 0
DWIDTH 9 0
BBX 9 15 0 -3
BITMAP
0800
0000
3400
1800
0000
7E00
C300
C000
7E00
0300
C300
7E00
0000
0000
0000
ENDCHAR

STARTCHAR uni1E68
ENCODING 7784
SWIDTH 785 0
DWIDTH 9 0
BBX 9 15 0 -3
BITMAP
1800
1800
0000
7E00
C300
C000
C000
7E00
0300
0300
C300
7E00
0000
1800
1800
ENDCHAR

STARTCHAR uni1E69
ENCODING 7785
SWIDTH 785 0
DWIDTH 9 0
BBX 9 15 0 -3
BITMAP
0000
0000
1800
1800
0000
7E00
C300
C000
7E00
0300
C300
7E00
0000
1800
1800
ENDCHAR

STARTCHAR uni1E6A
ENCODING 7786
SWIDTH 785 0
DWIDTH 9 0
BBX 9 15 0 -3
BITMAP
1800
1800
0000
FF00
1800
1800
1800
1800
1800
1800
1800
1800
0000
0000
0000
ENDCHAR

STARTCHAR uni1E6B
ENCODING 7787
SWIDTH 785 0
DWIDTH 9 0
BBX 9 15 0 -3
BITMAP
0C00
0C00
0000
3000
3000
FC00
3000
3000
3000
3000
3300
1E00
0000
0000
0000
ENDCHAR

STARTCHAR uni1E6C
ENCODING 7788
SWIDTH 785 0
DWIDTH 9 0
BBX 9 15 0 -3
BITMAP
0000
0000
FF00
1800
1800
1800
1800
1800
1800
1800
1800
1800
0000
1800
1800
ENDCHAR

STARTCHAR uni1E6D
ENCODING 7789
SWIDTH 785 0
DWIDTH 9 0
BBX 9 15 0 -3
BITMAP
0000
0000
0000
3000
3000
FC00
3000
3000
3000
3000
3300
1E00
0000
0C00
0C00
ENDCHAR

STARTCHAR uni1E6E
ENCODING 7790
SWIDTH 785 0
DWIDTH 9 0
BBX 9 15 0 -3
BITMAP
0000
0000
FF00
1800
1800
1800
1800
1800
1800
1800
1800
1800
0000
7E00
0000
ENDCHAR

STARTCHAR uni1E6F
ENCODING 7791
SWIDTH 785 0
DWIDTH 9 0
BBX 9 15 0 -3
BITMAP
0000
0000
0000
3000
3000
FC00
3000
3000
3000
3000
3300
1E00
0000
7F00
0000
ENDCHAR

STARTCHAR uni1E70
ENCODING 7792
SWIDTH 785 0
DWIDTH 9 0
BBX 9 15 0 -3
BITMAP
0000
0000
FF00
1800
1800
1800
1800
1800
1800
1800
1800
1800
0000
1800
2400
ENDCHAR

STARTCHAR uni1E71
ENCODING 7793
SWIDTH 785 0
DWIDTH 9 0
BBX 9 15 0 -3
BITMAP
0000
0000
0000
3000
3000
FC00
3000
3000
3000
3000
3300
1E00
0000
1800
2400
ENDCHAR

STARTCHAR uni1E72
ENCODING 7794
SWIDTH 785 0
DWIDTH 9 0
BBX 9 15 0 -3
BITMAP
0000
0000
C300
C300
C300
C300
C300
C300
C300
C300
6600
3C00
0000
6600
6600
ENDCHAR

STARTCHAR uni1E73
ENCODING 7795
SWIDTH 785 0
DWIDTH 9 0
BBX 9 15 0 -3
BITMAP
0000
0000
0000
0000
0000
C300
C300
C300
C300
C300
6700
3B00
0000
6600
6600
ENDCHAR

STARTCHAR uni1E74
ENCODING 7796
SWIDTH 785 0
DWIDTH 9 0
BBX 9 15 0 -3
BITMAP
0000
0000
C300
C300
C300
C300
C300
C300
C300
C300
6600
3C00
0000
3200
4C00
ENDCHAR

STARTCHAR uni1E75
ENCODING 7797
SWIDTH 785 0
DWIDTH 9 0
BBX 9 15 0 -3
BITMAP
0000
0000
0000
0000
0000
C300
C300
C300
C300
C300
6700
3B00
0000
3200
4C00
ENDCHAR

STARTCHAR uni1E76
ENCODING 7798
SWIDTH 785 0
DWIDTH 9 0
BBX 9 15 0 -3
BITMAP
0000
0000
C300
C300
C300
C300
C300
C300
C300
C300
6600
3C00
0000
1800
3400
ENDCHAR

STARTCHAR uni1E77
ENCODING 7799
SWIDTH 785 0
DWIDTH 9 0
BBX 9 15 0 -3
BITMAP
0000
0000
0000
0000
0000
C300
C300
C300
C300
C300
6700
3B00
0000
1800
3400
ENDCHAR

STARTCHAR uni1E78
ENCODING 7800
SWIDTH 785 0
DWIDTH 9 0
BBX 9 15 0 -3
BITMAP
0C00
0800
3200
4C00
0000
C300
C300
C300
C300
C300
6600
3C00
0000
0000
0000
ENDCHAR

STARTCHAR uni1E79
ENCODING 7801
SWIDTH 785 0
DWIDTH 9 0
BBX 9 15 0 -3
BITMAP
0C00
0800
3200
4C00
0000
C300
C300
C300
C300
C300
6700
3B00
0000
0000
0000
ENDCHAR

STARTCHAR uni1E7A
ENCODING 7802
SWIDTH 785 0
DWIDTH 9 0
BBX 9 15 0 -3
BITMAP
6600
0000
7E00
0000
C300
C300
C300
C300
C300
C300
6600
3C00
0000
0000
0000
ENDCHAR

STARTCHAR uni1E7B
ENCODING 7803
SWIDTH 785 0
DWIDTH 9 0
BBX 9 15 0 -3
BITMAP
0000
6600
0000
7F00
0000
C300
C300
C300
C300
C300
6700
3B00
0000
0000
0000
ENDCHAR

STARTCHAR uni1E7C
ENCODING 7804
SWIDTH 785 0
DWIDTH 9 0
BBX 9 15 0 -3
BITMAP
3200
7E00
4C00
0000
C300
C300
6600
6600
3C00
3C00
1800
1800
0000
0000
0000
ENDCHAR

STARTCHAR uni1E7D
ENCODING 7805
SWIDTH 785 0
DWIDTH 9 0
BBX 9 15 0 -3
BITMAP
0000
3200
7E00
4C00
0000
C300
C300
6600
6600
3C00
3C00
1800
0000
0000
0000
ENDCHAR

STARTCHAR uni1E7E
ENCODING 7806
SWIDTH 785 0
DWIDTH 9 0
BBX 9 15 0 -3
BITMAP
0000
0000
C300
C300
C300
6600
6600
6600
3C00
3C00
1800
1800
0000
1800
1800
ENDCHAR

STARTCHAR uni1E7F
ENCODING 7807
SWIDTH 785 0
DWIDTH 9 0
BBX 9 15 0 -3
BITMAP
0000
0000
0000
0000
0000
C300
C300
6600
6600
3C00
3C00
1800
0000
1800
1800
ENDCHAR

STARTCHAR Wgrave
ENCODING 7808
SWIDTH 785 0
DWIDTH 9 0
BBX 9 15 0 -3
BITMAP
6000
3000
1800
C300
C300
C300
DB00
DB00
DB00
FF00
E700
C300
0000
0000
0000
ENDCHAR

STARTCHAR wgrave
ENCODING 7809
SWIDTH 785 0
DWIDTH 9 0
BBX 9 15 0 -3
BITMAP
0000
6000
3000
1800
0000
C300
C300
DB00
DB00
DB00
FF00
6600
0000
0000
0000
ENDCHAR

STARTCHAR Wacute
ENCODING 7810
SWIDTH 785 0
DWIDTH 9 0
BBX 9 15 0 -3
BITMAP
0600
0C00
1800
C300
C300
C300
DB00
DB00
DB00
FF00
E700
C300
0000
0000
0000
ENDCHAR

STARTCHAR wacute
ENCODING 7811
SWIDTH 785 0
DWIDTH 9 0
BBX 9 15 0 -3
BITMAP
0000
0600
0C00
1800
0000
C300
C300
DB00
DB00
DB00
FF00
6600
0000
0000
0000
ENDCHAR

STARTCHAR Wdieresis
ENCODING 7812
SWIDTH 785 0
DWIDTH 9 0
BBX 9 15 0 -3
BITMAP
0000
6600
6600
0000
C300
C300
DB00
DB00
DB00
FF00
E700
C300
0000
0000
0000
ENDCHAR

STARTCHAR wdieresis
ENCODING 7813
SWIDTH 785 0
DWIDTH 9 0
BBX 9 15 0 -3
BITMAP
0000
0000
6600
6600
0000
C300
C300
DB00
DB00
DB00
FF00
6600
0000
0000
0000
ENDCHAR

STARTCHAR uni1E86
ENCODING 7814
SWIDTH 785 0
DWIDTH 9 0
BBX 9 15 0 -3
BITMAP
0000
1800
1800
C300
C300
C300
DB00
DB00
DB00
FF00
E700
C300
0000
0000
0000
ENDCHAR

STARTCHAR uni1E87
ENCODING 7815
SWIDTH 785 0
DWIDTH 9 0
BBX 9 15 0 -3
BITMAP
0000
0000
1800
1800
0000
C300
C300
DB00
DB00
DB00
FF00
6600
0000
0000
0000
ENDCHAR

STARTCHAR uni1E88
ENCODING 7816
SWIDTH 785 0
DWIDTH 9 0
BBX 9 15 0 -3
BITMAP
0000
0000
C300
C300
C300
C300
DB00
DB00
DB00
FF00
E700
C300
0000
1800
1800
ENDCHAR

STARTCHAR uni1E89
ENCODING 7817
SWIDTH 785 0
DWIDTH 9 0
BBX 9 15 0 -3
BITMAP
0000
0000
0000
0000
0000
C300
C300
DB00
DB00
DB00
FF00
6600
0000
1800
1800
ENDCHAR

STARTCHAR uni1E8A
ENCODING 7818
SWIDTH 785 0
DWIDTH 9 0
BBX 9 15 0 -3
BITMAP
0000
1800
1800
C300
C300
6600
3C00
1800
3C00
6600
C300
C300
0000
0000
0000
ENDCHAR

STARTCHAR uni1E8B
ENCODING 7819
SWIDTH 785 0
DWIDTH 9 0
BBX 9 15 0 -3
BITMAP
0000
0000
1800
1800
0000
C300
6600
3C00
1800
3C00
6600
C300
0000
0000
0000
ENDCHAR

STARTCHAR uni1E8C
ENCODING 7820
SWIDTH 785 0
DWIDTH 9 0
BBX 9 15 0 -3
BITMAP
6600
6600
0000
C300
C300
6600
3C00
1800
3C00
6600
C300
C300
0000
0000
0000
ENDCHAR

STARTCHAR uni1E8D
ENCODING 7821
SWIDTH 785 0
DWIDTH 9 0
BBX 9 15 0 -3
BITMAP
0000
0000
6600
6600
0000
C300
6600
3C00
1800
3C00
6600
C300
0000
0000
0000
ENDCHAR

STARTCHAR uni1E8E
ENCODING 7822
SWIDTH 785 0
DWIDTH 9 0
BBX 9 15 0 -3
BITMAP
0000
1800
1800
C300
C300
6600
3C00
1800
1800
1800
1800
1800
0000
0000
0000
ENDCHAR

STARTCHAR uni1E8F
ENCODING 7823
SWIDTH 785 0
DWIDTH 9 0
BBX 9 15 0 -3
BITMAP
0000
0000
1800
1800
0000
C300
C300
C300
C300
C300
6700
3B00
0300
C600
7C00
ENDCHAR

STARTCHAR uni1E90
ENCODING 7824
SWIDTH 785 0
DWIDTH 9 0
BBX 9 15 0 -3
BITMAP
0C00
1E00
3300
0000
7F00
0300
0600
0C00
1800
3000
6000
7F00
0000
0000
0000
ENDCHAR

STARTCHAR uni1E91
ENCODING 7825
SWIDTH 785 0
DWIDTH 9 0
BBX 9 15 0 -3
BITMAP
0000
1800
3C00
6600
0000
7E00
0600
0C00
1800
3000
6000
7E00
0000
0000
0000
ENDCHAR

STARTCHAR uni1E92
ENCODING 7826
SWIDTH 785 0
DWIDTH 9 0
BBX 9 15 0 -3
BITMAP
0000
0000
7F00
0300
0300
0600
0C00
1800
3000
6000
6000
7F00
0000
0C00
0C00
ENDCHAR

STARTCHAR uni1E93
ENCODING 7827
SWIDTH 785 0
DWIDTH 9 0
BBX 9 15 0 -3
BITMAP
0000
0000
0000
0000
0000
7E00
0600
0C00
1800
3000
6000
7E00
0000
1800
1800
ENDCHAR

STARTCHAR uni1E94
ENCODING 7828
SWIDTH 785 0
DWIDTH 9 0
BBX 9 15 0 -3
BITMAP
0000
0000
7F00
0300
0300
0600
0C00
1800
3000
6000
6000
7F00
0000
3E00
0000
ENDCHAR

STARTCHAR uni1E95
ENCODING 7829
SWIDTH 785 0
DWIDTH 9 0
BBX 9 15 0 -3
BITMAP
0000
0000
0000
0000
0000
7E00
0600
0C00
1800
3000
6000
7E00
0000
7E00
0000
ENDCHAR

STARTCHAR uni1E96
ENCODING 7830
SWIDTH 785 0
DWIDTH 9 0
BBX 9 15 0 -3
BITMAP
0000
0000
C000
C000
C000
DC00
E600
C300
C300
C300
C300
C300
0000
7E00
0000
ENDCHAR

STARTCHAR uni1E97
ENCODING 7831
SWIDTH 785 0
DWIDTH 9 0
BBX 9 15 0 -3
BITMAP
0000
CC00
CC00
0000
3000
3000
FC00
3000
3000
3000
3300
1E00
0000
0000
0000
ENDCHAR

STARTCHAR uni1E98
ENCODING 7832
SWIDTH 785 0
DWIDTH 9 0
BBX 9 15 0 -3
BITMAP
0000
0000
1800
2400
1800
C300
C300
DB00
DB00
DB00
FF00
6600
0000
0000
0000
ENDCHAR

STARTCHAR uni1E99
ENCODING 7833
SWIDTH 785 0
DWIDTH 9 0
BBX 9 15 0 -3
BITMAP
0000
0000
1800
2400
1800
C300
C300
C300
C300
C300
6700
3B00
0300
C600
7C00
ENDCHAR

STARTCHAR uni1E9A
ENCODING 7834
SWIDTH 785 0
DWIDTH 9 0
BBX 9 15 0 -3
BITMAP
0C00
0600
0600
0C00
0000
3E00
6300
0300
7F00
C300
C700
7B00
0000
0000
0000
ENDCHAR

STARTCHAR uni1E9B
ENCODING 7835
SWIDTH 785 0
DWIDTH 9 0
BBX 9 15 0 -3
BITMAP
0000
6000
6000
0000
1E00
3300
3000
3000
FC00
3000
3000
3000
0000
0000
0000
ENDCHAR

STARTCHAR uni1EA0
ENCODING 7840
SWIDTH 785 0
DWIDTH 9 0
BBX 9 15 0 -3
BITMAP
0000
0000
1800
3C00
6600
C300
C300
C300
FF00
C300
C300
C300
0000
1800
1800
ENDCHAR

STARTCHAR uni1EA1
ENCODING 7841
SWIDTH 785 0
DWIDTH 9 0
BBX 9 15 0 -3
BITMAP
0000
0000
0000
0000
0000
3E00
6300
0300
7F00
C300
C700
7B00
0000
1800
1800
ENDCHAR

STARTCHAR uni1EA2
ENCODING 7842
SWIDTH 785 0
DWIDTH 9 0
BBX 9 15 0 -3
BITMAP
1800
3400
0400
0800
3C00
6600
C300
C300
C300
FF00
C300
C300
0000
0000
0000
ENDCHAR

STARTCHAR uni1EA3
ENCODING 7843
SWIDTH 785 0
DWIDTH 9 0
BBX 9 15 0 -3
BITMAP
0000
1800
3400
0400
0800
3E00
6300
0300
7F00
C300
C700
7B00
0000
0000
0000
ENDCHAR

STARTCHAR uni1EA4
ENCODING 7844
SWIDTH 785 0
DWIDTH 9 0
BBX 9 15 0 -3
BITMAP
0000
3300
6A00
0000
3C00
6600
C300
C300
C300
FF00
C300
C300
0000
0000
0000
ENDCHAR

STARTCHAR uni1EA5
ENCODING 7845
SWIDTH 785 0
DWIDTH 9 0
BBX 9 15 0 -3
BITMAP
0000
0000
3300
6A00
0000
3E00
6300
0300
7F00
C300
C700
7B00
0000
0000
0000
ENDCHAR

STARTCHAR uni1EA6
ENCODING 7846
SWIDTH 785 0
DWIDTH 9 0
BBX 9 15 0 -3
BITMAP
0000
CC00
5A00
0000
3C00
6600
C300
C300
C300
FF00
C300
C300
0000
0000
0000
ENDCHAR

STARTCHAR uni1EA7
ENCODING 7847
SWIDTH 785 0
DWIDTH 9 0
BBX 9 15 0 -3
BITMAP
0000
0000
6600
2D00
0000
3E00
6300
0300
7F00
C300
C700
7B00
0000
0000
0000
ENDCHAR

STARTCHAR uni1EA8
ENCODING 7848
SWIDTH 785 0
DWIDTH 9 0
BBX 9 15 0 -3
BITMAP
0000
6300
D600
0000
3C00
6600
C300
C300
C300
FF00
C300
C300
0000
0000
0000
ENDCHAR

STARTCHAR uni1EA9
ENCODING 7849
SWIDTH 785 0
DWIDTH 9 0
BBX 9 15 0 -3
BITMAP
0000
0100
6300
D600
0000
3E00
6300
0300
7F00
C300
C700
7B00
0000
0000
0000
ENDCHAR

STARTCHAR uni1EAA
ENCODING 7850
SWIDTH 785 0
DWIDTH 9 0
BBX 9 15 0 -3
BITMAP
0500
0A00
1C00
2200
0000
3C00
6600
C300
C300
FF00
C300
C300
0000
0000
0000
ENDCHAR

STARTCHAR uni1EAB
ENCODING 7851
SWIDTH 785 0
DWIDTH 9 0
BBX 9 15 0 -3
BITMAP
0500
0A00
1C00
2200
0000
3E00
6300
0300
7F00
C300
C700
7B00
0000
0000
0000
ENDCHAR

STARTCHAR uni1EAC
ENCODING 7852
SWIDTH 785 0
DWIDTH 9 0
BBX 9 15 0 -3
BITMAP
0000
3C00
4200
0000
3C00
6600
C300
C300
C300
FF00
C300
C300
0000
1800
1800
ENDCHAR

STARTCHAR uni1EAD
ENCODING 7853
SWIDTH 785 0
DWIDTH 9 0
BBX 9 15 0 -3
BITMAP
0000
0000
1C00
2200
0000
3E00
6300
0300
7F00
C300
C700
7B00
0000
1800
1800
ENDCHAR

STARTCHAR uni1EAE
ENCODING 7854
SWIDTH 785 0
DWIDTH 9 0
BBX 9 15 0 -3
BITMAP
0000
6B00
3200
0000
3C00
6600
C300
C300
C300
FF00
C300
C300
0000
0000
0000
ENDCHAR

STARTCHAR uni1EAF
ENCODING 7855
SWIDTH 785 0
DWIDTH 9 0
BBX 9 15 0 -3
BITMAP
0000
0000
6B00
3200
0000
3E00
6300
0300
7F00
C300
C700
7B00
0000
0000
0000
ENDCHAR

STARTCHAR uni1EB0
ENCODING 7856
SWIDTH 785 0
DWIDTH 9 0
BBX 9 15 0 -3
BITMAP
0000
D600
4C00
0000
3C00
6600
C300
C300
C300
FF00
C300
C300
0000
0000
0000
ENDCHAR

STARTCHAR uni1EB1
ENCODING 7857
SWIDTH 785 0
DWIDTH 9 0
BBX 9 15 0 -3
BITMAP
0000
0000
6B00
2600
0000
3E00
6300
0300
7F00
C300
C700
7B00
0000
0000
0000
ENDCHAR

STARTCHAR uni1EB2
ENCODING 7858
SWIDTH 785 0
DWIDTH 9 0
BBX 9 15 0 -3
BITMAP
0C00
0800
2200
1C00
0000
3C00
6600
C300
C300
FF00
C300
C300
0000
0000
0000
ENDCHAR

STARTCHAR uni1EB3
ENCODING 7859
SWIDTH 785 0
DWIDTH 9 0
BBX 9 15 0 -3
BITMAP
0C00
0800
2200
1C00
0000
3E00
6300
0300
7F00
C300
C700
7B00
0000
0000
0000
ENDCHAR

STARTCHAR uni1EB4
ENCODING 7860
SWIDTH 785 0
DWIDTH 9 0
BBX 9 15 0 -3
BITMAP
3600
2400
8100
7E00
0000
3C00
6600
C300
C300
FF00
C300
C300
0000
0000
0000
ENDCHAR

STARTCHAR uni1EB5
ENCODING 7861
SWIDTH 785 0
DWIDTH 9 0
BBX 9 15 0 -3
BITMAP
3600
2400
8100
7E00
0000
3E00
6300
0300
7F00
C300
C700
7B00
0000
0000
0000
ENDCHAR

STARTCHAR uni1EB6
ENCODING 7862
SWIDTH 785 0
DWIDTH 9 0
BBX 9 15 0 -3
BITMAP
0000
4200
3C00
0000
3C00
6600
C300
C300
C300
FF00
C300
C300
1800
1800
0000
ENDCHAR

STARTCHAR uni1EB7
ENCODING 7863
SWIDTH 785 0
DWIDTH 9 0
BBX 9 15 0 -3
BITMAP
0000
0000
4200
3C00
0000
3E00
6300
0300
7F00
C300
C700
7B00
0000
1800
1800
ENDCHAR

STARTCHAR uni1EB8
ENCODING 7864
SWIDTH 785 0
DWIDTH 9 0
BBX 9 15 0 -3
BITMAP
0000
0000
7F00
6000
6000
6000
7E00
6000
6000
6000
6000
7F00
0000
0C00
0C00
ENDCHAR

STARTCHAR uni1EB9
ENCODING 7865
SWIDTH 785 0
DWIDTH 9 0
BBX 9 15 0 -3
BITMAP
0000
0000
0000
0000
0000
3C00
6600
C300
FF00
C000
6300
3E00
0000
1800
1800
ENDCHAR

STARTCHAR uni1EBA
ENCODING 7866
SWIDTH 785 0
DWIDTH 9 0
BBX 9 15 0 -3
BITMAP
0C00
0600
0C00
0000
7F00
6000
6000
7E00
6000
6000
6000
7F00
0000
0000
0000
ENDCHAR

STARTCHAR uni1EBB
ENCODING 7867
SWIDTH 785 0
DWIDTH 9 0
BBX 9 15 0 -3
BITMAP
0000
1800
0C00
1800
0000
3C00
6600
C300
FF00
C000
6300
3E00
0000
0000
0000
ENDCHAR

STARTCHAR uni1EBC
ENCODING 7868
SWIDTH 785 0
DWIDTH 9 0
BBX 9 15 0 -3
BITMAP
3200
4C00
0000
7F00
6000
6000
6000
7E00
6000
6000
6000
7F00
0000
0000
0000
ENDCHAR

STARTCHAR uni1EBD
ENCODING 7869
SWIDTH 785 0
DWIDTH 9 0
BBX 9 15 0 -3
BITMAP
0000
0000
3200
4C00
0000
3C00
6600
C300
FF00
C000
6300
3E00
0000
0000
0000
ENDCHAR

STARTCHAR uni1EBE
ENCODING 7870
SWIDTH 785 0
DWIDTH 9 0
BBX 9 15 0 -3
BITMAP
0000
3300
6A00
0000
FE00
C000
C000
FC00
C000
C000
C000
FE00
0000
0000
0000
ENDCHAR

STARTCHAR uni1EBF
ENCODING 7871
SWIDTH 785 0
DWIDTH 9 0
BBX 9 15 0 -3
BITMAP
0000
0000
3300
6A00
0000
3C00
6600
C300
FF00
C000
6300
3E00
0000
0000
0000
ENDCHAR

STARTCHAR uni1EC0
ENCODING 7872
SWIDTH 785 0
DWIDTH 9 0
BBX 9 15 0 -3
BITMAP
0000
6600
2D00
0000
7F00
6000
6000
7E00
6000
6000
6000
7F00
0000
0000
0000
ENDCHAR

STARTCHAR uni1EC1
ENCODING 7873
SWIDTH 785 0
DWIDTH 9 0
BBX 9 15 0 -3
BITMAP
0000
0000
CC00
5A00
0000
3C00
6600
C300
FF00
C000
6300
3E00
0000
0000
0000
ENDCHAR

STARTCHAR uni1EC2
ENCODING 7874
SWIDTH 785 0
DWIDTH 9 0
BBX 9 15 0 -3
BITMAP
0600
6300
D600
0000
FE00
C000
C000
FC00
C000
C000
C000
FE00
0000
0000
0000
ENDCHAR

STARTCHAR uni1EC3
ENCODING 7875
SWIDTH 785 0
DWIDTH 9 0
BBX 9 15 0 -3
BITMAP
0000
0600
6300
D600
0000
3C00
6600
C300
FF00
C000
6300
3E00
0000
0000
0000
ENDCHAR

STARTCHAR uni1EC4
ENCODING 7876
SWIDTH 785 0
DWIDTH 9 0
BBX 9 15 0 -3
BITMAP
0A00
1400
1C00
2200
0000
7F00
6000
6000
7E00
6000
6000
7F00
0000
0000
0000
ENDCHAR

STARTCHAR uni1EC5
ENCODING 7877
SWIDTH 785 0
DWIDTH 9 0
BBX 9 15 0 -3
BITMAP
0A00
1400
1C00
2200
0000
3C00
6600
C300
FF00
C000
6300
3E00
0000
0000
0000
ENDCHAR

STARTCHAR uni1EC6
ENCODING 7878
SWIDTH 785 0
DWIDTH 9 0
BBX 9 15 0 -3
BITMAP
0000
1C00
2200
0000
7F00
6000
6000
7E00
6000
6000
6000
7F00
0000
0C00
0C00
ENDCHAR

STARTCHAR uni1EC7
ENCODING 7879
SWIDTH 785 0
DWIDTH 9 0
BBX 9 15 0 -3
BITMAP
0000
0000
3C00
4200
0000
3C00
6600
C300
FF00
C000
6300
3E00
0000
1800
1800
ENDCHAR

STARTCHAR uni1EC8
ENCODING 7880
SWIDTH 785 0
DWIDTH 9 0
BBX 9 15 0 -3
BITMAP
1800
0C00
1800
0000
3C00
1800
1800
1800
1800
1800
1800
7E00
0000
0000
0000
ENDCHAR

STARTCHAR uni1EC9
ENCODING 7881
SWIDTH 785 0
DWIDTH 9 0
BBX 9 15 0 -3
BITMAP
0000
1800
0C00
1800
0000
3800
1800
1800
1800
1800
1800
7E00
0000
0000
0000
ENDCHAR

STARTCHAR uni1ECA
ENCODING 7882
SWIDTH 785 0
DWIDTH 9 0
BBX 9 15 0 -3
BITMAP
0000
0000
7E00
1800
1800
1800
1800
1800
1800
1800
1800
7E00
0000
1800
1800
ENDCHAR

STARTCHAR uni1ECB
ENCODING 7883
SWIDTH 785 0
DWIDTH 9 0
BBX 9 15 0 -3
BITMAP
0000
0000
1800
1800
0000
3800
1800
1800
1800
1800
1800
7E00
0000
1800
1800
ENDCHAR

STARTCHAR uni1ECC
ENCODING 7884
SWIDTH 785 0
DWIDTH 9 0
BBX 9 15 0 -3
BITMAP
0000
0000
3C00
6600
C300
C300
C300
C300
C300
C300
6600
3C00
0000
1800
1800
ENDCHAR

STARTCHAR uni1ECD
ENCODING 7885
SWIDTH 785 0
DWIDTH 9 0
BBX 9 15 0 -3
BITMAP
0000
0000
0000
0000
0000
3C00
6600
C300
C300
C300
6600
3C00
0000
1800
1800
ENDCHAR

STARTCHAR uni1ECE
ENCODING 7886
SWIDTH 785 0
DWIDTH 9 0
BBX 9 15 0 -3
BITMAP
1800
0C00
1800
0000
3C00
6600
C300
C300
C300
C300
6600
3C00
0000
0000
0000
ENDCHAR

STARTCHAR uni1ECF
ENCODING 7887
SWIDTH 785 0
DWIDTH 9 0
BBX 9 15 0 -3
BITMAP
0000
1800
0C00
1800
0000
3C00
6600
C300
C300
C300
6600
3C00
0000
0000
0000
ENDCHAR

STARTCHAR uni1ED0
ENCODING 7888
SWIDTH 785 0
DWIDTH 9 0
BBX 9 15 0 -3
BITMAP
3300
6A00
0000
3C00
6600
C300
C300
C300
C300
C300
6600
3C00
0000
0000
0000
ENDCHAR

STARTCHAR uni1ED1
ENCODING 7889
SWIDTH 785 0
DWIDTH 9 0
BBX 9 15 0 -3
BITMAP
0000
0000
3300
6A00
0000
3C00
6600
C300
C300
C300
6600
3C00
0000
0000
0000
ENDCHAR

STARTCHAR uni1ED2
ENCODING 7890
SWIDTH 785 0
DWIDTH 9 0
BBX 9 15 0 -3
BITMAP
CC00
5600
0000
3C00
6600
C300
C300
C300
C300
C300
6600
3C00
0000
0000
0000
ENDCHAR

STARTCHAR uni1ED3
ENCODING 7891
SWIDTH 785 0
DWIDTH 9 0
BBX 9 15 0 -3
BITMAP
0000
0000
CC00
5600
0000
3C00
6600
C300
C300
C300
6600
3C00
0000
0000
0000
ENDCHAR

STARTCHAR uni1ED4
ENCODING 7892
SWIDTH 785 0
DWIDTH 9 0
BBX 9 15 0 -3
BITMAP
0600
6300
D600
0000
3C00
6600
C300
C300
C300
C300
C300
6600
3C00
0000
0000
ENDCHAR

STARTCHAR uni1ED5
ENCODING 7893
SWIDTH 785 0
DWIDTH 9 0
BBX 9 15 0 -3
BITMAP
0000
0600
6300
D600
0000
3C00
6600
C300
C300
C300
6600
3C00
0000
0000
0000
ENDCHAR

STARTCHAR uni1ED6
ENCODING 7894
SWIDTH 785 0
DWIDTH 9 0
BBX 9 15 0 -3
BITMAP
1400
2800
3C00
4200
3C00
6600
C300
C300
C300
C300
6600
3C00
0000
0000
0000
ENDCHAR

STARTCHAR uni1ED7
ENCODING 7895
SWIDTH 785 0
DWIDTH 9 0
BBX 9 15 0 -3
BITMAP
1400
2800
3C00
4200
0000
3C00
6600
C300
C300
C300
6600
3C00
0000
0000
0000
ENDCHAR

STARTCHAR uni1ED8
ENCODING 7896
SWIDTH 785 0
DWIDTH 9 0
BBX 9 15 0 -3
BITMAP
0000
3C00
4200
0000
3C00
6600
C300
C300
C300
C300
6600
3C00
0000
1800
1800
ENDCHAR

STARTCHAR uni1ED9
ENCODING 7897
SWIDTH 785 0
DWIDTH 9 0
BBX 9 15 0 -3
BITMAP
0000
0000
3C00
4200
0000
3C00
6600
C300
C300
C300
6600
3C00
0000
1800
1800
ENDCHAR

STARTCHAR uni1EDA
ENCODING 7898
SWIDTH 785 0
DWIDTH 9 0
BBX 9 15 0 -3
BITMAP
0C00
0900
0100
3D00
6600
C300
C300
C300
C300
C300
6600
3C00
0000
0000
0000
ENDCHAR

STARTCHAR uni1EDB
ENCODING 7899
SWIDTH 785 0
DWIDTH 9 0
BBX 9 15 0 -3
BITMAP
0000
0000
0C00
0900
0100
3D00
6600
C300
C300
C300
6600
3C00
0000
0000
0000
ENDCHAR

STARTCHAR uni1EDC
ENCODING 7900
SWIDTH 785 0
DWIDTH 9 0
BBX 9 15 0 -3
BITMAP
1800
0900
0100
3D00
6600
C300
C300
C300
C300
C300
6600
3C00
0000
0000
0000
ENDCHAR

STARTCHAR uni1EDD
ENCODING 7901
SWIDTH 785 0
DWIDTH 9 0
BBX 9 15 0 -3
BITMAP
0000
0000
1800
0900
0100
3D00
6600
C300
C300
C300
6600
3C00
0000
0000
0000
ENDCHAR

STARTCHAR uni1EDE
ENCODING 7902
SWIDTH 785 0
DWIDTH 9 0
BBX 9 15 0 -3
BITMAP
3000
1800
3100
0100
3D00
6600
C300
C300
C300
C300
6600
3C00
0000
0000
0000
ENDCHAR

STARTCHAR uni1EDF
ENCODING 7903
SWIDTH 785 0
DWIDTH 9 0
BBX 9 15 0 -3
BITMAP
0000
3000
1800
3100
0100
3D00
6600
C300
C300
C300
6600
3C00
0000
0000
0000
ENDCHAR

STARTCHAR uni1EE0
ENCODING 7904
SWIDTH 785 0
DWIDTH 9 0
BBX 9 15 0 -3
BITMAP
0000
6400
9900
0100
3D00
6600
C300
C300
C300
C300
6600
3C00
0000
0000
0000
ENDCHAR

STARTCHAR uni1EE1
ENCODING 7905
SWIDTH 785 0
DWIDTH 9 0
BBX 9 15 0 -3
BITMAP
0000
0000
6400
9900
0100
3D00
6600
C300
C300
C300
6600
3C00
0000
0000
0000
ENDCHAR

STARTCHAR uni1EE2
ENCODING 7906
SWIDTH 785 0
DWIDTH 9 0
BBX 9 15 0 -3
BITMAP
0000
0000
0100
0100
3D00
6600
C300
C300
C300
C300
6600
3C00
0000
1800
1800
ENDCHAR

STARTCHAR uni1EE3
ENCODING 7907
SWIDTH 785 0
DWIDTH 9 0
BBX 9 15 0 -3
BITMAP
0000
0000
0000
0100
0100
3D00
6600
C300
C300
C300
6600
3C00
0000
1800
1800
ENDCHAR

STARTCHAR uni1EE4
ENCODING 7908
SWIDTH 785 0
DWIDTH 9 0
BBX 9 15 0 -3
BITMAP
0000
0000
C300
C300
C300
C300
C300
C300
C300
C300
6600
3C00
0000
1800
1800
ENDCHAR

STARTCHAR uni1EE5
ENCODING 7909
SWIDTH 785 0
DWIDTH 9 0
BBX 9 15 0 -3
BITMAP
0000
0000
0000
0000
0000
C300
C300
C300
C300
C300
6700
3B00
0000
1800
1800
ENDCHAR

STARTCHAR uni1EE6
ENCODING 7910
SWIDTH 785 0
DWIDTH 9 0
BBX 9 15 0 -3
BITMAP
1800
0C00
1800
C300
C300
C300
C300
C300
C300
C300
6600
3C00
0000
0000
0000
ENDCHAR

STARTCHAR uni1EE7
ENCODING 7911
SWIDTH 785 0
DWIDTH 9 0
BBX 9 15 0 -3
BITMAP
0000
1800
0C00
1800
0000
C300
C300
C300
C300
C300
6700
3B00
0000
0000
0000
ENDCHAR

STARTCHAR uni1EE8
ENCODING 7912
SWIDTH 785 0
DWIDTH 9 0
BBX 9 15 0 -3
BITMAP
0800
1900
1100
C600
C600
C600
C600
C600
C600
C600
6C00
3800
0000
0000
0000
ENDCHAR

STARTCHAR uni1EE9
ENCODING 7913
SWIDTH 785 0
DWIDTH 9 0
BBX 9 15 0 -3
BITMAP
0000
0000
1800
3100
0100
C600
C600
C600
C600
C600
6E00
3600
0000
0000
0000
ENDCHAR

STARTCHAR uni1EEA
ENCODING 7914
SWIDTH 785 0
DWIDTH 9 0
BBX 9 15 0 -3
BITMAP
0800
1900
1100
C600
C600
C600
C600
C600
C600
C600
6C00
3800
0000
0000
0000
ENDCHAR

STARTCHAR uni1EEB
ENCODING 7915
SWIDTH 785 0
DWIDTH 9 0
BBX 9 15 0 -3
BITMAP
0000
0000
6000
3100
0100
C600
C600
C600
C600
C600
6E00
3600
0000
0000
0000
ENDCHAR

STARTCHAR uni1EEC
ENCODING 7916
SWIDTH 785 0
DWIDTH 9 0
BBX 9 15 0 -3
BITMAP
3000
1800
3100
0100
C600
C600
C600
C600
C600
C600
6C00
3800
0000
0000
0000
ENDCHAR

STARTCHAR uni1EED
ENCODING 7917
SWIDTH 785 0
DWIDTH 9 0
BBX 9 15 0 -3
BITMAP
0000
3000
1800
3100
0100
C600
C600
C600
C600
C600
6E00
3600
0000
0000
0000
ENDCHAR

STARTCHAR uni1EEE
ENCODING 7918
SWIDTH 785 0
DWIDTH 9 0
BBX 9 15 0 -3
BITMAP
6400
9900
0100
C600
C600
C600
C600
C600
C600
C600
6C00
3800
0000
0000
0000
ENDCHAR

STARTCHAR uni1EEF
ENCODING 7919
SWIDTH 785 0
DWIDTH 9 0
BBX 9 15 0 -3
BITMAP
0000
0000
6400
9900
0100
C600
C600
C600
C600
C600
6E00
3600
0000
0000
0000
ENDCHAR

STARTCHAR uni1EF0
ENCODING 7920
SWIDTH 785 0
DWIDTH 9 0
BBX 9 15 0 -3
BITMAP
0000
0100
0100
C600
C600
C600
C600
C600
C600
C600
6C00
3800
0000
1800
1800
ENDCHAR

STARTCHAR uni1EF1
ENCODING 7921
SWIDTH 785 0
DWIDTH 9 0
BBX 9 15 0 -3
BITMAP
0000
0000
0000
0100
0100
C600
C600
C600
C600
C600
6E00
3600
0000
1800
1800
ENDCHAR

STARTCHAR Ygrave
ENCODING 7922
SWIDTH 785 0
DWIDTH 9 0
BBX 9 15 0 -3
BITMAP
6000
3000
1800
C300
C300
6600
3C00
1800
1800
1800
1800
1800
0000
0000
0000
ENDCHAR

STARTCHAR ygrave
ENCODING 7923
SWIDTH 785 0
DWIDTH 9 0
BBX 9 15 0 -3
BITMAP
0000
6000
3000
1800
0000
C300
C300
C300
C300
C300
6700
3B00
0300
C600
7C00
ENDCHAR

STARTCHAR uni1EF4
ENCODING 7924
SWIDTH 785 0
DWIDTH 9 0
BBX 9 15 0 -3
BITMAP
0000
0000
C300
C300
6600
3C00
1800
1800
1800
1800
1800
1800
0000
1800
1800
ENDCHAR

STARTCHAR uni1EF5
ENCODING 7925
SWIDTH 785 0
DWIDTH 9 0
BBX 9 15 0 -3
BITMAP
0000
0000
0000
0000
C600
C600
C600
C600
C600
6E00
3600
0600
CC00
7B00
0300
ENDCHAR

STARTCHAR uni1EF6
ENCODING 7926
SWIDTH 785 0
DWIDTH 9 0
BBX 9 15 0 -3
BITMAP
1800
0C00
1800
C300
C300
6600
3C00
1800
1800
1800
1800
1800
0000
0000
0000
ENDCHAR

STARTCHAR uni1EF7
ENCODING 7927
SWIDTH 785 0
DWIDTH 9 0
BBX 9 15 0 -3
BITMAP
0000
1800
0C00
1800
0000
C300
C300
C300
C300
C300
6700
3B00
0300
C600
7C00
ENDCHAR

STARTCHAR uni1EF8
ENCODING 7928
SWIDTH 785 0
DWIDTH 9 0
BBX 9 15 0 -3
BITMAP
3200
4C00
0000
C300
C300
6600
3C00
1800
1800
1800
1800
1800
0000
0000
0000
ENDCHAR

STARTCHAR uni1EF9
ENCODING 7929
SWIDTH 785 0
DWIDTH 9 0
BBX 9 15 0 -3
BITMAP
0000
0000
3200
4C00
0000
C300
C300
C300
C300
C300
6700
3B00
0300
C600
7C00
ENDCHAR

STARTCHAR uni1F00
ENCODING 7936
SWIDTH 785 0
DWIDTH 9 0
BBX 9 15 0 -3
BITMAP
0000
1C00
0C00
1800
0000
7B00
C700
C300
C300
C700
CB00
7300
0000
0000
0000
ENDCHAR

STARTCHAR uni1F01
ENCODING 7937
SWIDTH 785 0
DWIDTH 9 0
BBX 9 15 0 -3
BITMAP
0000
1C00
1800
0C00
0000
7B00
C700
C300
C300
C700
CB00
7300
0000
0000
0000
ENDCHAR

STARTCHAR uni1F02
ENCODING 7938
SWIDTH 785 0
DWIDTH 9 0
BBX 9 15 0 -3
BITMAP
0000
7C00
3600
6300
0000
7B00
C700
C300
C300
C700
CB00
7300
0000
0000
0000
ENDCHAR

STARTCHAR uni1F03
ENCODING 7939
SWIDTH 785 0
DWIDTH 9 0
BBX 9 15 0 -3
BITMAP
0000
7C00
6600
3300
0000
7B00
C700
C300
C300
C700
CB00
7300
0000
0000
0000
ENDCHAR

STARTCHAR uni1F04
ENCODING 7940
SWIDTH 785 0
DWIDTH 9 0
BBX 9 15 0 -3
BITMAP
0000
7300
3600
6C00
0000
7B00
C700
C300
C300
C700
CB00
7300
0000
0000
0000
ENDCHAR

STARTCHAR uni1F05
ENCODING 7941
SWIDTH 785 0
DWIDTH 9 0
BBX 9 15 0 -3
BITMAP
0000
7300
6600
3C00
0000
7B00
C700
C300
C300
C700
CB00
7300
0000
0000
0000
ENDCHAR

STARTCHAR uni1F06
ENCODING 7942
SWIDTH 785 0
DWIDTH 9 0
BBX 9 15 0 -3
BITMAP
3200
5C00
0C00
1800
0000
7B00
C700
C300
C300
C700
CB00
7300
0000
0000
0000
ENDCHAR

STARTCHAR uni1F07
ENCODING 7943
SWIDTH 785 0
DWIDTH 9 0
BBX 9 15 0 -3
BITMAP
3200
5C00
1800
0C00
0000
7B00
C700
C300
C300
C700
CB00
7300
0000
0000
0000
ENDCHAR

STARTCHAR uni1F08
ENCODING 7944
SWIDTH 785 0
DWIDTH 9 0
BBX 9 15 0 -3
BITMAP
0000
0000
C600
4F00
9980
1980
1980
1980
1F80
1980
1980
1980
0000
0000
0000
ENDCHAR

STARTCHAR uni1F09
ENCODING 7945
SWIDTH 785 0
DWIDTH 9 0
BBX 9 15 0 -3
BITMAP
0000
0000
C600
8F00
5980
1980
1980
1980
1F80
1980
1980
1980
0000
0000
0000
ENDCHAR

STARTCHAR uni1F0A
ENCODING 7946
SWIDTH 785 0
DWIDTH 9 0
BBX 9 15 0 -3
BITMAP
0000
0000
E200
5700
8D80
0D80
0D80
0D80
0F80
0D80
0D80
0D80
0000
0000
0000
ENDCHAR

STARTCHAR uni1F0B
ENCODING 7947
SWIDTH 785 0
DWIDTH 9 0
BBX 9 15 0 -3
BITMAP
0000
0000
E200
9700
4D80
0D80
0D80
0D80
0F80
0D80
0D80
0D80
0000
0000
0000
ENDCHAR

STARTCHAR uni1F0C
ENCODING 7948
SWIDTH 785 0
DWIDTH 9 0
BBX 9 15 0 -3
BITMAP
0000
0000
D200
6700
8D80
0D80
0D80
0D80
0F80
0D80
0D80
0D80
0000
0000
0000
ENDCHAR

STARTCHAR uni1F0D
ENCODING 7949
SWIDTH 785 0
DWIDTH 9 0
BBX 9 15 0 -3
BITMAP
0000
0000
D200
A700
4D80
0D80
0D80
0D80
0F80
0D80
0D80
0D80
0000
0000
0000
ENDCHAR

STARTCHAR uni1F0E
ENCODING 7950
SWIDTH 785 0
DWIDTH 9 0
BBX 9 15 0 -3
BITMAP
0000
0000
C600
0F00
D980
5980
9980
1980
1F80
1980
1980
1980
0000
0000
0000
ENDCHAR

STARTCHAR uni1F0F
ENCODING 7951
SWIDTH 785 0
DWIDTH 9 0
BBX 9 15 0 -3
BITMAP
0000
0000
C600
0F00
D980
9980
5980
1980
1F80
1980
1980
1980
0000
0000
0000
ENDCHAR

STARTCHAR uni1F10
ENCODING 7952
SWIDTH 785 0
DWIDTH 9 0
BBX 9 15 0 -3
BITMAP
0000
1C00
0C00
1800
0000
7E00
C300
C000
7C00
C000
C300
7E00
0000
0000
0000
ENDCHAR

STARTCHAR uni1F11
ENCODING 7953
SWIDTH 785 0
DWIDTH 9 0
BBX 9 15 0 -3
BITMAP
0000
1C00
1800
0C00
0000
7E00
C300
C000
7C00
C000
C300
7E00
0000
0000
0000
ENDCHAR

STARTCHAR uni1F12
ENCODING 7954
SWIDTH 785 0
DWIDTH 9 0
BBX 9 15 0 -3
BITMAP
0000
7C00
3600
6300
0000
7E00
C300
C000
7C00
C000
C300
7E00
0000
0000
0000
ENDCHAR

STARTCHAR uni1F13
ENCODING 7955
SWIDTH 785 0
DWIDTH 9 0
BBX 9 15 0 -3
BITMAP
0000
7C00
6600
3300
0000
7E00
C300
C000
7C00
C000
C300
7E00
0000
0000
0000
ENDCHAR

STARTCHAR uni1F14
ENCODING 7956
SWIDTH 785 0
DWIDTH 9 0
BBX 9 15 0 -3
BITMAP
0000
7300
3600
6C00
0000
7E00
C300
C000
7C00
C000
C300
7E00
0000
0000
0000
ENDCHAR

STARTCHAR uni1F15
ENCODING 7957
SWIDTH 785 0
DWIDTH 9 0
BBX 9 15 0 -3
BITMAP
0000
7300
6600
3C00
0000
7E00
C300
C000
7C00
C000
C300
7E00
0000
0000
0000
ENDCHAR

STARTCHAR uni1F18
ENCODING 7960
SWIDTH 785 0
DWIDTH 9 0
BBX 9 15 0 -3
BITMAP
0000
0000
DF80
5800
9800
1800
1F00
1800
1800
1800
1800
1F80
0000
0000
0000
ENDCHAR

STARTCHAR uni1F19
ENCODING 7961
SWIDTH 785 0
DWIDTH 9 0
BBX 9 15 0 -3
BITMAP
0000
0000
DF80
9800
5800
1800
1F00
1800
1800
1800
1800
1F80
0000
0000
0000
ENDCHAR

STARTCHAR uni1F1A
ENCODING 7962
SWIDTH 785 0
DWIDTH 9 0
BBX 9 15 0 -3
BITMAP
0000
0000
EF80
5C00
8C00
0C00
0F00
0C00
0C00
0C00
0C00
0F80
0000
0000
0000
ENDCHAR

STARTCHAR uni1F1B
ENCODING 7963
SWIDTH 785 0
DWIDTH 9 0
BBX 9 15 0 -3
BITMAP
0000
0000
EF80
9C00
4C00
0C00
0F00
0C00
0C00
0C00
0C00
0F80
0000
0000
0000
ENDCHAR

STARTCHAR uni1F1C
ENCODING 7964
SWIDTH 785 0
DWIDTH 9 0
BBX 9 15 0 -3
BITMAP
0000
0000
DF80
6C00
8C00
0C00
0F00
0C00
0C00
0C00
0C00
0F80
0000
0000
0000
ENDCHAR

STARTCHAR uni1F1D
ENCODING 7965
SWIDTH 785 0
DWIDTH 9 0
BBX 9 15 0 -3
BITMAP
0000
0000
DF80
AC00
4C00
0C00
0F00
0C00
0C00
0C00
0C00
0F80
0000
0000
0000
ENDCHAR

STARTCHAR uni1F20
ENCODING 7968
SWIDTH 785 0
DWIDTH 9 0
BBX 9 15 0 -3
BITMAP
0000
1C00
0C00
1800
0000
DC00
E600
C300
C300
C300
C300
C300
0300
0300
0300
ENDCHAR

STARTCHAR uni1F21
ENCODING 7969
SWIDTH 785 0
DWIDTH 9 0
BBX 9 15 0 -3
BITMAP
0000
1C00
1800
0C00
0000
DC00
E600
C300
C300
C300
C300
C300
0300
0300
0300
ENDCHAR

STARTCHAR uni1F22
ENCODING 7970
SWIDTH 785 0
DWIDTH 9 0
BBX 9 15 0 -3
BITMAP
0000
7C00
3600
6300
0000
DC00
E600
C300
C300
C300
C300
C300
0300
0300
0300
ENDCHAR

STARTCHAR uni1F23
ENCODING 7971
SWIDTH 785 0
DWIDTH 9 0
BBX 9 15 0 -3
BITMAP
0000
7C00
6600
3300
0000
DC00
E600
C300
C300
C300
C300
C300
0300
0300
0300
ENDCHAR

STARTCHAR uni1F24
ENCODING 7972
SWIDTH 785 0
DWIDTH 9 0
BBX 9 15 0 -3
BITMAP
0000
7300
3600
6C00
0000
DC00
E600
C300
C300
C300
C300
C300
0300
0300
0300
ENDCHAR

STARTCHAR uni1F25
ENCODING 7973
SWIDTH 785 0
DWIDTH 9 0
BBX 9 15 0 -3
BITMAP
0000
7300
6600
3C00
0000
DC00
E600
C300
C300
C300
C300
C300
0300
0300
0300
ENDCHAR

STARTCHAR uni1F26
ENCODING 7974
SWIDTH 785 0
DWIDTH 9 0
BBX 9 15 0 -3
BITMAP
3200
5C00
0C00
1800
0000
DC00
E600
C300
C300
C300
C300
C300
0300
0300
0300
ENDCHAR

STARTCHAR uni1F27
ENCODING 7975
SWIDTH 785 0
DWIDTH 9 0
BBX 9 15 0 -3
BITMAP
3200
5C00
1800
0C00
0000
DC00
E600
C300
C300
C300
C300
C300
0300
0300
0300
ENDCHAR

STARTCHAR uni1F28
ENCODING 7976
SWIDTH 785 0
DWIDTH 9 0
BBX 9 15 0 -3
BITMAP
0000
0000
D980
5980
9980
1980
1F80
1980
1980
1980
1980
1980
0000
0000
0000
ENDCHAR

STARTCHAR uni1F29
ENCODING 7977
SWIDTH 785 0
DWIDTH 9 0
BBX 9 15 0 -3
BITMAP
0000
0000
D980
9980
5980
1980
1F80
1980
1980
1980
1980
1980
0000
0000
0000
ENDCHAR

STARTCHAR uni1F2A
ENCODING 7978
SWIDTH 785 0
DWIDTH 9 0
BBX 9 15 0 -3
BITMAP
0000
0000
ED80
5D80
8D80
0D80
0F80
0D80
0D80
0D80
0D80
0D80
0000
0000
0000
ENDCHAR

STARTCHAR uni1F2B
ENCODING 7979
SWIDTH 785 0
DWIDTH 9 0
BBX 9 15 0 -3
BITMAP
0000
0000
ED80
9D80
4D80
0D80
0F80
0D80
0D80
0D80
0D80
0D80
0000
0000
0000
ENDCHAR

STARTCHAR uni1F2C
ENCODING 7980
SWIDTH 785 0
DWIDTH 9 0
BBX 9 15 0 -3
BITMAP
0000
0000
DD80
6D80
8D80
0D80
0F80
0D80
0D80
0D80
0D80
0D80
0000
0000
0000
ENDCHAR

STARTCHAR uni1F2D
ENCODING 7981
SWIDTH 785 0
DWIDTH 9 0
BBX 9 15 0 -3
BITMAP
0000
0000
DD80
AD80
4D80
0D80
0F80
0D80
0D80
0D80
0D80
0D80
0000
0000
0000
ENDCHAR

STARTCHAR uni1F2E
ENCODING 7982
SWIDTH 785 0
DWIDTH 9 0
BBX 9 15 0 -3
BITMAP
0000
0000
D980
1980
D980
5980
9F80
1980
1980
1980
1980
1980
0000
0000
0000
ENDCHAR

STARTCHAR uni1F2F
ENCODING 7983
SWIDTH 785 0
DWIDTH 9 0
BBX 9 15 0 -3
BITMAP
0000
0000
D980
1980
D980
9980
5F80
1980
1980
1980
1980
1980
0000
0000
0000
ENDCHAR

STARTCHAR uni1F30
ENCODING 7984
SWIDTH 785 0
DWIDTH 9 0
BBX 9 15 0 -3
BITMAP
0000
3800
1800
3000
0000
3000
3000
3000
3000
3000
3600
1C00
0000
0000
0000
ENDCHAR

STARTCHAR uni1F31
ENCODING 7985
SWIDTH 785 0
DWIDTH 9 0
BBX 9 15 0 -3
BITMAP
0000
3800
3000
1800
0000
3000
3000
3000
3000
3000
3600
1C00
0000
0000
0000
ENDCHAR

STARTCHAR uni1F32
ENCODING 7986
SWIDTH 785 0
DWIDTH 9 0
BBX 9 15 0 -3
BITMAP
0000
7C00
3600
6300
0000
1800
1800
1800
1800
1800
1B00
0E00
0000
0000
0000
ENDCHAR

STARTCHAR uni1F33
ENCODING 7987
SWIDTH 785 0
DWIDTH 9 0
BBX 9 15 0 -3
BITMAP
0000
7C00
6600
3300
0000
1800
1800
1800
1800
1800
1B00
0E00
0000
0000
0000
ENDCHAR

STARTCHAR uni1F34
ENCODING 7988
SWIDTH 785 0
DWIDTH 9 0
BBX 9 15 0 -3
BITMAP
0000
7300
3600
6C00
0000
1800
1800
1800
1800
1800
1B00
0E00
0000
0000
0000
ENDCHAR

STARTCHAR uni1F35
ENCODING 7989
SWIDTH 785 0
DWIDTH 9 0
BBX 9 15 0 -3
BITMAP
0000
7300
6600
3C00
0000
1800
1800
1800
1800
1800
1B00
0E00
0000
0000
0000
ENDCHAR

STARTCHAR uni1F36
ENCODING 7990
SWIDTH 785 0
DWIDTH 9 0
BBX 9 15 0 -3
BITMAP
3200
5C00
0C00
1800
0000
1800
1800
1800
1800
1800
1B00
0E00
0000
0000
0000
ENDCHAR

STARTCHAR uni1F37
ENCODING 7991
SWIDTH 785 0
DWIDTH 9 0
BBX 9 15 0 -3
BITMAP
3200
5C00
1800
0C00
0000
1800
1800
1800
1800
1800
1B00
0E00
0000
0000
0000
ENDCHAR

STARTCHAR uni1F38
ENCODING 7992
SWIDTH 785 0
DWIDTH 9 0
BBX 9 15 0 -3
BITMAP
0000
0000
DF80
4600
8600
0600
0600
0600
0600
0600
0600
1F80
0000
0000
0000
ENDCHAR

STARTCHAR uni1F39
ENCODING 7993
SWIDTH 785 0
DWIDTH 9 0
BBX 9 15 0 -3
BITMAP
0000
0000
DF80
8600
4600
0600
0600
0600
0600
0600
0600
1F80
0000
0000
0000
ENDCHAR

STARTCHAR uni1F3A
ENCODING 7994
SWIDTH 785 0
DWIDTH 9 0
BBX 9 15 0 -3
BITMAP
0000
0000
EF00
5600
8600
0600
0600
0600
0600
0600
0600
0F00
0000
0000
0000
ENDCHAR

STARTCHAR uni1F3B
ENCODING 7995
SWIDTH 785 0
DWIDTH 9 0
BBX 9 15 0 -3
BITMAP
0000
0000
EF00
9600
4600
0600
0600
0600
0600
0600
0600
0F00
0000
0000
0000
ENDCHAR

ENDFONT
